  0
SECTION
  2
HEADER
  9
$ACADVER
  1
AC1014
  9
$HANDSEED
  5
FFFF
  9
$MEASUREMENT
 70
     1
  0
ENDSEC
  0
SECTION
  2
TABLES
  0
TABLE
  2
VPORT
  5
8
330
0
100
AcDbSymbolTable
 70
     4
  0
VPORT
  5
2E
330
8
100
AcDbSymbolTableRecord
100
AcDbViewportTableRecord
  2
*ACTIVE
 70
     0
 10
0.0
 20
0.0
 11
1.0
 21
1.0
 12
210.0
 22
148.5
 13
0.0
 23
0.0
 14
10.0
 24
10.0
 15
10.0
 25
10.0
 16
0.0
 26
0.0
 36
1.0
 17
0.0
 27
0.0
 37
0.0
 40
341.0
 41
1.24
 42
50.0
 43
0.0
 44
0.0
 50
0.0
 51
0.0
 71
     0
 72
   100
 73
     1
 74
     3
 75
     0
 76
     0
 77
     0
 78
     0
  0
ENDTAB
  0
TABLE
  2
LTYPE
  5
5
330
0
100
AcDbSymbolTable
 70
     1
  0
LTYPE
  5
14
330
5
100
AcDbSymbolTableRecord
100
AcDbLinetypeTableRecord
  2
BYBLOCK
 70
     0
  3

 72
    65
 73
     0
 40
0.0
  0
LTYPE
  5
15
330
5
100
AcDbSymbolTableRecord
100
AcDbLinetypeTableRecord
  2
BYLAYER
 70
     0
  3

 72
    65
 73
     0
 40
0.0
  0
LTYPE
  5
16
330
5
100
AcDbSymbolTableRecord
100
AcDbLinetypeTableRecord
  2
CONTINUOUS
 70
     0
  3
Solid line
 72
    65
 73
     0
 40
0.0
  0
ENDTAB
  0
TABLE
  2
LAYER
  5
2
100
AcDbSymbolTable
 70
4
  0
LAYER
  5
50
100
AcDbSymbolTableRecord
100
AcDbLayerTableRecord
  2
0
 70
0
  6
CONTINUOUS
  0
LAYER
  5
51
100
AcDbSymbolTableRecord
100
AcDbLayerTableRecord
  2
panel
 70
0
  6
CONTINUOUS
  0
LAYER
  5
52
100
AcDbSymbolTableRecord
100
AcDbLayerTableRecord
  2
Logo
 70
0
  6
CONTINUOUS
  0
LAYER
  5
53
100
AcDbSymbolTableRecord
100
AcDbLayerTableRecord
  2
text
 70
0
  6
CONTINUOUS
  0
ENDTAB
  0
TABLE
  2
STYLE
  5
3
330
0
100
AcDbSymbolTable
 70
     1
  0
STYLE
  5
11
330
3
100
AcDbSymbolTableRecord
100
AcDbTextStyleTableRecord
  2
STANDARD
 70
     0
 40
0.0
 41
1.0
 50
0.0
 71
     0
 42
2.5
  3
txt
  4

  0
ENDTAB
  0
TABLE
  2
VIEW
  5
6
330
0
100
AcDbSymbolTable
 70
     0
  0
ENDTAB
  0
TABLE
  2
UCS
  5
7
330
0
100
AcDbSymbolTable
 70
     0
  0
ENDTAB
  0
TABLE
  2
APPID
  5
9
330
0
100
AcDbSymbolTable
 70
     2
  0
APPID
  5
12
330
9
100
AcDbSymbolTableRecord
100
AcDbRegAppTableRecord
  2
ACAD
 70
     0
  0
ENDTAB
  0
TABLE
  2
DIMSTYLE
  5
A
330
0
100
AcDbSymbolTable
 70
     1
  0
DIMSTYLE
105
27
330
A
100
AcDbSymbolTableRecord
100
AcDbDimStyleTableRecord
  2
ISO-25
 70
     0
  3

  4

  5

  6

  7

 40
1.0
 41
2.5
 42
0.625
 43
3.75
 44
1.25
 45
0.0
 46
0.0
 47
0.0
 48
0.0
140
2.5
141
2.5
142
0.0
143
0.03937007874016
144
1.0
145
0.0
146
1.0
147
0.625
 71
     0
 72
     0
 73
     0
 74
     0
 75
     0
 76
     0
 77
     1
 78
     8
170
     0
171
     3
172
     1
173
     0
174
     0
175
     0
176
     0
177
     0
178
     0
270
     2
271
     2
272
     2
273
     2
274
     3
340
11
275
     0
280
     0
281
     0
282
     0
283
     0
284
     8
285
     0
286
     0
287
     3
288
     0
  0
ENDTAB
  0
TABLE
  2
BLOCK_RECORD
  5
1
330
0
100
AcDbSymbolTable
 70
     1
  0
BLOCK_RECORD
  5
1F
330
1
100
AcDbSymbolTableRecord
100
AcDbBlockTableRecord
  2
*MODEL_SPACE
  0
BLOCK_RECORD
  5
1B
330
1
100
AcDbSymbolTableRecord
100
AcDbBlockTableRecord
  2
*PAPER_SPACE
  0
ENDTAB
  0
ENDSEC
  0
SECTION
  2
BLOCKS
  0
BLOCK
  5
20
330
1F
100
AcDbEntity
  8
0
100
AcDbBlockBegin
  2
*MODEL_SPACE
 70
     0
 10
0.0
 20
0.0
 30
0.0
  3
*MODEL_SPACE
  1

  0
ENDBLK
  5
21
330
1F
100
AcDbEntity
  8
0
100
AcDbBlockEnd
  0
BLOCK
  5
1C
330
1B
100
AcDbEntity
 67
     1
  8
0
100
AcDbBlockBegin
  2
*PAPER_SPACE
  1

  0
ENDBLK
  5
1D
330
1B
100
AcDbEntity
 67
     1
  8
0
100
AcDbBlockEnd
  0
ENDSEC
  0
SECTION
  2
ENTITIES
  0
LINE
  5
100
100
AcDbEntity
  8
panel
 62
7
100
AcDbLine
 10
0.049981
 20
0.049849
 30
0.0
 11
40.590090
 21
0.049849
 31
0.0
  0
LINE
  5
101
100
AcDbEntity
  8
panel
 62
7
100
AcDbLine
 10
0.049981
 20
128.450048
 30
0.0
 11
0.049981
 21
0.049849
 31
0.0
  0
LINE
  5
102
100
AcDbEntity
  8
panel
 62
7
100
AcDbLine
 10
40.590090
 20
0.049849
 30
0.0
 11
40.590090
 21
128.450048
 31
0.0
  0
LINE
  5
103
100
AcDbEntity
  8
panel
 62
7
100
AcDbLine
 10
40.590090
 20
128.450048
 30
0.0
 11
0.049981
 21
128.450048
 31
0.0
  0
SPLINE
  5
104
100
AcDbEntity
  8
panel
 62
7
100
AcDbSpline
 70
8
 71
3
 72
8
 73
4
 74
0
 40
0
 40
0
 40
0
 40
0
 40
1
 40
1
 40
1
 40
1
 10
3.042564
 20
4.596334
 30
0.0
 10
2.189239
 20
4.595469
 30
0.0
 10
1.497939
 20
3.902303
 30
0.0
 10
1.497939
 20
3.047538
 30
0.0
  0
SPLINE
  5
105
100
AcDbEntity
  8
panel
 62
7
100
AcDbSpline
 70
8
 71
3
 72
8
 73
4
 74
0
 40
0
 40
0
 40
0
 40
0
 40
1
 40
1
 40
1
 40
1
 10
1.497939
 20
3.047538
 30
0.0
 10
1.497939
 20
2.192773
 30
0.0
 10
2.189239
 20
1.499606
 30
0.0
 10
3.042564
 20
1.498741
 30
0.0
  0
LINE
  5
106
100
AcDbEntity
  8
panel
 62
7
100
AcDbLine
 10
3.042454
 20
1.498641
 30
0.0
 11
6.035190
 21
1.498641
 31
0.0
  0
SPLINE
  5
107
100
AcDbEntity
  8
panel
 62
7
100
AcDbSpline
 70
8
 71
3
 72
8
 73
4
 74
0
 40
0
 40
0
 40
0
 40
0
 40
1
 40
1
 40
1
 40
1
 10
6.035192
 20
1.498741
 30
0.0
 10
6.888518
 20
1.499606
 30
0.0
 10
7.579818
 20
2.192773
 30
0.0
 10
7.579818
 20
3.047538
 30
0.0
  0
SPLINE
  5
108
100
AcDbEntity
  8
panel
 62
7
100
AcDbSpline
 70
8
 71
3
 72
8
 73
4
 74
0
 40
0
 40
0
 40
0
 40
0
 40
1
 40
1
 40
1
 40
1
 10
7.579818
 20
3.047538
 30
0.0
 10
7.579818
 20
3.902303
 30
0.0
 10
6.888518
 20
4.595469
 30
0.0
 10
6.035192
 20
4.596334
 30
0.0
  0
LINE
  5
109
100
AcDbEntity
  8
panel
 62
7
100
AcDbLine
 10
3.042454
 20
4.596358
 30
0.0
 11
6.035190
 21
4.596358
 31
0.0
  0
SPLINE
  5
10a
100
AcDbEntity
  8
panel
 62
7
100
AcDbSpline
 70
8
 71
3
 72
8
 73
4
 74
0
 40
0
 40
0
 40
0
 40
0
 40
1
 40
1
 40
1
 40
1
 10
9.995433
 20
19.784538
 30
0.0
 10
9.994428
 20
21.522172
 30
0.0
 10
8.587886
 20
22.930269
 30
0.0
 10
6.853176
 20
22.930269
 30
0.0
  0
SPLINE
  5
10b
100
AcDbEntity
  8
panel
 62
7
100
AcDbSpline
 70
8
 71
3
 72
8
 73
4
 74
0
 40
0
 40
0
 40
0
 40
0
 40
1
 40
1
 40
1
 40
1
 10
6.853176
 20
22.930269
 30
0.0
 10
5.118467
 20
22.930269
 30
0.0
 10
3.711925
 20
21.522172
 30
0.0
 10
3.710919
 20
19.784538
 30
0.0
  0
SPLINE
  5
10c
100
AcDbEntity
  8
panel
 62
7
100
AcDbSpline
 70
8
 71
3
 72
8
 73
4
 74
0
 40
0
 40
0
 40
0
 40
0
 40
1
 40
1
 40
1
 40
1
 10
3.710919
 20
19.784538
 30
0.0
 10
3.711925
 20
18.046904
 30
0.0
 10
5.118467
 20
16.638807
 30
0.0
 10
6.853176
 20
16.638807
 30
0.0
  0
SPLINE
  5
10d
100
AcDbEntity
  8
panel
 62
7
100
AcDbSpline
 70
8
 71
3
 72
8
 73
4
 74
0
 40
0
 40
0
 40
0
 40
0
 40
1
 40
1
 40
1
 40
1
 10
6.853176
 20
16.638807
 30
0.0
 10
8.587886
 20
16.638807
 30
0.0
 10
9.994428
 20
18.046904
 30
0.0
 10
9.995433
 20
19.784538
 30
0.0
  0
LINE
  5
10e
100
AcDbEntity
  8
panel
 62
7
100
AcDbLine
 10
9.995433
 20
19.784538
 30
0.0
 11
9.995433
 21
19.784538
 31
0.0
  0
SPLINE
  5
10f
100
AcDbEntity
  8
panel
 62
7
100
AcDbSpline
 70
8
 71
3
 72
8
 73
4
 74
0
 40
0
 40
0
 40
0
 40
0
 40
1
 40
1
 40
1
 40
1
 10
9.995433
 20
32.774450
 30
0.0
 10
9.994428
 20
34.512084
 30
0.0
 10
8.587886
 20
35.920181
 30
0.0
 10
6.853176
 20
35.920181
 30
0.0
  0
SPLINE
  5
110
100
AcDbEntity
  8
panel
 62
7
100
AcDbSpline
 70
8
 71
3
 72
8
 73
4
 74
0
 40
0
 40
0
 40
0
 40
0
 40
1
 40
1
 40
1
 40
1
 10
6.853176
 20
35.920181
 30
0.0
 10
5.118467
 20
35.920181
 30
0.0
 10
3.711925
 20
34.512084
 30
0.0
 10
3.710919
 20
32.774450
 30
0.0
  0
SPLINE
  5
111
100
AcDbEntity
  8
panel
 62
7
100
AcDbSpline
 70
8
 71
3
 72
8
 73
4
 74
0
 40
0
 40
0
 40
0
 40
0
 40
1
 40
1
 40
1
 40
1
 10
3.710919
 20
32.774450
 30
0.0
 10
3.711925
 20
31.036816
 30
0.0
 10
5.118467
 20
29.628719
 30
0.0
 10
6.853176
 20
29.628719
 30
0.0
  0
SPLINE
  5
112
100
AcDbEntity
  8
panel
 62
7
100
AcDbSpline
 70
8
 71
3
 72
8
 73
4
 74
0
 40
0
 40
0
 40
0
 40
0
 40
1
 40
1
 40
1
 40
1
 10
6.853176
 20
29.628719
 30
0.0
 10
8.587886
 20
29.628719
 30
0.0
 10
9.994428
 20
31.036816
 30
0.0
 10
9.995433
 20
32.774450
 30
0.0
  0
LINE
  5
113
100
AcDbEntity
  8
panel
 62
7
100
AcDbLine
 10
9.995433
 20
32.774450
 30
0.0
 11
9.995433
 21
32.774450
 31
0.0
  0
SPLINE
  5
114
100
AcDbEntity
  8
panel
 62
7
100
AcDbSpline
 70
8
 71
3
 72
8
 73
4
 74
0
 40
0
 40
0
 40
0
 40
0
 40
1
 40
1
 40
1
 40
1
 10
23.462250
 20
19.784538
 30
0.0
 10
23.461245
 20
21.522172
 30
0.0
 10
22.054703
 20
22.930269
 30
0.0
 10
20.319993
 20
22.930269
 30
0.0
  0
SPLINE
  5
115
100
AcDbEntity
  8
panel
 62
7
100
AcDbSpline
 70
8
 71
3
 72
8
 73
4
 74
0
 40
0
 40
0
 40
0
 40
0
 40
1
 40
1
 40
1
 40
1
 10
20.319993
 20
22.930269
 30
0.0
 10
18.585284
 20
22.930269
 30
0.0
 10
17.178742
 20
21.522172
 30
0.0
 10
17.177736
 20
19.784538
 30
0.0
  0
SPLINE
  5
116
100
AcDbEntity
  8
panel
 62
7
100
AcDbSpline
 70
8
 71
3
 72
8
 73
4
 74
0
 40
0
 40
0
 40
0
 40
0
 40
1
 40
1
 40
1
 40
1
 10
17.177736
 20
19.784538
 30
0.0
 10
17.178742
 20
18.046904
 30
0.0
 10
18.585284
 20
16.638807
 30
0.0
 10
20.319993
 20
16.638807
 30
0.0
  0
SPLINE
  5
117
100
AcDbEntity
  8
panel
 62
7
100
AcDbSpline
 70
8
 71
3
 72
8
 73
4
 74
0
 40
0
 40
0
 40
0
 40
0
 40
1
 40
1
 40
1
 40
1
 10
20.319993
 20
16.638807
 30
0.0
 10
22.054703
 20
16.638807
 30
0.0
 10
23.461245
 20
18.046904
 30
0.0
 10
23.462250
 20
19.784538
 30
0.0
  0
LINE
  5
118
100
AcDbEntity
  8
panel
 62
7
100
AcDbLine
 10
23.462250
 20
19.784538
 30
0.0
 11
23.462250
 21
19.784538
 31
0.0
  0
SPLINE
  5
119
100
AcDbEntity
  8
panel
 62
7
100
AcDbSpline
 70
8
 71
3
 72
8
 73
4
 74
0
 40
0
 40
0
 40
0
 40
0
 40
1
 40
1
 40
1
 40
1
 10
23.462250
 20
32.774450
 30
0.0
 10
23.461245
 20
34.512084
 30
0.0
 10
22.054703
 20
35.920181
 30
0.0
 10
20.319993
 20
35.920181
 30
0.0
  0
SPLINE
  5
11a
100
AcDbEntity
  8
panel
 62
7
100
AcDbSpline
 70
8
 71
3
 72
8
 73
4
 74
0
 40
0
 40
0
 40
0
 40
0
 40
1
 40
1
 40
1
 40
1
 10
20.319993
 20
35.920181
 30
0.0
 10
18.585284
 20
35.920181
 30
0.0
 10
17.178742
 20
34.512084
 30
0.0
 10
17.177736
 20
32.774450
 30
0.0
  0
SPLINE
  5
11b
100
AcDbEntity
  8
panel
 62
7
100
AcDbSpline
 70
8
 71
3
 72
8
 73
4
 74
0
 40
0
 40
0
 40
0
 40
0
 40
1
 40
1
 40
1
 40
1
 10
17.177736
 20
32.774450
 30
0.0
 10
17.178742
 20
31.036816
 30
0.0
 10
18.585284
 20
29.628719
 30
0.0
 10
20.319993
 20
29.628719
 30
0.0
  0
SPLINE
  5
11c
100
AcDbEntity
  8
panel
 62
7
100
AcDbSpline
 70
8
 71
3
 72
8
 73
4
 74
0
 40
0
 40
0
 40
0
 40
0
 40
1
 40
1
 40
1
 40
1
 10
20.319993
 20
29.628719
 30
0.0
 10
22.054703
 20
29.628719
 30
0.0
 10
23.461245
 20
31.036816
 30
0.0
 10
23.462250
 20
32.774450
 30
0.0
  0
LINE
  5
11d
100
AcDbEntity
  8
panel
 62
7
100
AcDbLine
 10
23.462250
 20
32.774450
 30
0.0
 11
23.462250
 21
32.774450
 31
0.0
  0
SPLINE
  5
11e
100
AcDbEntity
  8
panel
 62
7
100
AcDbSpline
 70
8
 71
3
 72
8
 73
4
 74
0
 40
0
 40
0
 40
0
 40
0
 40
1
 40
1
 40
1
 40
1
 10
28.350208
 20
19.784538
 30
0.0
 10
28.350208
 20
20.337870
 30
0.0
 10
28.055505
 20
20.849170
 30
0.0
 10
27.577112
 20
21.125836
 30
0.0
  0
SPLINE
  5
11f
100
AcDbEntity
  8
panel
 62
7
100
AcDbSpline
 70
8
 71
3
 72
8
 73
4
 74
0
 40
0
 40
0
 40
0
 40
0
 40
1
 40
1
 40
1
 40
1
 10
27.577112
 20
21.125836
 30
0.0
 10
27.098719
 20
21.402503
 30
0.0
 10
26.509315
 20
21.402503
 30
0.0
 10
26.030921
 20
21.125836
 30
0.0
  0
SPLINE
  5
120
100
AcDbEntity
  8
panel
 62
7
100
AcDbSpline
 70
8
 71
3
 72
8
 73
4
 74
0
 40
0
 40
0
 40
0
 40
0
 40
1
 40
1
 40
1
 40
1
 10
26.030921
 20
21.125836
 30
0.0
 10
25.552528
 20
20.849170
 30
0.0
 10
25.257826
 20
20.337870
 30
0.0
 10
25.257826
 20
19.784538
 30
0.0
  0
SPLINE
  5
121
100
AcDbEntity
  8
panel
 62
7
100
AcDbSpline
 70
8
 71
3
 72
8
 73
4
 74
0
 40
0
 40
0
 40
0
 40
0
 40
1
 40
1
 40
1
 40
1
 10
25.257826
 20
19.784538
 30
0.0
 10
25.257826
 20
19.231206
 30
0.0
 10
25.552528
 20
18.719906
 30
0.0
 10
26.030921
 20
18.443240
 30
0.0
  0
SPLINE
  5
122
100
AcDbEntity
  8
panel
 62
7
100
AcDbSpline
 70
8
 71
3
 72
8
 73
4
 74
0
 40
0
 40
0
 40
0
 40
0
 40
1
 40
1
 40
1
 40
1
 10
26.030921
 20
18.443240
 30
0.0
 10
26.509315
 20
18.166574
 30
0.0
 10
27.098719
 20
18.166574
 30
0.0
 10
27.577112
 20
18.443240
 30
0.0
  0
SPLINE
  5
123
100
AcDbEntity
  8
panel
 62
7
100
AcDbSpline
 70
8
 71
3
 72
8
 73
4
 74
0
 40
0
 40
0
 40
0
 40
0
 40
1
 40
1
 40
1
 40
1
 10
27.577112
 20
18.443240
 30
0.0
 10
28.055505
 20
18.719906
 30
0.0
 10
28.350208
 20
19.231206
 30
0.0
 10
28.350208
 20
19.784538
 30
0.0
  0
LINE
  5
124
100
AcDbEntity
  8
panel
 62
7
100
AcDbLine
 10
28.350208
 20
19.784538
 30
0.0
 11
28.350208
 21
19.784538
 31
0.0
  0
SPLINE
  5
125
100
AcDbEntity
  8
panel
 62
7
100
AcDbSpline
 70
8
 71
3
 72
8
 73
4
 74
0
 40
0
 40
0
 40
0
 40
0
 40
1
 40
1
 40
1
 40
1
 10
28.350208
 20
32.774450
 30
0.0
 10
28.350208
 20
33.327782
 30
0.0
 10
28.055505
 20
33.839082
 30
0.0
 10
27.577112
 20
34.115748
 30
0.0
  0
SPLINE
  5
126
100
AcDbEntity
  8
panel
 62
7
100
AcDbSpline
 70
8
 71
3
 72
8
 73
4
 74
0
 40
0
 40
0
 40
0
 40
0
 40
1
 40
1
 40
1
 40
1
 10
27.577112
 20
34.115748
 30
0.0
 10
27.098719
 20
34.392414
 30
0.0
 10
26.509315
 20
34.392414
 30
0.0
 10
26.030921
 20
34.115748
 30
0.0
  0
SPLINE
  5
127
100
AcDbEntity
  8
panel
 62
7
100
AcDbSpline
 70
8
 71
3
 72
8
 73
4
 74
0
 40
0
 40
0
 40
0
 40
0
 40
1
 40
1
 40
1
 40
1
 10
26.030921
 20
34.115748
 30
0.0
 10
25.552528
 20
33.839082
 30
0.0
 10
25.257826
 20
33.327782
 30
0.0
 10
25.257826
 20
32.774450
 30
0.0
  0
SPLINE
  5
128
100
AcDbEntity
  8
panel
 62
7
100
AcDbSpline
 70
8
 71
3
 72
8
 73
4
 74
0
 40
0
 40
0
 40
0
 40
0
 40
1
 40
1
 40
1
 40
1
 10
25.257826
 20
32.774450
 30
0.0
 10
25.257826
 20
32.221118
 30
0.0
 10
25.552528
 20
31.709818
 30
0.0
 10
26.030921
 20
31.433152
 30
0.0
  0
SPLINE
  5
129
100
AcDbEntity
  8
panel
 62
7
100
AcDbSpline
 70
8
 71
3
 72
8
 73
4
 74
0
 40
0
 40
0
 40
0
 40
0
 40
1
 40
1
 40
1
 40
1
 10
26.030921
 20
31.433152
 30
0.0
 10
26.509315
 20
31.156486
 30
0.0
 10
27.098719
 20
31.156486
 30
0.0
 10
27.577112
 20
31.433152
 30
0.0
  0
SPLINE
  5
12a
100
AcDbEntity
  8
panel
 62
7
100
AcDbSpline
 70
8
 71
3
 72
8
 73
4
 74
0
 40
0
 40
0
 40
0
 40
0
 40
1
 40
1
 40
1
 40
1
 10
27.577112
 20
31.433152
 30
0.0
 10
28.055505
 20
31.709818
 30
0.0
 10
28.350208
 20
32.221118
 30
0.0
 10
28.350208
 20
32.774450
 30
0.0
  0
LINE
  5
12b
100
AcDbEntity
  8
panel
 62
7
100
AcDbLine
 10
28.350208
 20
32.774450
 30
0.0
 11
28.350208
 21
32.774450
 31
0.0
  0
SPLINE
  5
12c
100
AcDbEntity
  8
panel
 62
7
100
AcDbSpline
 70
8
 71
3
 72
8
 73
4
 74
0
 40
0
 40
0
 40
0
 40
0
 40
1
 40
1
 40
1
 40
1
 10
34.604797
 20
4.596334
 30
0.0
 10
33.751471
 20
4.595469
 30
0.0
 10
33.060171
 20
3.902303
 30
0.0
 10
33.060171
 20
3.047538
 30
0.0
  0
SPLINE
  5
12d
100
AcDbEntity
  8
panel
 62
7
100
AcDbSpline
 70
8
 71
3
 72
8
 73
4
 74
0
 40
0
 40
0
 40
0
 40
0
 40
1
 40
1
 40
1
 40
1
 10
33.060171
 20
3.047538
 30
0.0
 10
33.060171
 20
2.192773
 30
0.0
 10
33.751471
 20
1.499606
 30
0.0
 10
34.604797
 20
1.498741
 30
0.0
  0
LINE
  5
12e
100
AcDbEntity
  8
panel
 62
7
100
AcDbLine
 10
34.604881
 20
1.498641
 30
0.0
 11
37.597354
 21
1.498641
 31
0.0
  0
SPLINE
  5
12f
100
AcDbEntity
  8
panel
 62
7
100
AcDbSpline
 70
8
 71
3
 72
8
 73
4
 74
0
 40
0
 40
0
 40
0
 40
0
 40
1
 40
1
 40
1
 40
1
 10
37.597422
 20
1.498741
 30
0.0
 10
38.450748
 20
1.499606
 30
0.0
 10
39.142048
 20
2.192773
 30
0.0
 10
39.142048
 20
3.047538
 30
0.0
  0
SPLINE
  5
130
100
AcDbEntity
  8
panel
 62
7
100
AcDbSpline
 70
8
 71
3
 72
8
 73
4
 74
0
 40
0
 40
0
 40
0
 40
0
 40
1
 40
1
 40
1
 40
1
 10
39.142048
 20
3.047538
 30
0.0
 10
39.142048
 20
3.902303
 30
0.0
 10
38.450748
 20
4.595469
 30
0.0
 10
37.597422
 20
4.596334
 30
0.0
  0
LINE
  5
131
100
AcDbEntity
  8
panel
 62
7
100
AcDbLine
 10
34.604881
 20
4.596358
 30
0.0
 11
37.597354
 21
4.596358
 31
0.0
  0
SPLINE
  5
132
100
AcDbEntity
  8
panel
 62
7
100
AcDbSpline
 70
8
 71
3
 72
8
 73
4
 74
0
 40
0
 40
0
 40
0
 40
0
 40
1
 40
1
 40
1
 40
1
 10
36.929070
 20
19.784538
 30
0.0
 10
36.929070
 20
20.909052
 30
0.0
 10
36.330159
 20
21.948145
 30
0.0
 10
35.357941
 20
22.510402
 30
0.0
  0
SPLINE
  5
133
100
AcDbEntity
  8
panel
 62
7
100
AcDbSpline
 70
8
 71
3
 72
8
 73
4
 74
0
 40
0
 40
0
 40
0
 40
0
 40
1
 40
1
 40
1
 40
1
 10
35.357941
 20
22.510402
 30
0.0
 10
34.385723
 20
23.072659
 30
0.0
 10
33.187901
 20
23.072659
 30
0.0
 10
32.215683
 20
22.510402
 30
0.0
  0
SPLINE
  5
134
100
AcDbEntity
  8
panel
 62
7
100
AcDbSpline
 70
8
 71
3
 72
8
 73
4
 74
0
 40
0
 40
0
 40
0
 40
0
 40
1
 40
1
 40
1
 40
1
 10
32.215683
 20
22.510402
 30
0.0
 10
31.243465
 20
21.948145
 30
0.0
 10
30.644553
 20
20.909052
 30
0.0
 10
30.644553
 20
19.784538
 30
0.0
  0
SPLINE
  5
135
100
AcDbEntity
  8
panel
 62
7
100
AcDbSpline
 70
8
 71
3
 72
8
 73
4
 74
0
 40
0
 40
0
 40
0
 40
0
 40
1
 40
1
 40
1
 40
1
 10
30.644553
 20
19.784538
 30
0.0
 10
30.644553
 20
18.660025
 30
0.0
 10
31.243465
 20
17.620931
 30
0.0
 10
32.215683
 20
17.058675
 30
0.0
  0
SPLINE
  5
136
100
AcDbEntity
  8
panel
 62
7
100
AcDbSpline
 70
8
 71
3
 72
8
 73
4
 74
0
 40
0
 40
0
 40
0
 40
0
 40
1
 40
1
 40
1
 40
1
 10
32.215683
 20
17.058675
 30
0.0
 10
33.187901
 20
16.496418
 30
0.0
 10
34.385723
 20
16.496418
 30
0.0
 10
35.357941
 20
17.058675
 30
0.0
  0
SPLINE
  5
137
100
AcDbEntity
  8
panel
 62
7
100
AcDbSpline
 70
8
 71
3
 72
8
 73
4
 74
0
 40
0
 40
0
 40
0
 40
0
 40
1
 40
1
 40
1
 40
1
 10
35.357941
 20
17.058675
 30
0.0
 10
36.330159
 20
17.620931
 30
0.0
 10
36.929070
 20
18.660025
 30
0.0
 10
36.929070
 20
19.784538
 30
0.0
  0
LINE
  5
138
100
AcDbEntity
  8
panel
 62
7
100
AcDbLine
 10
36.929070
 20
19.784538
 30
0.0
 11
36.929070
 21
19.784538
 31
0.0
  0
SPLINE
  5
139
100
AcDbEntity
  8
panel
 62
7
100
AcDbSpline
 70
8
 71
3
 72
8
 73
4
 74
0
 40
0
 40
0
 40
0
 40
0
 40
1
 40
1
 40
1
 40
1
 10
36.929070
 20
32.774450
 30
0.0
 10
36.929070
 20
33.898963
 30
0.0
 10
36.330159
 20
34.938057
 30
0.0
 10
35.357941
 20
35.500314
 30
0.0
  0
SPLINE
  5
13a
100
AcDbEntity
  8
panel
 62
7
100
AcDbSpline
 70
8
 71
3
 72
8
 73
4
 74
0
 40
0
 40
0
 40
0
 40
0
 40
1
 40
1
 40
1
 40
1
 10
35.357941
 20
35.500314
 30
0.0
 10
34.385723
 20
36.062570
 30
0.0
 10
33.187901
 20
36.062570
 30
0.0
 10
32.215683
 20
35.500314
 30
0.0
  0
SPLINE
  5
13b
100
AcDbEntity
  8
panel
 62
7
100
AcDbSpline
 70
8
 71
3
 72
8
 73
4
 74
0
 40
0
 40
0
 40
0
 40
0
 40
1
 40
1
 40
1
 40
1
 10
32.215683
 20
35.500314
 30
0.0
 10
31.243465
 20
34.938057
 30
0.0
 10
30.644553
 20
33.898963
 30
0.0
 10
30.644553
 20
32.774450
 30
0.0
  0
SPLINE
  5
13c
100
AcDbEntity
  8
panel
 62
7
100
AcDbSpline
 70
8
 71
3
 72
8
 73
4
 74
0
 40
0
 40
0
 40
0
 40
0
 40
1
 40
1
 40
1
 40
1
 10
30.644553
 20
32.774450
 30
0.0
 10
30.644553
 20
31.649936
 30
0.0
 10
31.243465
 20
30.610843
 30
0.0
 10
32.215683
 20
30.048586
 30
0.0
  0
SPLINE
  5
13d
100
AcDbEntity
  8
panel
 62
7
100
AcDbSpline
 70
8
 71
3
 72
8
 73
4
 74
0
 40
0
 40
0
 40
0
 40
0
 40
1
 40
1
 40
1
 40
1
 10
32.215683
 20
30.048586
 30
0.0
 10
33.187901
 20
29.486329
 30
0.0
 10
34.385723
 20
29.486329
 30
0.0
 10
35.357941
 20
30.048586
 30
0.0
  0
SPLINE
  5
13e
100
AcDbEntity
  8
panel
 62
7
100
AcDbSpline
 70
8
 71
3
 72
8
 73
4
 74
0
 40
0
 40
0
 40
0
 40
0
 40
1
 40
1
 40
1
 40
1
 10
35.357941
 20
30.048586
 30
0.0
 10
36.330159
 20
30.610843
 30
0.0
 10
36.929070
 20
31.649936
 30
0.0
 10
36.929070
 20
32.774450
 30
0.0
  0
LINE
  5
13f
100
AcDbEntity
  8
panel
 62
7
100
AcDbLine
 10
36.929070
 20
32.774450
 30
0.0
 11
36.929070
 21
32.774450
 31
0.0
  0
SPLINE
  5
140
100
AcDbEntity
  8
panel
 62
7
100
AcDbSpline
 70
8
 71
3
 72
8
 73
4
 74
0
 40
0
 40
0
 40
0
 40
0
 40
1
 40
1
 40
1
 40
1
 10
3.042564
 20
127.001268
 30
0.0
 10
2.490164
 20
127.001268
 30
0.0
 10
1.979724
 20
126.706068
 30
0.0
 10
1.703524
 20
126.226869
 30
0.0
  0
SPLINE
  5
141
100
AcDbEntity
  8
panel
 62
7
100
AcDbSpline
 70
8
 71
3
 72
8
 73
4
 74
0
 40
0
 40
0
 40
0
 40
0
 40
1
 40
1
 40
1
 40
1
 10
1.703524
 20
126.226869
 30
0.0
 10
1.427324
 20
125.747669
 30
0.0
 10
1.427324
 20
125.157271
 30
0.0
 10
1.703524
 20
124.678071
 30
0.0
  0
SPLINE
  5
142
100
AcDbEntity
  8
panel
 62
7
100
AcDbSpline
 70
8
 71
3
 72
8
 73
4
 74
0
 40
0
 40
0
 40
0
 40
0
 40
1
 40
1
 40
1
 40
1
 10
1.703524
 20
124.678071
 30
0.0
 10
1.979724
 20
124.198871
 30
0.0
 10
2.490164
 20
123.903672
 30
0.0
 10
3.042564
 20
123.903672
 30
0.0
  0
LINE
  5
143
100
AcDbEntity
  8
panel
 62
7
100
AcDbLine
 10
3.042454
 20
123.903804
 30
0.0
 11
6.035190
 21
123.903804
 31
0.0
  0
SPLINE
  5
144
100
AcDbEntity
  8
panel
 62
7
100
AcDbSpline
 70
8
 71
3
 72
8
 73
4
 74
0
 40
0
 40
0
 40
0
 40
0
 40
1
 40
1
 40
1
 40
1
 10
6.035192
 20
123.903672
 30
0.0
 10
6.587593
 20
123.903672
 30
0.0
 10
7.098033
 20
124.198871
 30
0.0
 10
7.374233
 20
124.678071
 30
0.0
  0
SPLINE
  5
145
100
AcDbEntity
  8
panel
 62
7
100
AcDbSpline
 70
8
 71
3
 72
8
 73
4
 74
0
 40
0
 40
0
 40
0
 40
0
 40
1
 40
1
 40
1
 40
1
 10
7.374233
 20
124.678071
 30
0.0
 10
7.650433
 20
125.157271
 30
0.0
 10
7.650433
 20
125.747669
 30
0.0
 10
7.374233
 20
126.226869
 30
0.0
  0
SPLINE
  5
146
100
AcDbEntity
  8
panel
 62
7
100
AcDbSpline
 70
8
 71
3
 72
8
 73
4
 74
0
 40
0
 40
0
 40
0
 40
0
 40
1
 40
1
 40
1
 40
1
 10
7.374233
 20
126.226869
 30
0.0
 10
7.098033
 20
126.706068
 30
0.0
 10
6.587593
 20
127.001268
 30
0.0
 10
6.035192
 20
127.001268
 30
0.0
  0
LINE
  5
147
100
AcDbEntity
  8
panel
 62
7
100
AcDbLine
 10
3.042454
 20
127.001257
 30
0.0
 11
6.035190
 21
127.001257
 31
0.0
  0
SPLINE
  5
148
100
AcDbEntity
  8
panel
 62
7
100
AcDbSpline
 70
8
 71
3
 72
8
 73
4
 74
0
 40
0
 40
0
 40
0
 40
0
 40
1
 40
1
 40
1
 40
1
 10
23.911145
 20
79.238363
 30
0.0
 10
23.911145
 20
81.225045
 30
0.0
 10
22.303331
 20
82.835569
 30
0.0
 10
20.319993
 20
82.835569
 30
0.0
  0
SPLINE
  5
149
100
AcDbEntity
  8
panel
 62
7
100
AcDbSpline
 70
8
 71
3
 72
8
 73
4
 74
0
 40
0
 40
0
 40
0
 40
0
 40
1
 40
1
 40
1
 40
1
 10
20.319993
 20
82.835569
 30
0.0
 10
18.336655
 20
82.835569
 30
0.0
 10
16.728842
 20
81.225045
 30
0.0
 10
16.728842
 20
79.238363
 30
0.0
  0
SPLINE
  5
14a
100
AcDbEntity
  8
panel
 62
7
100
AcDbSpline
 70
8
 71
3
 72
8
 73
4
 74
0
 40
0
 40
0
 40
0
 40
0
 40
1
 40
1
 40
1
 40
1
 10
16.728842
 20
79.238363
 30
0.0
 10
16.728842
 20
77.953205
 30
0.0
 10
17.413311
 20
76.765670
 30
0.0
 10
18.524418
 20
76.123090
 30
0.0
  0
SPLINE
  5
14b
100
AcDbEntity
  8
panel
 62
7
100
AcDbSpline
 70
8
 71
3
 72
8
 73
4
 74
0
 40
0
 40
0
 40
0
 40
0
 40
1
 40
1
 40
1
 40
1
 10
18.524418
 20
76.123090
 30
0.0
 10
19.635524
 20
75.480511
 30
0.0
 10
21.004463
 20
75.480511
 30
0.0
 10
22.115569
 20
76.123090
 30
0.0
  0
SPLINE
  5
14c
100
AcDbEntity
  8
panel
 62
7
100
AcDbSpline
 70
8
 71
3
 72
8
 73
4
 74
0
 40
0
 40
0
 40
0
 40
0
 40
1
 40
1
 40
1
 40
1
 10
22.115569
 20
76.123090
 30
0.0
 10
23.226675
 20
76.765670
 30
0.0
 10
23.911145
 20
77.953205
 30
0.0
 10
23.911145
 20
79.238363
 30
0.0
  0
LINE
  5
14d
100
AcDbEntity
  8
panel
 62
7
100
AcDbLine
 10
23.911145
 20
79.238363
 30
0.0
 11
23.911145
 21
79.238363
 31
0.0
  0
SPLINE
  5
14e
100
AcDbEntity
  8
panel
 62
7
100
AcDbSpline
 70
8
 71
3
 72
8
 73
4
 74
0
 40
0
 40
0
 40
0
 40
0
 40
1
 40
1
 40
1
 40
1
 10
23.911145
 20
99.222841
 30
0.0
 10
23.911145
 20
101.209523
 30
0.0
 10
22.303331
 20
102.820047
 30
0.0
 10
20.319993
 20
102.820047
 30
0.0
  0
SPLINE
  5
14f
100
AcDbEntity
  8
panel
 62
7
100
AcDbSpline
 70
8
 71
3
 72
8
 73
4
 74
0
 40
0
 40
0
 40
0
 40
0
 40
1
 40
1
 40
1
 40
1
 10
20.319993
 20
102.820047
 30
0.0
 10
18.336655
 20
102.820047
 30
0.0
 10
16.728842
 20
101.209523
 30
0.0
 10
16.728842
 20
99.222841
 30
0.0
  0
SPLINE
  5
150
100
AcDbEntity
  8
panel
 62
7
100
AcDbSpline
 70
8
 71
3
 72
8
 73
4
 74
0
 40
0
 40
0
 40
0
 40
0
 40
1
 40
1
 40
1
 40
1
 10
16.728842
 20
99.222841
 30
0.0
 10
16.728842
 20
97.937683
 30
0.0
 10
17.413311
 20
96.750148
 30
0.0
 10
18.524418
 20
96.107569
 30
0.0
  0
SPLINE
  5
151
100
AcDbEntity
  8
panel
 62
7
100
AcDbSpline
 70
8
 71
3
 72
8
 73
4
 74
0
 40
0
 40
0
 40
0
 40
0
 40
1
 40
1
 40
1
 40
1
 10
18.524418
 20
96.107569
 30
0.0
 10
19.635524
 20
95.464990
 30
0.0
 10
21.004463
 20
95.464990
 30
0.0
 10
22.115569
 20
96.107569
 30
0.0
  0
SPLINE
  5
152
100
AcDbEntity
  8
panel
 62
7
100
AcDbSpline
 70
8
 71
3
 72
8
 73
4
 74
0
 40
0
 40
0
 40
0
 40
0
 40
1
 40
1
 40
1
 40
1
 10
22.115569
 20
96.107569
 30
0.0
 10
23.226675
 20
96.750148
 30
0.0
 10
23.911145
 20
97.937683
 30
0.0
 10
23.911145
 20
99.222841
 30
0.0
  0
LINE
  5
153
100
AcDbEntity
  8
panel
 62
7
100
AcDbLine
 10
23.911145
 20
99.222841
 30
0.0
 11
23.911145
 21
99.222841
 31
0.0
  0
SPLINE
  5
154
100
AcDbEntity
  8
panel
 62
7
100
AcDbSpline
 70
8
 71
3
 72
8
 73
4
 74
0
 40
0
 40
0
 40
0
 40
0
 40
1
 40
1
 40
1
 40
1
 10
34.604797
 20
127.001268
 30
0.0
 10
34.052396
 20
127.001268
 30
0.0
 10
33.541957
 20
126.706068
 30
0.0
 10
33.265756
 20
126.226869
 30
0.0
  0
SPLINE
  5
155
100
AcDbEntity
  8
panel
 62
7
100
AcDbSpline
 70
8
 71
3
 72
8
 73
4
 74
0
 40
0
 40
0
 40
0
 40
0
 40
1
 40
1
 40
1
 40
1
 10
33.265756
 20
126.226869
 30
0.0
 10
32.989556
 20
125.747669
 30
0.0
 10
32.989556
 20
125.157271
 30
0.0
 10
33.265756
 20
124.678071
 30
0.0
  0
SPLINE
  5
156
100
AcDbEntity
  8
panel
 62
7
100
AcDbSpline
 70
8
 71
3
 72
8
 73
4
 74
0
 40
0
 40
0
 40
0
 40
0
 40
1
 40
1
 40
1
 40
1
 10
33.265756
 20
124.678071
 30
0.0
 10
33.541957
 20
124.198871
 30
0.0
 10
34.052396
 20
123.903672
 30
0.0
 10
34.604797
 20
123.903672
 30
0.0
  0
LINE
  5
157
100
AcDbEntity
  8
panel
 62
7
100
AcDbLine
 10
34.604881
 20
123.903804
 30
0.0
 11
37.597354
 21
123.903804
 31
0.0
  0
SPLINE
  5
158
100
AcDbEntity
  8
panel
 62
7
100
AcDbSpline
 70
8
 71
3
 72
8
 73
4
 74
0
 40
0
 40
0
 40
0
 40
0
 40
1
 40
1
 40
1
 40
1
 10
37.597422
 20
123.903672
 30
0.0
 10
38.149823
 20
123.903672
 30
0.0
 10
38.660262
 20
124.198871
 30
0.0
 10
38.936463
 20
124.678071
 30
0.0
  0
SPLINE
  5
159
100
AcDbEntity
  8
panel
 62
7
100
AcDbSpline
 70
8
 71
3
 72
8
 73
4
 74
0
 40
0
 40
0
 40
0
 40
0
 40
1
 40
1
 40
1
 40
1
 10
38.936463
 20
124.678071
 30
0.0
 10
39.212663
 20
125.157271
 30
0.0
 10
39.212663
 20
125.747669
 30
0.0
 10
38.936463
 20
126.226869
 30
0.0
  0
SPLINE
  5
15a
100
AcDbEntity
  8
panel
 62
7
100
AcDbSpline
 70
8
 71
3
 72
8
 73
4
 74
0
 40
0
 40
0
 40
0
 40
0
 40
1
 40
1
 40
1
 40
1
 10
38.936463
 20
126.226869
 30
0.0
 10
38.660262
 20
126.706068
 30
0.0
 10
38.149823
 20
127.001268
 30
0.0
 10
37.597422
 20
127.001268
 30
0.0
  0
LINE
  5
15b
100
AcDbEntity
  8
panel
 62
7
100
AcDbLine
 10
34.604881
 20
127.001257
 30
0.0
 11
37.597354
 21
127.001257
 31
0.0
  0
LINE
  5
15c
100
AcDbEntity
  8
Logo
 62
7
100
AcDbLine
 10
17.669301
 20
7.795070
 30
0.0
 11
17.890274
 21
7.684586
 31
0.0
  0
LINE
  5
15d
100
AcDbEntity
  8
Logo
 62
7
100
AcDbLine
 10
17.890274
 20
7.684586
 30
0.0
 11
17.963931
 21
7.574101
 31
0.0
  0
LINE
  5
15e
100
AcDbEntity
  8
Logo
 62
7
100
AcDbLine
 10
17.963931
 20
7.574101
 30
0.0
 11
18.037589
 21
7.353133
 31
0.0
  0
LINE
  5
15f
100
AcDbEntity
  8
Logo
 62
7
100
AcDbLine
 10
18.037589
 20
7.353133
 30
0.0
 11
18.037589
 21
7.021680
 31
0.0
  0
LINE
  5
160
100
AcDbEntity
  8
Logo
 62
7
100
AcDbLine
 10
18.037589
 20
7.021680
 30
0.0
 11
17.963931
 21
6.800711
 31
0.0
  0
LINE
  5
161
100
AcDbEntity
  8
Logo
 62
7
100
AcDbLine
 10
17.963931
 20
6.800711
 30
0.0
 11
17.890274
 21
6.690228
 31
0.0
  0
LINE
  5
162
100
AcDbEntity
  8
Logo
 62
7
100
AcDbLine
 10
17.890274
 20
6.690228
 30
0.0
 11
17.742958
 21
6.579743
 31
0.0
  0
LINE
  5
163
100
AcDbEntity
  8
Logo
 62
7
100
AcDbLine
 10
17.742958
 20
6.579743
 30
0.0
 11
17.153713
 21
6.579743
 31
0.0
  0
LINE
  5
164
100
AcDbEntity
  8
Logo
 62
7
100
AcDbLine
 10
17.153713
 20
6.579743
 30
0.0
 11
17.153713
 21
8.899913
 31
0.0
  0
LINE
  5
165
100
AcDbEntity
  8
Logo
 62
7
100
AcDbLine
 10
17.153713
 20
8.899913
 30
0.0
 11
17.669301
 21
8.899913
 31
0.0
  0
LINE
  5
166
100
AcDbEntity
  8
Logo
 62
7
100
AcDbLine
 10
17.669301
 20
8.899913
 30
0.0
 11
17.816616
 21
8.789428
 31
0.0
  0
LINE
  5
167
100
AcDbEntity
  8
Logo
 62
7
100
AcDbLine
 10
17.816616
 20
8.789428
 30
0.0
 11
17.890274
 21
8.678945
 31
0.0
  0
LINE
  5
168
100
AcDbEntity
  8
Logo
 62
7
100
AcDbLine
 10
17.890274
 20
8.678945
 30
0.0
 11
17.963931
 21
8.457976
 31
0.0
  0
LINE
  5
169
100
AcDbEntity
  8
Logo
 62
7
100
AcDbLine
 10
17.963931
 20
8.457976
 30
0.0
 11
17.963931
 21
8.237008
 31
0.0
  0
LINE
  5
16a
100
AcDbEntity
  8
Logo
 62
7
100
AcDbLine
 10
17.963931
 20
8.237008
 30
0.0
 11
17.890274
 21
8.016038
 31
0.0
  0
LINE
  5
16b
100
AcDbEntity
  8
Logo
 62
7
100
AcDbLine
 10
17.890274
 20
8.016038
 30
0.0
 11
17.816616
 21
7.905555
 31
0.0
  0
LINE
  5
16c
100
AcDbEntity
  8
Logo
 62
7
100
AcDbLine
 10
17.816616
 20
7.905555
 30
0.0
 11
17.669301
 21
7.795070
 31
0.0
  0
LINE
  5
16d
100
AcDbEntity
  8
Logo
 62
7
100
AcDbLine
 10
17.669301
 20
7.795070
 30
0.0
 11
17.153713
 21
7.795070
 31
0.0
  0
LINE
  5
16e
100
AcDbEntity
  8
Logo
 62
7
100
AcDbLine
 10
19.437054
 20
6.579743
 30
0.0
 11
18.700493
 21
6.579743
 31
0.0
  0
LINE
  5
16f
100
AcDbEntity
  8
Logo
 62
7
100
AcDbLine
 10
18.700493
 20
6.579743
 30
0.0
 11
18.700493
 21
8.899913
 31
0.0
  0
LINE
  5
170
100
AcDbEntity
  8
Logo
 62
7
100
AcDbLine
 10
19.952657
 20
7.795070
 30
0.0
 11
20.468245
 21
7.795070
 31
0.0
  0
LINE
  5
171
100
AcDbEntity
  8
Logo
 62
7
100
AcDbLine
 10
20.689218
 20
6.579743
 30
0.0
 11
19.952657
 21
6.579743
 31
0.0
  0
LINE
  5
172
100
AcDbEntity
  8
Logo
 62
7
100
AcDbLine
 10
19.952657
 20
6.579743
 30
0.0
 11
19.952657
 21
8.899913
 31
0.0
  0
LINE
  5
173
100
AcDbEntity
  8
Logo
 62
7
100
AcDbLine
 10
19.952657
 20
8.899913
 30
0.0
 11
20.689218
 21
8.899913
 31
0.0
  0
LINE
  5
174
100
AcDbEntity
  8
Logo
 62
7
100
AcDbLine
 10
21.352122
 20
7.795070
 30
0.0
 11
21.867710
 21
7.795070
 31
0.0
  0
LINE
  5
175
100
AcDbEntity
  8
Logo
 62
7
100
AcDbLine
 10
22.088683
 20
6.579743
 30
0.0
 11
21.352122
 21
6.579743
 31
0.0
  0
LINE
  5
176
100
AcDbEntity
  8
Logo
 62
7
100
AcDbLine
 10
21.352122
 20
6.579743
 30
0.0
 11
21.352122
 21
8.899913
 31
0.0
  0
LINE
  5
177
100
AcDbEntity
  8
Logo
 62
7
100
AcDbLine
 10
21.352122
 20
8.899913
 30
0.0
 11
22.088683
 21
8.899913
 31
0.0
  0
LINE
  5
178
100
AcDbEntity
  8
Logo
 62
7
100
AcDbLine
 10
22.751587
 20
6.579743
 30
0.0
 11
22.751587
 21
8.899913
 31
0.0
  0
LINE
  5
179
100
AcDbEntity
  8
Logo
 62
7
100
AcDbLine
 10
22.751587
 20
8.899913
 30
0.0
 11
23.340833
 21
8.899913
 31
0.0
  0
LINE
  5
17a
100
AcDbEntity
  8
Logo
 62
7
100
AcDbLine
 10
23.340833
 20
8.899913
 30
0.0
 11
23.488148
 21
8.789428
 31
0.0
  0
LINE
  5
17b
100
AcDbEntity
  8
Logo
 62
7
100
AcDbLine
 10
23.488148
 20
8.789428
 30
0.0
 11
23.561805
 21
8.678945
 31
0.0
  0
LINE
  5
17c
100
AcDbEntity
  8
Logo
 62
7
100
AcDbLine
 10
23.561805
 20
8.678945
 30
0.0
 11
23.635463
 21
8.457976
 31
0.0
  0
LINE
  5
17d
100
AcDbEntity
  8
Logo
 62
7
100
AcDbLine
 10
23.635463
 20
8.457976
 30
0.0
 11
23.635463
 21
8.126523
 31
0.0
  0
LINE
  5
17e
100
AcDbEntity
  8
Logo
 62
7
100
AcDbLine
 10
23.635463
 20
8.126523
 30
0.0
 11
23.561805
 21
7.905555
 31
0.0
  0
LINE
  5
17f
100
AcDbEntity
  8
Logo
 62
7
100
AcDbLine
 10
23.561805
 20
7.905555
 30
0.0
 11
23.488148
 21
7.795070
 31
0.0
  0
LINE
  5
180
100
AcDbEntity
  8
Logo
 62
7
100
AcDbLine
 10
23.488148
 20
7.795070
 30
0.0
 11
23.340833
 21
7.684586
 31
0.0
  0
LINE
  5
181
100
AcDbEntity
  8
Logo
 62
7
100
AcDbLine
 10
23.340833
 20
7.684586
 30
0.0
 11
22.751587
 21
7.684586
 31
0.0
  0
LINE
  5
182
100
AcDbEntity
  8
Logo
 62
7
100
AcDbLine
 10
17.448343
 20
4.856188
 30
0.0
 11
17.669301
 21
4.745704
 31
0.0
  0
LINE
  5
183
100
AcDbEntity
  8
Logo
 62
7
100
AcDbLine
 10
17.669301
 20
4.745704
 30
0.0
 11
17.742958
 21
4.635219
 31
0.0
  0
LINE
  5
184
100
AcDbEntity
  8
Logo
 62
7
100
AcDbLine
 10
17.742958
 20
4.635219
 30
0.0
 11
17.816616
 21
4.414251
 31
0.0
  0
LINE
  5
185
100
AcDbEntity
  8
Logo
 62
7
100
AcDbLine
 10
17.816616
 20
4.414251
 30
0.0
 11
17.816616
 21
4.082798
 31
0.0
  0
LINE
  5
186
100
AcDbEntity
  8
Logo
 62
7
100
AcDbLine
 10
17.816616
 20
4.082798
 30
0.0
 11
17.742958
 21
3.861829
 31
0.0
  0
LINE
  5
187
100
AcDbEntity
  8
Logo
 62
7
100
AcDbLine
 10
17.742958
 20
3.861829
 30
0.0
 11
17.669301
 21
3.751346
 31
0.0
  0
LINE
  5
188
100
AcDbEntity
  8
Logo
 62
7
100
AcDbLine
 10
17.669301
 20
3.751346
 30
0.0
 11
17.522001
 21
3.640861
 31
0.0
  0
LINE
  5
189
100
AcDbEntity
  8
Logo
 62
7
100
AcDbLine
 10
17.522001
 20
3.640861
 30
0.0
 11
16.932740
 21
3.640861
 31
0.0
  0
LINE
  5
18a
100
AcDbEntity
  8
Logo
 62
7
100
AcDbLine
 10
16.932740
 20
3.640861
 30
0.0
 11
16.932740
 21
5.961031
 31
0.0
  0
LINE
  5
18b
100
AcDbEntity
  8
Logo
 62
7
100
AcDbLine
 10
16.932740
 20
5.961031
 30
0.0
 11
17.448343
 21
5.961031
 31
0.0
  0
LINE
  5
18c
100
AcDbEntity
  8
Logo
 62
7
100
AcDbLine
 10
17.448343
 20
5.961031
 30
0.0
 11
17.595658
 21
5.850546
 31
0.0
  0
LINE
  5
18d
100
AcDbEntity
  8
Logo
 62
7
100
AcDbLine
 10
17.595658
 20
5.850546
 30
0.0
 11
17.669301
 21
5.740063
 31
0.0
  0
LINE
  5
18e
100
AcDbEntity
  8
Logo
 62
7
100
AcDbLine
 10
17.669301
 20
5.740063
 30
0.0
 11
17.742958
 21
5.519094
 31
0.0
  0
LINE
  5
18f
100
AcDbEntity
  8
Logo
 62
7
100
AcDbLine
 10
17.742958
 20
5.519094
 30
0.0
 11
17.742958
 21
5.298126
 31
0.0
  0
LINE
  5
190
100
AcDbEntity
  8
Logo
 62
7
100
AcDbLine
 10
17.742958
 20
5.298126
 30
0.0
 11
17.669301
 21
5.077156
 31
0.0
  0
LINE
  5
191
100
AcDbEntity
  8
Logo
 62
7
100
AcDbLine
 10
17.669301
 20
5.077156
 30
0.0
 11
17.595658
 21
4.966673
 31
0.0
  0
LINE
  5
192
100
AcDbEntity
  8
Logo
 62
7
100
AcDbLine
 10
17.595658
 20
4.966673
 30
0.0
 11
17.448343
 21
4.856188
 31
0.0
  0
LINE
  5
193
100
AcDbEntity
  8
Logo
 62
7
100
AcDbLine
 10
17.448343
 20
4.856188
 30
0.0
 11
16.932740
 21
4.856188
 31
0.0
  0
LINE
  5
194
100
AcDbEntity
  8
Logo
 62
7
100
AcDbLine
 10
19.216081
 20
3.640861
 30
0.0
 11
18.479520
 21
3.640861
 31
0.0
  0
LINE
  5
195
100
AcDbEntity
  8
Logo
 62
7
100
AcDbLine
 10
18.479520
 20
3.640861
 30
0.0
 11
18.479520
 21
5.961031
 31
0.0
  0
LINE
  5
196
100
AcDbEntity
  8
Logo
 62
7
100
AcDbLine
 10
20.026300
 20
5.961031
 30
0.0
 11
20.320930
 21
5.961031
 31
0.0
  0
LINE
  5
197
100
AcDbEntity
  8
Logo
 62
7
100
AcDbLine
 10
20.320930
 20
5.961031
 30
0.0
 11
20.468245
 21
5.850546
 31
0.0
  0
LINE
  5
198
100
AcDbEntity
  8
Logo
 62
7
100
AcDbLine
 10
20.468245
 20
5.850546
 30
0.0
 11
20.615561
 21
5.629578
 31
0.0
  0
LINE
  5
199
100
AcDbEntity
  8
Logo
 62
7
100
AcDbLine
 10
20.615561
 20
5.629578
 30
0.0
 11
20.689218
 21
5.187641
 31
0.0
  0
LINE
  5
19a
100
AcDbEntity
  8
Logo
 62
7
100
AcDbLine
 10
20.689218
 20
5.187641
 30
0.0
 11
20.689218
 21
4.414251
 31
0.0
  0
LINE
  5
19b
100
AcDbEntity
  8
Logo
 62
7
100
AcDbLine
 10
20.689218
 20
4.414251
 30
0.0
 11
20.615561
 21
3.972314
 31
0.0
  0
LINE
  5
19c
100
AcDbEntity
  8
Logo
 62
7
100
AcDbLine
 10
20.615561
 20
3.972314
 30
0.0
 11
20.468245
 21
3.751346
 31
0.0
  0
LINE
  5
19d
100
AcDbEntity
  8
Logo
 62
7
100
AcDbLine
 10
20.468245
 20
3.751346
 30
0.0
 11
20.320930
 21
3.640861
 31
0.0
  0
LINE
  5
19e
100
AcDbEntity
  8
Logo
 62
7
100
AcDbLine
 10
20.320930
 20
3.640861
 30
0.0
 11
20.026300
 21
3.640861
 31
0.0
  0
LINE
  5
19f
100
AcDbEntity
  8
Logo
 62
7
100
AcDbLine
 10
20.026300
 20
3.640861
 30
0.0
 11
19.879000
 21
3.751346
 31
0.0
  0
LINE
  5
1a0
100
AcDbEntity
  8
Logo
 62
7
100
AcDbLine
 10
19.879000
 20
3.751346
 30
0.0
 11
19.731684
 21
3.972314
 31
0.0
  0
LINE
  5
1a1
100
AcDbEntity
  8
Logo
 62
7
100
AcDbLine
 10
19.731684
 20
3.972314
 30
0.0
 11
19.658027
 21
4.414251
 31
0.0
  0
LINE
  5
1a2
100
AcDbEntity
  8
Logo
 62
7
100
AcDbLine
 10
19.658027
 20
4.414251
 30
0.0
 11
19.658027
 21
5.187641
 31
0.0
  0
LINE
  5
1a3
100
AcDbEntity
  8
Logo
 62
7
100
AcDbLine
 10
19.658027
 20
5.187641
 30
0.0
 11
19.731684
 21
5.629578
 31
0.0
  0
LINE
  5
1a4
100
AcDbEntity
  8
Logo
 62
7
100
AcDbLine
 10
19.731684
 20
5.629578
 30
0.0
 11
19.879000
 21
5.850546
 31
0.0
  0
LINE
  5
1a5
100
AcDbEntity
  8
Logo
 62
7
100
AcDbLine
 10
19.879000
 20
5.850546
 30
0.0
 11
20.026300
 21
5.961031
 31
0.0
  0
LINE
  5
1a6
100
AcDbEntity
  8
Logo
 62
7
100
AcDbLine
 10
21.646737
 20
5.961031
 30
0.0
 11
21.941368
 21
5.961031
 31
0.0
  0
LINE
  5
1a7
100
AcDbEntity
  8
Logo
 62
7
100
AcDbLine
 10
21.941368
 20
5.961031
 30
0.0
 11
22.088683
 21
5.850546
 31
0.0
  0
LINE
  5
1a8
100
AcDbEntity
  8
Logo
 62
7
100
AcDbLine
 10
22.088683
 20
5.850546
 30
0.0
 11
22.235998
 21
5.629578
 31
0.0
  0
LINE
  5
1a9
100
AcDbEntity
  8
Logo
 62
7
100
AcDbLine
 10
22.235998
 20
5.629578
 30
0.0
 11
22.309641
 21
5.187641
 31
0.0
  0
LINE
  5
1aa
100
AcDbEntity
  8
Logo
 62
7
100
AcDbLine
 10
22.309641
 20
5.187641
 30
0.0
 11
22.309641
 21
4.414251
 31
0.0
  0
LINE
  5
1ab
100
AcDbEntity
  8
Logo
 62
7
100
AcDbLine
 10
22.309641
 20
4.414251
 30
0.0
 11
22.235998
 21
3.972314
 31
0.0
  0
LINE
  5
1ac
100
AcDbEntity
  8
Logo
 62
7
100
AcDbLine
 10
22.235998
 20
3.972314
 30
0.0
 11
22.088683
 21
3.751346
 31
0.0
  0
LINE
  5
1ad
100
AcDbEntity
  8
Logo
 62
7
100
AcDbLine
 10
22.088683
 20
3.751346
 30
0.0
 11
21.941368
 21
3.640861
 31
0.0
  0
LINE
  5
1ae
100
AcDbEntity
  8
Logo
 62
7
100
AcDbLine
 10
21.941368
 20
3.640861
 30
0.0
 11
21.646737
 21
3.640861
 31
0.0
  0
LINE
  5
1af
100
AcDbEntity
  8
Logo
 62
7
100
AcDbLine
 10
21.646737
 20
3.640861
 30
0.0
 11
21.499437
 21
3.751346
 31
0.0
  0
LINE
  5
1b0
100
AcDbEntity
  8
Logo
 62
7
100
AcDbLine
 10
21.499437
 20
3.751346
 30
0.0
 11
21.352122
 21
3.972314
 31
0.0
  0
LINE
  5
1b1
100
AcDbEntity
  8
Logo
 62
7
100
AcDbLine
 10
21.352122
 20
3.972314
 30
0.0
 11
21.278464
 21
4.414251
 31
0.0
  0
LINE
  5
1b2
100
AcDbEntity
  8
Logo
 62
7
100
AcDbLine
 10
21.278464
 20
4.414251
 30
0.0
 11
21.278464
 21
5.187641
 31
0.0
  0
LINE
  5
1b3
100
AcDbEntity
  8
Logo
 62
7
100
AcDbLine
 10
21.278464
 20
5.187641
 30
0.0
 11
21.352122
 21
5.629578
 31
0.0
  0
LINE
  5
1b4
100
AcDbEntity
  8
Logo
 62
7
100
AcDbLine
 10
21.352122
 20
5.629578
 30
0.0
 11
21.499437
 21
5.850546
 31
0.0
  0
LINE
  5
1b5
100
AcDbEntity
  8
Logo
 62
7
100
AcDbLine
 10
21.499437
 20
5.850546
 30
0.0
 11
21.646737
 21
5.961031
 31
0.0
  0
LINE
  5
1b6
100
AcDbEntity
  8
Logo
 62
7
100
AcDbLine
 10
22.972560
 20
3.640861
 30
0.0
 11
22.972560
 21
5.961031
 31
0.0
  0
LINE
  5
1b7
100
AcDbEntity
  8
Logo
 62
7
100
AcDbLine
 10
22.972560
 20
5.961031
 30
0.0
 11
23.561805
 21
5.961031
 31
0.0
  0
LINE
  5
1b8
100
AcDbEntity
  8
Logo
 62
7
100
AcDbLine
 10
23.561805
 20
5.961031
 30
0.0
 11
23.709121
 21
5.850546
 31
0.0
  0
LINE
  5
1b9
100
AcDbEntity
  8
Logo
 62
7
100
AcDbLine
 10
23.709121
 20
5.850546
 30
0.0
 11
23.782778
 21
5.740063
 31
0.0
  0
LINE
  5
1ba
100
AcDbEntity
  8
Logo
 62
7
100
AcDbLine
 10
23.782778
 20
5.740063
 30
0.0
 11
23.856421
 21
5.519094
 31
0.0
  0
LINE
  5
1bb
100
AcDbEntity
  8
Logo
 62
7
100
AcDbLine
 10
23.856421
 20
5.519094
 30
0.0
 11
23.856421
 21
5.187641
 31
0.0
  0
LINE
  5
1bc
100
AcDbEntity
  8
Logo
 62
7
100
AcDbLine
 10
23.856421
 20
5.187641
 30
0.0
 11
23.782778
 21
4.966673
 31
0.0
  0
LINE
  5
1bd
100
AcDbEntity
  8
Logo
 62
7
100
AcDbLine
 10
23.782778
 20
4.966673
 30
0.0
 11
23.709121
 21
4.856188
 31
0.0
  0
LINE
  5
1be
100
AcDbEntity
  8
Logo
 62
7
100
AcDbLine
 10
23.709121
 20
4.856188
 30
0.0
 11
23.561805
 21
4.745704
 31
0.0
  0
LINE
  5
1bf
100
AcDbEntity
  8
Logo
 62
7
100
AcDbLine
 10
23.561805
 20
4.745704
 30
0.0
 11
22.972560
 21
4.745704
 31
0.0
  0
LINE
  5
1c0
100
AcDbEntity
  8
Logo
 62
7
100
AcDbLine
 10
15.857712
 20
9.125373
 30
0.0
 11
16.374398
 21
9.457889
 31
0.0
  0
LINE
  5
1c1
100
AcDbEntity
  8
Logo
 62
7
100
AcDbLine
 10
15.444103
 20
4.146941
 30
0.0
 11
15.407537
 21
4.664528
 31
0.0
  0
LINE
  5
1c2
100
AcDbEntity
  8
Logo
 62
7
100
AcDbLine
 10
15.403577
 20
3.027532
 30
0.0
 11
15.700064
 21
3.665148
 31
0.0
  0
LINE
  5
1c3
100
AcDbEntity
  8
Logo
 62
7
100
AcDbLine
 10
25.111926
 20
3.994377
 30
0.0
 11
24.779400
 21
3.477697
 31
0.0
  0
LINE
  5
1c4
100
AcDbEntity
  8
Logo
 62
7
100
AcDbLine
 10
15.407537
 20
7.938543
 30
0.0
 11
15.525201
 21
8.608693
 31
0.0
  0
LINE
  5
1c5
100
AcDbEntity
  8
Logo
 62
7
100
AcDbLine
 10
24.779400
 20
9.125373
 30
0.0
 11
25.111926
 21
8.608693
 31
0.0
  0
LINE
  5
1c6
100
AcDbEntity
  8
Logo
 62
7
100
AcDbLine
 10
24.262729
 20
9.457892
 30
0.0
 11
24.779400
 21
9.125373
 31
0.0
  0
LINE
  5
1c7
100
AcDbEntity
  8
Logo
 62
7
100
AcDbLine
 10
25.229590
 20
7.938546
 30
0.0
 11
25.229575
 21
4.664528
 31
0.0
  0
LINE
  5
1c8
100
AcDbEntity
  8
Logo
 62
7
100
AcDbLine
 10
15.525201
 20
8.608693
 30
0.0
 11
15.857712
 21
9.125373
 31
0.0
  0
LINE
  5
1c9
100
AcDbEntity
  8
Logo
 62
7
100
AcDbLine
 10
16.533051
 20
3.062368
 30
0.0
 11
16.065011
 21
3.306316
 31
0.0
  0
LINE
  5
1ca
100
AcDbEntity
  8
Logo
 62
7
100
AcDbLine
 10
16.065011
 20
3.306316
 30
0.0
 11
15.403577
 21
3.027532
 31
0.0
  0
LINE
  5
1cb
100
AcDbEntity
  8
Logo
 62
7
100
AcDbLine
 10
17.044541
 20
9.575549
 30
0.0
 11
23.592571
 21
9.575554
 31
0.0
  0
LINE
  5
1cc
100
AcDbEntity
  8
Logo
 62
7
100
AcDbLine
 10
23.592571
 20
9.575554
 30
0.0
 11
24.262729
 21
9.457892
 31
0.0
  0
LINE
  5
1cd
100
AcDbEntity
  8
Logo
 62
7
100
AcDbLine
 10
24.262729
 20
3.145180
 30
0.0
 11
23.592571
 21
3.027519
 31
0.0
  0
LINE
  5
1ce
100
AcDbEntity
  8
Logo
 62
7
100
AcDbLine
 10
25.229575
 20
4.664528
 30
0.0
 11
25.111926
 21
3.994377
 31
0.0
  0
LINE
  5
1cf
100
AcDbEntity
  8
Logo
 62
7
100
AcDbLine
 10
23.592571
 20
3.027519
 30
0.0
 11
17.044541
 21
3.027519
 31
0.0
  0
LINE
  5
1d0
100
AcDbEntity
  8
Logo
 62
7
100
AcDbLine
 10
17.044541
 20
3.027519
 30
0.0
 11
16.533051
 21
3.062368
 31
0.0
  0
LINE
  5
1d1
100
AcDbEntity
  8
Logo
 62
7
100
AcDbLine
 10
24.779400
 20
3.477697
 30
0.0
 11
24.262729
 21
3.145180
 31
0.0
  0
LINE
  5
1d2
100
AcDbEntity
  8
Logo
 62
7
100
AcDbLine
 10
15.700064
 20
3.665148
 30
0.0
 11
15.444103
 21
4.146941
 31
0.0
  0
LINE
  5
1d3
100
AcDbEntity
  8
Logo
 62
7
100
AcDbLine
 10
16.374398
 20
9.457889
 30
0.0
 11
17.044541
 21
9.575549
 31
0.0
  0
LINE
  5
1d4
100
AcDbEntity
  8
Logo
 62
7
100
AcDbLine
 10
25.111926
 20
8.608693
 30
0.0
 11
25.229590
 21
7.938546
 31
0.0
  0
LINE
  5
1d5
100
AcDbEntity
  8
Logo
 62
7
100
AcDbLine
 10
15.407537
 20
4.664528
 30
0.0
 11
15.407537
 21
7.938543
 31
0.0
  0
LINE
  5
1d6
100
AcDbEntity
  8
text
 62
7
100
AcDbLine
 10
11.698091
 20
125.452416
 30
0.0
 11
11.698091
 21
123.584100
 31
0.0
  0
LINE
  5
1d7
100
AcDbEntity
  8
text
 62
7
100
AcDbLine
 10
11.698091
 20
125.452416
 30
0.0
 11
12.499604
 21
125.452416
 31
0.0
  0
LINE
  5
1d8
100
AcDbEntity
  8
text
 62
7
100
AcDbLine
 10
12.499604
 20
125.452416
 30
0.0
 11
12.764894
 21
125.362105
 31
0.0
  0
LINE
  5
1d9
100
AcDbEntity
  8
text
 62
7
100
AcDbLine
 10
12.764894
 20
125.362105
 30
0.0
 11
12.855205
 21
125.271794
 31
0.0
  0
LINE
  5
1da
100
AcDbEntity
  8
text
 62
7
100
AcDbLine
 10
12.855205
 20
125.271794
 30
0.0
 11
12.945516
 21
125.096815
 31
0.0
  0
LINE
  5
1db
100
AcDbEntity
  8
text
 62
7
100
AcDbLine
 10
12.945516
 20
125.096815
 30
0.0
 11
12.945516
 21
124.916193
 31
0.0
  0
LINE
  5
1dc
100
AcDbEntity
  8
text
 62
7
100
AcDbLine
 10
12.945516
 20
124.916193
 30
0.0
 11
12.855205
 21
124.741214
 31
0.0
  0
LINE
  5
1dd
100
AcDbEntity
  8
text
 62
7
100
AcDbLine
 10
12.855205
 20
124.741214
 30
0.0
 11
12.764894
 21
124.650903
 31
0.0
  0
LINE
  5
1de
100
AcDbEntity
  8
text
 62
7
100
AcDbLine
 10
12.764894
 20
124.650903
 30
0.0
 11
12.499604
 21
124.560592
 31
0.0
  0
LINE
  5
1df
100
AcDbEntity
  8
text
 62
7
100
AcDbLine
 10
12.499604
 20
124.560592
 30
0.0
 11
11.698091
 21
124.560592
 31
0.0
  0
LINE
  5
1e0
100
AcDbEntity
  8
text
 62
7
100
AcDbLine
 10
12.321803
 20
124.560592
 30
0.0
 11
12.945516
 21
123.584100
 31
0.0
  0
LINE
  5
1e1
100
AcDbEntity
  8
text
 62
7
100
AcDbLine
 10
13.922012
 20
124.828703
 30
0.0
 11
13.747033
 21
124.741214
 31
0.0
  0
LINE
  5
1e2
100
AcDbEntity
  8
text
 62
7
100
AcDbLine
 10
13.747033
 20
124.741214
 30
0.0
 11
13.566411
 21
124.560592
 31
0.0
  0
LINE
  5
1e3
100
AcDbEntity
  8
text
 62
7
100
AcDbLine
 10
13.566411
 20
124.560592
 30
0.0
 11
13.478921
 21
124.295302
 31
0.0
  0
LINE
  5
1e4
100
AcDbEntity
  8
text
 62
7
100
AcDbLine
 10
13.478921
 20
124.295302
 30
0.0
 11
13.478921
 21
124.117501
 31
0.0
  0
LINE
  5
1e5
100
AcDbEntity
  8
text
 62
7
100
AcDbLine
 10
13.478921
 20
124.117501
 30
0.0
 11
13.566411
 21
123.850801
 31
0.0
  0
LINE
  5
1e6
100
AcDbEntity
  8
text
 62
7
100
AcDbLine
 10
13.566411
 20
123.850801
 30
0.0
 11
13.747033
 21
123.673000
 31
0.0
  0
LINE
  5
1e7
100
AcDbEntity
  8
text
 62
7
100
AcDbLine
 10
13.747033
 20
123.673000
 30
0.0
 11
13.922012
 21
123.584100
 31
0.0
  0
LINE
  5
1e8
100
AcDbEntity
  8
text
 62
7
100
AcDbLine
 10
13.922012
 20
123.584100
 30
0.0
 11
14.190123
 21
123.584100
 31
0.0
  0
LINE
  5
1e9
100
AcDbEntity
  8
text
 62
7
100
AcDbLine
 10
14.190123
 20
123.584100
 30
0.0
 11
14.367924
 21
123.673000
 31
0.0
  0
LINE
  5
1ea
100
AcDbEntity
  8
text
 62
7
100
AcDbLine
 10
14.367924
 20
123.673000
 30
0.0
 11
14.545724
 21
123.850801
 31
0.0
  0
LINE
  5
1eb
100
AcDbEntity
  8
text
 62
7
100
AcDbLine
 10
14.545724
 20
123.850801
 30
0.0
 11
14.633214
 21
124.117501
 31
0.0
  0
LINE
  5
1ec
100
AcDbEntity
  8
text
 62
7
100
AcDbLine
 10
14.633214
 20
124.117501
 30
0.0
 11
14.633214
 21
124.295302
 31
0.0
  0
LINE
  5
1ed
100
AcDbEntity
  8
text
 62
7
100
AcDbLine
 10
14.633214
 20
124.295302
 30
0.0
 11
14.545724
 21
124.560592
 31
0.0
  0
LINE
  5
1ee
100
AcDbEntity
  8
text
 62
7
100
AcDbLine
 10
14.545724
 20
124.560592
 30
0.0
 11
14.367924
 21
124.741214
 31
0.0
  0
LINE
  5
1ef
100
AcDbEntity
  8
text
 62
7
100
AcDbLine
 10
14.367924
 20
124.741214
 30
0.0
 11
14.190123
 21
124.828703
 31
0.0
  0
LINE
  5
1f0
100
AcDbEntity
  8
text
 62
7
100
AcDbLine
 10
14.190123
 20
124.828703
 30
0.0
 11
13.922012
 21
124.828703
 31
0.0
  0
LINE
  5
1f1
100
AcDbEntity
  8
text
 62
7
100
AcDbLine
 10
15.254101
 20
125.452416
 30
0.0
 11
15.254101
 21
123.584100
 31
0.0
  0
LINE
  5
1f2
100
AcDbEntity
  8
text
 62
7
100
AcDbLine
 10
15.254101
 20
124.560592
 30
0.0
 11
15.434723
 21
124.741214
 31
0.0
  0
LINE
  5
1f3
100
AcDbEntity
  8
text
 62
7
100
AcDbLine
 10
15.434723
 20
124.741214
 30
0.0
 11
15.609702
 21
124.828703
 31
0.0
  0
LINE
  5
1f4
100
AcDbEntity
  8
text
 62
7
100
AcDbLine
 10
15.609702
 20
124.828703
 30
0.0
 11
15.877813
 21
124.828703
 31
0.0
  0
LINE
  5
1f5
100
AcDbEntity
  8
text
 62
7
100
AcDbLine
 10
15.877813
 20
124.828703
 30
0.0
 11
16.055614
 21
124.741214
 31
0.0
  0
LINE
  5
1f6
100
AcDbEntity
  8
text
 62
7
100
AcDbLine
 10
16.055614
 20
124.741214
 30
0.0
 11
16.233414
 21
124.560592
 31
0.0
  0
LINE
  5
1f7
100
AcDbEntity
  8
text
 62
7
100
AcDbLine
 10
16.233414
 20
124.560592
 30
0.0
 11
16.320904
 21
124.295302
 31
0.0
  0
LINE
  5
1f8
100
AcDbEntity
  8
text
 62
7
100
AcDbLine
 10
16.320904
 20
124.295302
 30
0.0
 11
16.320904
 21
124.117501
 31
0.0
  0
LINE
  5
1f9
100
AcDbEntity
  8
text
 62
7
100
AcDbLine
 10
16.320904
 20
124.117501
 30
0.0
 11
16.233414
 21
123.850801
 31
0.0
  0
LINE
  5
1fa
100
AcDbEntity
  8
text
 62
7
100
AcDbLine
 10
16.233414
 20
123.850801
 30
0.0
 11
16.055614
 21
123.673000
 31
0.0
  0
LINE
  5
1fb
100
AcDbEntity
  8
text
 62
7
100
AcDbLine
 10
16.055614
 20
123.673000
 30
0.0
 11
15.877813
 21
123.584100
 31
0.0
  0
LINE
  5
1fc
100
AcDbEntity
  8
text
 62
7
100
AcDbLine
 10
15.877813
 20
123.584100
 30
0.0
 11
15.609702
 21
123.584100
 31
0.0
  0
LINE
  5
1fd
100
AcDbEntity
  8
text
 62
7
100
AcDbLine
 10
15.609702
 20
123.584100
 30
0.0
 11
15.434723
 21
123.673000
 31
0.0
  0
LINE
  5
1fe
100
AcDbEntity
  8
text
 62
7
100
AcDbLine
 10
15.434723
 20
123.673000
 30
0.0
 11
15.254101
 21
123.850801
 31
0.0
  0
LINE
  5
1ff
100
AcDbEntity
  8
text
 62
7
100
AcDbLine
 10
17.297392
 20
124.828703
 30
0.0
 11
17.122413
 21
124.741214
 31
0.0
  0
LINE
  5
200
100
AcDbEntity
  8
text
 62
7
100
AcDbLine
 10
17.122413
 20
124.741214
 30
0.0
 11
16.941791
 21
124.560592
 31
0.0
  0
LINE
  5
201
100
AcDbEntity
  8
text
 62
7
100
AcDbLine
 10
16.941791
 20
124.560592
 30
0.0
 11
16.854301
 21
124.295302
 31
0.0
  0
LINE
  5
202
100
AcDbEntity
  8
text
 62
7
100
AcDbLine
 10
16.854301
 20
124.295302
 30
0.0
 11
16.854301
 21
124.117501
 31
0.0
  0
LINE
  5
203
100
AcDbEntity
  8
text
 62
7
100
AcDbLine
 10
16.854301
 20
124.117501
 30
0.0
 11
16.941791
 21
123.850801
 31
0.0
  0
LINE
  5
204
100
AcDbEntity
  8
text
 62
7
100
AcDbLine
 10
16.941791
 20
123.850801
 30
0.0
 11
17.122413
 21
123.673000
 31
0.0
  0
LINE
  5
205
100
AcDbEntity
  8
text
 62
7
100
AcDbLine
 10
17.122413
 20
123.673000
 30
0.0
 11
17.297392
 21
123.584100
 31
0.0
  0
LINE
  5
206
100
AcDbEntity
  8
text
 62
7
100
AcDbLine
 10
17.297392
 20
123.584100
 30
0.0
 11
17.565503
 21
123.584100
 31
0.0
  0
LINE
  5
207
100
AcDbEntity
  8
text
 62
7
100
AcDbLine
 10
17.565503
 20
123.584100
 30
0.0
 11
17.743304
 21
123.673000
 31
0.0
  0
LINE
  5
208
100
AcDbEntity
  8
text
 62
7
100
AcDbLine
 10
17.743304
 20
123.673000
 30
0.0
 11
17.921104
 21
123.850801
 31
0.0
  0
LINE
  5
209
100
AcDbEntity
  8
text
 62
7
100
AcDbLine
 10
17.921104
 20
123.850801
 30
0.0
 11
18.008594
 21
124.117501
 31
0.0
  0
LINE
  5
20a
100
AcDbEntity
  8
text
 62
7
100
AcDbLine
 10
18.008594
 20
124.117501
 30
0.0
 11
18.008594
 21
124.295302
 31
0.0
  0
LINE
  5
20b
100
AcDbEntity
  8
text
 62
7
100
AcDbLine
 10
18.008594
 20
124.295302
 30
0.0
 11
17.921104
 21
124.560592
 31
0.0
  0
LINE
  5
20c
100
AcDbEntity
  8
text
 62
7
100
AcDbLine
 10
17.921104
 20
124.560592
 30
0.0
 11
17.743304
 21
124.741214
 31
0.0
  0
LINE
  5
20d
100
AcDbEntity
  8
text
 62
7
100
AcDbLine
 10
17.743304
 20
124.741214
 30
0.0
 11
17.565503
 21
124.828703
 31
0.0
  0
LINE
  5
20e
100
AcDbEntity
  8
text
 62
7
100
AcDbLine
 10
17.565503
 20
124.828703
 30
0.0
 11
17.297392
 21
124.828703
 31
0.0
  0
LINE
  5
20f
100
AcDbEntity
  8
text
 62
7
100
AcDbLine
 10
18.719802
 20
125.452416
 30
0.0
 11
18.719802
 21
123.939701
 31
0.0
  0
LINE
  5
210
100
AcDbEntity
  8
text
 62
7
100
AcDbLine
 10
18.719802
 20
123.939701
 30
0.0
 11
18.810113
 21
123.673000
 31
0.0
  0
LINE
  5
211
100
AcDbEntity
  8
text
 62
7
100
AcDbLine
 10
18.810113
 20
123.673000
 30
0.0
 11
18.985092
 21
123.584100
 31
0.0
  0
LINE
  5
212
100
AcDbEntity
  8
text
 62
7
100
AcDbLine
 10
18.985092
 20
123.584100
 30
0.0
 11
19.165714
 21
123.584100
 31
0.0
  0
LINE
  5
213
100
AcDbEntity
  8
text
 62
7
100
AcDbLine
 10
18.454512
 20
124.828703
 30
0.0
 11
19.075403
 21
124.828703
 31
0.0
  0
LINE
  5
214
100
AcDbEntity
  8
text
 62
7
100
AcDbLine
 10
19.696291
 20
125.452416
 30
0.0
 11
19.696291
 21
123.584100
 31
0.0
  0
LINE
  5
215
100
AcDbEntity
  8
text
 62
7
100
AcDbLine
 10
19.696291
 20
125.452416
 30
0.0
 11
20.320003
 21
125.452416
 31
0.0
  0
LINE
  5
216
100
AcDbEntity
  8
text
 62
7
100
AcDbLine
 10
20.320003
 20
125.452416
 30
0.0
 11
20.588115
 21
125.362105
 31
0.0
  0
LINE
  5
217
100
AcDbEntity
  8
text
 62
7
100
AcDbLine
 10
20.588115
 20
125.362105
 30
0.0
 11
20.763094
 21
125.184304
 31
0.0
  0
LINE
  5
218
100
AcDbEntity
  8
text
 62
7
100
AcDbLine
 10
20.763094
 20
125.184304
 30
0.0
 11
20.853405
 21
125.006504
 31
0.0
  0
LINE
  5
219
100
AcDbEntity
  8
text
 62
7
100
AcDbLine
 10
20.853405
 20
125.006504
 30
0.0
 11
20.943716
 21
124.741214
 31
0.0
  0
LINE
  5
21a
100
AcDbEntity
  8
text
 62
7
100
AcDbLine
 10
20.943716
 20
124.741214
 30
0.0
 11
20.943716
 21
124.295302
 31
0.0
  0
LINE
  5
21b
100
AcDbEntity
  8
text
 62
7
100
AcDbLine
 10
20.943716
 20
124.295302
 30
0.0
 11
20.853405
 21
124.030012
 31
0.0
  0
LINE
  5
21c
100
AcDbEntity
  8
text
 62
7
100
AcDbLine
 10
20.853405
 20
124.030012
 30
0.0
 11
20.763094
 21
123.850801
 31
0.0
  0
LINE
  5
21d
100
AcDbEntity
  8
text
 62
7
100
AcDbLine
 10
20.763094
 20
123.850801
 30
0.0
 11
20.588115
 21
123.673000
 31
0.0
  0
LINE
  5
21e
100
AcDbEntity
  8
text
 62
7
100
AcDbLine
 10
20.588115
 20
123.673000
 30
0.0
 11
20.320003
 21
123.584100
 31
0.0
  0
LINE
  5
21f
100
AcDbEntity
  8
text
 62
7
100
AcDbLine
 10
20.320003
 20
123.584100
 30
0.0
 11
19.696291
 21
123.584100
 31
0.0
  0
LINE
  5
220
100
AcDbEntity
  8
text
 62
7
100
AcDbLine
 10
21.477121
 20
125.452416
 30
0.0
 11
21.564611
 21
125.362105
 31
0.0
  0
LINE
  5
221
100
AcDbEntity
  8
text
 62
7
100
AcDbLine
 10
21.564611
 20
125.362105
 30
0.0
 11
21.654922
 21
125.452416
 31
0.0
  0
LINE
  5
222
100
AcDbEntity
  8
text
 62
7
100
AcDbLine
 10
21.654922
 20
125.452416
 30
0.0
 11
21.564611
 21
125.539905
 31
0.0
  0
LINE
  5
223
100
AcDbEntity
  8
text
 62
7
100
AcDbLine
 10
21.564611
 20
125.539905
 30
0.0
 11
21.477121
 21
125.452416
 31
0.0
  0
LINE
  5
224
100
AcDbEntity
  8
text
 62
7
100
AcDbLine
 10
21.564611
 20
124.828703
 30
0.0
 11
21.564611
 21
123.584100
 31
0.0
  0
LINE
  5
225
100
AcDbEntity
  8
text
 62
7
100
AcDbLine
 10
23.255104
 20
124.828703
 30
0.0
 11
23.255104
 21
123.584100
 31
0.0
  0
LINE
  5
226
100
AcDbEntity
  8
text
 62
7
100
AcDbLine
 10
23.255104
 20
124.560592
 30
0.0
 11
23.077304
 21
124.741214
 31
0.0
  0
LINE
  5
227
100
AcDbEntity
  8
text
 62
7
100
AcDbLine
 10
23.077304
 20
124.741214
 30
0.0
 11
22.899503
 21
124.828703
 31
0.0
  0
LINE
  5
228
100
AcDbEntity
  8
text
 62
7
100
AcDbLine
 10
22.899503
 20
124.828703
 30
0.0
 11
22.631392
 21
124.828703
 31
0.0
  0
LINE
  5
229
100
AcDbEntity
  8
text
 62
7
100
AcDbLine
 10
22.631392
 20
124.828703
 30
0.0
 11
22.456413
 21
124.741214
 31
0.0
  0
LINE
  5
22a
100
AcDbEntity
  8
text
 62
7
100
AcDbLine
 10
22.456413
 20
124.741214
 30
0.0
 11
22.275791
 21
124.560592
 31
0.0
  0
LINE
  5
22b
100
AcDbEntity
  8
text
 62
7
100
AcDbLine
 10
22.275791
 20
124.560592
 30
0.0
 11
22.188301
 21
124.295302
 31
0.0
  0
LINE
  5
22c
100
AcDbEntity
  8
text
 62
7
100
AcDbLine
 10
22.188301
 20
124.295302
 30
0.0
 11
22.188301
 21
124.117501
 31
0.0
  0
LINE
  5
22d
100
AcDbEntity
  8
text
 62
7
100
AcDbLine
 10
22.188301
 20
124.117501
 30
0.0
 11
22.275791
 21
123.850801
 31
0.0
  0
LINE
  5
22e
100
AcDbEntity
  8
text
 62
7
100
AcDbLine
 10
22.275791
 20
123.850801
 30
0.0
 11
22.456413
 21
123.673000
 31
0.0
  0
LINE
  5
22f
100
AcDbEntity
  8
text
 62
7
100
AcDbLine
 10
22.456413
 20
123.673000
 30
0.0
 11
22.631392
 21
123.584100
 31
0.0
  0
LINE
  5
230
100
AcDbEntity
  8
text
 62
7
100
AcDbLine
 10
22.631392
 20
123.584100
 30
0.0
 11
22.899503
 21
123.584100
 31
0.0
  0
LINE
  5
231
100
AcDbEntity
  8
text
 62
7
100
AcDbLine
 10
22.899503
 20
123.584100
 30
0.0
 11
23.077304
 21
123.673000
 31
0.0
  0
LINE
  5
232
100
AcDbEntity
  8
text
 62
7
100
AcDbLine
 10
23.077304
 20
123.673000
 30
0.0
 11
23.255104
 21
123.850801
 31
0.0
  0
LINE
  5
233
100
AcDbEntity
  8
text
 62
7
100
AcDbLine
 10
23.963491
 20
125.452416
 30
0.0
 11
23.963491
 21
123.584100
 31
0.0
  0
LINE
  5
234
100
AcDbEntity
  8
text
 62
7
100
AcDbLine
 10
25.030292
 20
124.828703
 30
0.0
 11
24.855313
 21
124.741214
 31
0.0
  0
LINE
  5
235
100
AcDbEntity
  8
text
 62
7
100
AcDbLine
 10
24.855313
 20
124.741214
 30
0.0
 11
24.674691
 21
124.560592
 31
0.0
  0
LINE
  5
236
100
AcDbEntity
  8
text
 62
7
100
AcDbLine
 10
24.674691
 20
124.560592
 30
0.0
 11
24.587201
 21
124.295302
 31
0.0
  0
LINE
  5
237
100
AcDbEntity
  8
text
 62
7
100
AcDbLine
 10
24.587201
 20
124.295302
 30
0.0
 11
24.587201
 21
124.117501
 31
0.0
  0
LINE
  5
238
100
AcDbEntity
  8
text
 62
7
100
AcDbLine
 10
24.587201
 20
124.117501
 30
0.0
 11
24.674691
 21
123.850801
 31
0.0
  0
LINE
  5
239
100
AcDbEntity
  8
text
 62
7
100
AcDbLine
 10
24.674691
 20
123.850801
 30
0.0
 11
24.855313
 21
123.673000
 31
0.0
  0
LINE
  5
23a
100
AcDbEntity
  8
text
 62
7
100
AcDbLine
 10
24.855313
 20
123.673000
 30
0.0
 11
25.030292
 21
123.584100
 31
0.0
  0
LINE
  5
23b
100
AcDbEntity
  8
text
 62
7
100
AcDbLine
 10
25.030292
 20
123.584100
 30
0.0
 11
25.298403
 21
123.584100
 31
0.0
  0
LINE
  5
23c
100
AcDbEntity
  8
text
 62
7
100
AcDbLine
 10
25.298403
 20
123.584100
 30
0.0
 11
25.476204
 21
123.673000
 31
0.0
  0
LINE
  5
23d
100
AcDbEntity
  8
text
 62
7
100
AcDbLine
 10
25.476204
 20
123.673000
 30
0.0
 11
25.654004
 21
123.850801
 31
0.0
  0
LINE
  5
23e
100
AcDbEntity
  8
text
 62
7
100
AcDbLine
 10
25.654004
 20
123.850801
 30
0.0
 11
25.741494
 21
124.117501
 31
0.0
  0
LINE
  5
23f
100
AcDbEntity
  8
text
 62
7
100
AcDbLine
 10
25.741494
 20
124.117501
 30
0.0
 11
25.741494
 21
124.295302
 31
0.0
  0
LINE
  5
240
100
AcDbEntity
  8
text
 62
7
100
AcDbLine
 10
25.741494
 20
124.295302
 30
0.0
 11
25.654004
 21
124.560592
 31
0.0
  0
LINE
  5
241
100
AcDbEntity
  8
text
 62
7
100
AcDbLine
 10
25.654004
 20
124.560592
 30
0.0
 11
25.476204
 21
124.741214
 31
0.0
  0
LINE
  5
242
100
AcDbEntity
  8
text
 62
7
100
AcDbLine
 10
25.476204
 20
124.741214
 30
0.0
 11
25.298403
 21
124.828703
 31
0.0
  0
LINE
  5
243
100
AcDbEntity
  8
text
 62
7
100
AcDbLine
 10
25.298403
 20
124.828703
 30
0.0
 11
25.030292
 21
124.828703
 31
0.0
  0
LINE
  5
244
100
AcDbEntity
  8
text
 62
7
100
AcDbLine
 10
27.341704
 20
124.828703
 30
0.0
 11
27.341704
 21
123.406300
 31
0.0
  0
LINE
  5
245
100
AcDbEntity
  8
text
 62
7
100
AcDbLine
 10
27.341704
 20
123.406300
 30
0.0
 11
27.254215
 21
123.138188
 31
0.0
  0
LINE
  5
246
100
AcDbEntity
  8
text
 62
7
100
AcDbLine
 10
27.254215
 20
123.138188
 30
0.0
 11
27.163904
 21
123.050699
 31
0.0
  0
LINE
  5
247
100
AcDbEntity
  8
text
 62
7
100
AcDbLine
 10
27.163904
 20
123.050699
 30
0.0
 11
26.986103
 21
122.963209
 31
0.0
  0
LINE
  5
248
100
AcDbEntity
  8
text
 62
7
100
AcDbLine
 10
26.986103
 20
122.963209
 30
0.0
 11
26.717992
 21
122.963209
 31
0.0
  0
LINE
  5
249
100
AcDbEntity
  8
text
 62
7
100
AcDbLine
 10
26.717992
 20
122.963209
 30
0.0
 11
26.543013
 21
123.050699
 31
0.0
  0
LINE
  5
24a
100
AcDbEntity
  8
text
 62
7
100
AcDbLine
 10
27.341704
 20
124.560592
 30
0.0
 11
27.163904
 21
124.741214
 31
0.0
  0
LINE
  5
24b
100
AcDbEntity
  8
text
 62
7
100
AcDbLine
 10
27.163904
 20
124.741214
 30
0.0
 11
26.986103
 21
124.828703
 31
0.0
  0
LINE
  5
24c
100
AcDbEntity
  8
text
 62
7
100
AcDbLine
 10
26.986103
 20
124.828703
 30
0.0
 11
26.717992
 21
124.828703
 31
0.0
  0
LINE
  5
24d
100
AcDbEntity
  8
text
 62
7
100
AcDbLine
 10
26.717992
 20
124.828703
 30
0.0
 11
26.543013
 21
124.741214
 31
0.0
  0
LINE
  5
24e
100
AcDbEntity
  8
text
 62
7
100
AcDbLine
 10
26.543013
 20
124.741214
 30
0.0
 11
26.362391
 21
124.560592
 31
0.0
  0
LINE
  5
24f
100
AcDbEntity
  8
text
 62
7
100
AcDbLine
 10
26.362391
 20
124.560592
 30
0.0
 11
26.274901
 21
124.295302
 31
0.0
  0
LINE
  5
250
100
AcDbEntity
  8
text
 62
7
100
AcDbLine
 10
26.274901
 20
124.295302
 30
0.0
 11
26.274901
 21
124.117501
 31
0.0
  0
LINE
  5
251
100
AcDbEntity
  8
text
 62
7
100
AcDbLine
 10
26.274901
 20
124.117501
 30
0.0
 11
26.362391
 21
123.850801
 31
0.0
  0
LINE
  5
252
100
AcDbEntity
  8
text
 62
7
100
AcDbLine
 10
26.362391
 20
123.850801
 30
0.0
 11
26.543013
 21
123.673000
 31
0.0
  0
LINE
  5
253
100
AcDbEntity
  8
text
 62
7
100
AcDbLine
 10
26.543013
 20
123.673000
 30
0.0
 11
26.717992
 21
123.584100
 31
0.0
  0
LINE
  5
254
100
AcDbEntity
  8
text
 62
7
100
AcDbLine
 10
26.717992
 20
123.584100
 30
0.0
 11
26.986103
 21
123.584100
 31
0.0
  0
LINE
  5
255
100
AcDbEntity
  8
text
 62
7
100
AcDbLine
 10
26.986103
 20
123.584100
 30
0.0
 11
27.163904
 21
123.673000
 31
0.0
  0
LINE
  5
256
100
AcDbEntity
  8
text
 62
7
100
AcDbLine
 10
27.163904
 20
123.673000
 30
0.0
 11
27.341704
 21
123.850801
 31
0.0
  0
LINE
  5
257
100
AcDbEntity
  8
text
 62
7
100
AcDbLine
 10
28.941915
 20
124.560592
 30
0.0
 11
28.851604
 21
124.741214
 31
0.0
  0
LINE
  5
258
100
AcDbEntity
  8
text
 62
7
100
AcDbLine
 10
28.851604
 20
124.741214
 30
0.0
 11
28.586314
 21
124.828703
 31
0.0
  0
LINE
  5
259
100
AcDbEntity
  8
text
 62
7
100
AcDbLine
 10
28.586314
 20
124.828703
 30
0.0
 11
28.318202
 21
124.828703
 31
0.0
  0
LINE
  5
25a
100
AcDbEntity
  8
text
 62
7
100
AcDbLine
 10
28.318202
 20
124.828703
 30
0.0
 11
28.050091
 21
124.741214
 31
0.0
  0
LINE
  5
25b
100
AcDbEntity
  8
text
 62
7
100
AcDbLine
 10
28.050091
 20
124.741214
 30
0.0
 11
27.962601
 21
124.560592
 31
0.0
  0
LINE
  5
25c
100
AcDbEntity
  8
text
 62
7
100
AcDbLine
 10
27.962601
 20
124.560592
 30
0.0
 11
28.050091
 21
124.385613
 31
0.0
  0
LINE
  5
25d
100
AcDbEntity
  8
text
 62
7
100
AcDbLine
 10
28.050091
 20
124.385613
 30
0.0
 11
28.230713
 21
124.295302
 31
0.0
  0
LINE
  5
25e
100
AcDbEntity
  8
text
 62
7
100
AcDbLine
 10
28.230713
 20
124.295302
 30
0.0
 11
28.673803
 21
124.204991
 31
0.0
  0
LINE
  5
25f
100
AcDbEntity
  8
text
 62
7
100
AcDbLine
 10
28.673803
 20
124.204991
 30
0.0
 11
28.851604
 21
124.117501
 31
0.0
  0
LINE
  5
260
100
AcDbEntity
  8
text
 62
7
100
AcDbLine
 10
28.851604
 20
124.117501
 30
0.0
 11
28.941915
 21
123.939701
 31
0.0
  0
LINE
  5
261
100
AcDbEntity
  8
text
 62
7
100
AcDbLine
 10
28.941915
 20
123.939701
 30
0.0
 11
28.941915
 21
123.850801
 31
0.0
  0
LINE
  5
262
100
AcDbEntity
  8
text
 62
7
100
AcDbLine
 10
28.941915
 20
123.850801
 30
0.0
 11
28.851604
 21
123.673000
 31
0.0
  0
LINE
  5
263
100
AcDbEntity
  8
text
 62
7
100
AcDbLine
 10
28.851604
 20
123.673000
 30
0.0
 11
28.586314
 21
123.584100
 31
0.0
  0
LINE
  5
264
100
AcDbEntity
  8
text
 62
7
100
AcDbLine
 10
28.586314
 20
123.584100
 30
0.0
 11
28.318202
 21
123.584100
 31
0.0
  0
LINE
  5
265
100
AcDbEntity
  8
text
 62
7
100
AcDbLine
 10
28.318202
 20
123.584100
 30
0.0
 11
28.050091
 21
123.673000
 31
0.0
  0
LINE
  5
266
100
AcDbEntity
  8
text
 62
7
100
AcDbLine
 10
28.050091
 20
123.673000
 30
0.0
 11
27.962601
 21
123.850801
 31
0.0
  0
LINE
  5
267
100
AcDbEntity
  8
text
 62
7
100
AcDbLine
 10
12.184901
 20
121.932116
 30
0.0
 11
12.896103
 21
120.063800
 31
0.0
  0
LINE
  5
268
100
AcDbEntity
  8
text
 62
7
100
AcDbLine
 10
13.607305
 20
121.932116
 30
0.0
 11
12.896103
 21
120.063800
 31
0.0
  0
LINE
  5
269
100
AcDbEntity
  8
text
 62
7
100
AcDbLine
 10
15.297816
 20
121.486204
 30
0.0
 11
15.207505
 21
121.664004
 31
0.0
  0
LINE
  5
26a
100
AcDbEntity
  8
text
 62
7
100
AcDbLine
 10
15.207505
 20
121.664004
 30
0.0
 11
15.029704
 21
121.841805
 31
0.0
  0
LINE
  5
26b
100
AcDbEntity
  8
text
 62
7
100
AcDbLine
 10
15.029704
 20
121.841805
 30
0.0
 11
14.851904
 21
121.932116
 31
0.0
  0
LINE
  5
26c
100
AcDbEntity
  8
text
 62
7
100
AcDbLine
 10
14.851904
 20
121.932116
 30
0.0
 11
14.496303
 21
121.932116
 31
0.0
  0
LINE
  5
26d
100
AcDbEntity
  8
text
 62
7
100
AcDbLine
 10
14.496303
 20
121.932116
 30
0.0
 11
14.318502
 21
121.841805
 31
0.0
  0
LINE
  5
26e
100
AcDbEntity
  8
text
 62
7
100
AcDbLine
 10
14.318502
 20
121.841805
 30
0.0
 11
14.140702
 21
121.664004
 31
0.0
  0
LINE
  5
26f
100
AcDbEntity
  8
text
 62
7
100
AcDbLine
 10
14.140702
 20
121.664004
 30
0.0
 11
14.050391
 21
121.486204
 31
0.0
  0
LINE
  5
270
100
AcDbEntity
  8
text
 62
7
100
AcDbLine
 10
14.050391
 20
121.486204
 30
0.0
 11
13.962901
 21
121.220914
 31
0.0
  0
LINE
  5
271
100
AcDbEntity
  8
text
 62
7
100
AcDbLine
 10
13.962901
 20
121.220914
 30
0.0
 11
13.962901
 21
120.775002
 31
0.0
  0
LINE
  5
272
100
AcDbEntity
  8
text
 62
7
100
AcDbLine
 10
13.962901
 20
120.775002
 30
0.0
 11
14.050391
 21
120.509712
 31
0.0
  0
LINE
  5
273
100
AcDbEntity
  8
text
 62
7
100
AcDbLine
 10
14.050391
 20
120.509712
 30
0.0
 11
14.140702
 21
120.330501
 31
0.0
  0
LINE
  5
274
100
AcDbEntity
  8
text
 62
7
100
AcDbLine
 10
14.140702
 20
120.330501
 30
0.0
 11
14.318502
 21
120.152700
 31
0.0
  0
LINE
  5
275
100
AcDbEntity
  8
text
 62
7
100
AcDbLine
 10
14.318502
 20
120.152700
 30
0.0
 11
14.496303
 21
120.063800
 31
0.0
  0
LINE
  5
276
100
AcDbEntity
  8
text
 62
7
100
AcDbLine
 10
14.496303
 20
120.063800
 30
0.0
 11
14.851904
 21
120.063800
 31
0.0
  0
LINE
  5
277
100
AcDbEntity
  8
text
 62
7
100
AcDbLine
 10
14.851904
 20
120.063800
 30
0.0
 11
15.029704
 21
120.152700
 31
0.0
  0
LINE
  5
278
100
AcDbEntity
  8
text
 62
7
100
AcDbLine
 10
15.029704
 20
120.152700
 30
0.0
 11
15.207505
 21
120.330501
 31
0.0
  0
LINE
  5
279
100
AcDbEntity
  8
text
 62
7
100
AcDbLine
 10
15.207505
 20
120.330501
 30
0.0
 11
15.297816
 21
120.509712
 31
0.0
  0
LINE
  5
27a
100
AcDbEntity
  8
text
 62
7
100
AcDbLine
 10
16.364623
 20
121.932116
 30
0.0
 11
15.653421
 21
120.063800
 31
0.0
  0
LINE
  5
27b
100
AcDbEntity
  8
text
 62
7
100
AcDbLine
 10
16.364623
 20
121.932116
 30
0.0
 11
17.075825
 21
120.063800
 31
0.0
  0
LINE
  5
27c
100
AcDbEntity
  8
text
 62
7
100
AcDbLine
 10
15.918711
 20
120.684691
 30
0.0
 11
16.810535
 21
120.684691
 31
0.0
  0
LINE
  5
27d
100
AcDbEntity
  8
text
 62
7
100
AcDbLine
 10
19.031633
 20
121.932116
 30
0.0
 11
18.320431
 21
120.063800
 31
0.0
  0
LINE
  5
27e
100
AcDbEntity
  8
text
 62
7
100
AcDbLine
 10
19.031633
 20
121.932116
 30
0.0
 11
19.742835
 21
120.063800
 31
0.0
  0
LINE
  5
27f
100
AcDbEntity
  8
text
 62
7
100
AcDbLine
 10
18.585721
 20
120.684691
 30
0.0
 11
19.477545
 21
120.684691
 31
0.0
  0
LINE
  5
280
100
AcDbEntity
  8
text
 62
7
100
AcDbLine
 10
21.343035
 20
121.664004
 30
0.0
 11
21.165234
 21
121.841805
 31
0.0
  0
LINE
  5
281
100
AcDbEntity
  8
text
 62
7
100
AcDbLine
 10
21.165234
 20
121.841805
 30
0.0
 11
20.897123
 21
121.932116
 31
0.0
  0
LINE
  5
282
100
AcDbEntity
  8
text
 62
7
100
AcDbLine
 10
20.897123
 20
121.932116
 30
0.0
 11
20.541522
 21
121.932116
 31
0.0
  0
LINE
  5
283
100
AcDbEntity
  8
text
 62
7
100
AcDbLine
 10
20.541522
 20
121.932116
 30
0.0
 11
20.276232
 21
121.841805
 31
0.0
  0
LINE
  5
284
100
AcDbEntity
  8
text
 62
7
100
AcDbLine
 10
20.276232
 20
121.841805
 30
0.0
 11
20.098431
 21
121.664004
 31
0.0
  0
LINE
  5
285
100
AcDbEntity
  8
text
 62
7
100
AcDbLine
 10
20.098431
 20
121.664004
 30
0.0
 11
20.098431
 21
121.486204
 31
0.0
  0
LINE
  5
286
100
AcDbEntity
  8
text
 62
7
100
AcDbLine
 10
20.098431
 20
121.486204
 30
0.0
 11
20.185921
 21
121.308403
 31
0.0
  0
LINE
  5
287
100
AcDbEntity
  8
text
 62
7
100
AcDbLine
 10
20.185921
 20
121.308403
 30
0.0
 11
20.276232
 21
121.220914
 31
0.0
  0
LINE
  5
288
100
AcDbEntity
  8
text
 62
7
100
AcDbLine
 10
20.276232
 20
121.220914
 30
0.0
 11
20.454032
 21
121.130603
 31
0.0
  0
LINE
  5
289
100
AcDbEntity
  8
text
 62
7
100
AcDbLine
 10
20.454032
 20
121.130603
 30
0.0
 11
20.987434
 21
120.952802
 31
0.0
  0
LINE
  5
28a
100
AcDbEntity
  8
text
 62
7
100
AcDbLine
 10
20.987434
 20
120.952802
 30
0.0
 11
21.165234
 21
120.865313
 31
0.0
  0
LINE
  5
28b
100
AcDbEntity
  8
text
 62
7
100
AcDbLine
 10
21.165234
 20
120.865313
 30
0.0
 11
21.252724
 21
120.775002
 31
0.0
  0
LINE
  5
28c
100
AcDbEntity
  8
text
 62
7
100
AcDbLine
 10
21.252724
 20
120.775002
 30
0.0
 11
21.343035
 21
120.597201
 31
0.0
  0
LINE
  5
28d
100
AcDbEntity
  8
text
 62
7
100
AcDbLine
 10
21.343035
 20
120.597201
 30
0.0
 11
21.343035
 21
120.330501
 31
0.0
  0
LINE
  5
28e
100
AcDbEntity
  8
text
 62
7
100
AcDbLine
 10
21.343035
 20
120.330501
 30
0.0
 11
21.165234
 21
120.152700
 31
0.0
  0
LINE
  5
28f
100
AcDbEntity
  8
text
 62
7
100
AcDbLine
 10
21.165234
 20
120.152700
 30
0.0
 11
20.897123
 21
120.063800
 31
0.0
  0
LINE
  5
290
100
AcDbEntity
  8
text
 62
7
100
AcDbLine
 10
20.897123
 20
120.063800
 30
0.0
 11
20.541522
 21
120.063800
 31
0.0
  0
LINE
  5
291
100
AcDbEntity
  8
text
 62
7
100
AcDbLine
 10
20.541522
 20
120.063800
 30
0.0
 11
20.276232
 21
120.152700
 31
0.0
  0
LINE
  5
292
100
AcDbEntity
  8
text
 62
7
100
AcDbLine
 10
20.276232
 20
120.152700
 30
0.0
 11
20.098431
 21
120.330501
 31
0.0
  0
LINE
  5
293
100
AcDbEntity
  8
text
 62
7
100
AcDbLine
 10
22.054242
 20
121.932116
 30
0.0
 11
23.030734
 21
121.932116
 31
0.0
  0
LINE
  5
294
100
AcDbEntity
  8
text
 62
7
100
AcDbLine
 10
23.030734
 20
121.932116
 30
0.0
 11
22.500154
 21
121.220914
 31
0.0
  0
LINE
  5
295
100
AcDbEntity
  8
text
 62
7
100
AcDbLine
 10
22.500154
 20
121.220914
 30
0.0
 11
22.765444
 21
121.220914
 31
0.0
  0
LINE
  5
296
100
AcDbEntity
  8
text
 62
7
100
AcDbLine
 10
22.765444
 20
121.220914
 30
0.0
 11
22.943244
 21
121.130603
 31
0.0
  0
LINE
  5
297
100
AcDbEntity
  8
text
 62
7
100
AcDbLine
 10
22.943244
 20
121.130603
 30
0.0
 11
23.030734
 21
121.040292
 31
0.0
  0
LINE
  5
298
100
AcDbEntity
  8
text
 62
7
100
AcDbLine
 10
23.030734
 20
121.040292
 30
0.0
 11
23.121045
 21
120.775002
 31
0.0
  0
LINE
  5
299
100
AcDbEntity
  8
text
 62
7
100
AcDbLine
 10
23.121045
 20
120.775002
 30
0.0
 11
23.121045
 21
120.597201
 31
0.0
  0
LINE
  5
29a
100
AcDbEntity
  8
text
 62
7
100
AcDbLine
 10
23.121045
 20
120.597201
 30
0.0
 11
23.030734
 21
120.330501
 31
0.0
  0
LINE
  5
29b
100
AcDbEntity
  8
text
 62
7
100
AcDbLine
 10
23.030734
 20
120.330501
 30
0.0
 11
22.855755
 21
120.152700
 31
0.0
  0
LINE
  5
29c
100
AcDbEntity
  8
text
 62
7
100
AcDbLine
 10
22.855755
 20
120.152700
 30
0.0
 11
22.587643
 21
120.063800
 31
0.0
  0
LINE
  5
29d
100
AcDbEntity
  8
text
 62
7
100
AcDbLine
 10
22.587643
 20
120.063800
 30
0.0
 11
22.319532
 21
120.063800
 31
0.0
  0
LINE
  5
29e
100
AcDbEntity
  8
text
 62
7
100
AcDbLine
 10
22.319532
 20
120.063800
 30
0.0
 11
22.054242
 21
120.152700
 31
0.0
  0
LINE
  5
29f
100
AcDbEntity
  8
text
 62
7
100
AcDbLine
 10
22.054242
 20
120.152700
 30
0.0
 11
21.963931
 21
120.241600
 31
0.0
  0
LINE
  5
2a0
100
AcDbEntity
  8
text
 62
7
100
AcDbLine
 10
21.963931
 20
120.241600
 30
0.0
 11
21.876441
 21
120.419401
 31
0.0
  0
LINE
  5
2a1
100
AcDbEntity
  8
text
 62
7
100
AcDbLine
 10
23.832202
 20
121.932116
 30
0.0
 11
24.808694
 21
121.932116
 31
0.0
  0
LINE
  5
2a2
100
AcDbEntity
  8
text
 62
7
100
AcDbLine
 10
24.808694
 20
121.932116
 30
0.0
 11
24.278114
 21
121.220914
 31
0.0
  0
LINE
  5
2a3
100
AcDbEntity
  8
text
 62
7
100
AcDbLine
 10
24.278114
 20
121.220914
 30
0.0
 11
24.543404
 21
121.220914
 31
0.0
  0
LINE
  5
2a4
100
AcDbEntity
  8
text
 62
7
100
AcDbLine
 10
24.543404
 20
121.220914
 30
0.0
 11
24.721204
 21
121.130603
 31
0.0
  0
LINE
  5
2a5
100
AcDbEntity
  8
text
 62
7
100
AcDbLine
 10
24.721204
 20
121.130603
 30
0.0
 11
24.808694
 21
121.040292
 31
0.0
  0
LINE
  5
2a6
100
AcDbEntity
  8
text
 62
7
100
AcDbLine
 10
24.808694
 20
121.040292
 30
0.0
 11
24.899005
 21
120.775002
 31
0.0
  0
LINE
  5
2a7
100
AcDbEntity
  8
text
 62
7
100
AcDbLine
 10
24.899005
 20
120.775002
 30
0.0
 11
24.899005
 21
120.597201
 31
0.0
  0
LINE
  5
2a8
100
AcDbEntity
  8
text
 62
7
100
AcDbLine
 10
24.899005
 20
120.597201
 30
0.0
 11
24.808694
 21
120.330501
 31
0.0
  0
LINE
  5
2a9
100
AcDbEntity
  8
text
 62
7
100
AcDbLine
 10
24.808694
 20
120.330501
 30
0.0
 11
24.633715
 21
120.152700
 31
0.0
  0
LINE
  5
2aa
100
AcDbEntity
  8
text
 62
7
100
AcDbLine
 10
24.633715
 20
120.152700
 30
0.0
 11
24.365603
 21
120.063800
 31
0.0
  0
LINE
  5
2ab
100
AcDbEntity
  8
text
 62
7
100
AcDbLine
 10
24.365603
 20
120.063800
 30
0.0
 11
24.097492
 21
120.063800
 31
0.0
  0
LINE
  5
2ac
100
AcDbEntity
  8
text
 62
7
100
AcDbLine
 10
24.097492
 20
120.063800
 30
0.0
 11
23.832202
 21
120.152700
 31
0.0
  0
LINE
  5
2ad
100
AcDbEntity
  8
text
 62
7
100
AcDbLine
 10
23.832202
 20
120.152700
 30
0.0
 11
23.741891
 21
120.241600
 31
0.0
  0
LINE
  5
2ae
100
AcDbEntity
  8
text
 62
7
100
AcDbLine
 10
23.741891
 20
120.241600
 30
0.0
 11
23.654401
 21
120.419401
 31
0.0
  0
LINE
  5
2af
100
AcDbEntity
  8
text
 62
7
100
AcDbLine
 10
26.586694
 20
121.664004
 30
0.0
 11
26.499204
 21
121.841805
 31
0.0
  0
LINE
  5
2b0
100
AcDbEntity
  8
text
 62
7
100
AcDbLine
 10
26.499204
 20
121.841805
 30
0.0
 11
26.231093
 21
121.932116
 31
0.0
  0
LINE
  5
2b1
100
AcDbEntity
  8
text
 62
7
100
AcDbLine
 10
26.231093
 20
121.932116
 30
0.0
 11
26.056114
 21
121.932116
 31
0.0
  0
LINE
  5
2b2
100
AcDbEntity
  8
text
 62
7
100
AcDbLine
 10
26.056114
 20
121.932116
 30
0.0
 11
25.788002
 21
121.841805
 31
0.0
  0
LINE
  5
2b3
100
AcDbEntity
  8
text
 62
7
100
AcDbLine
 10
25.788002
 20
121.841805
 30
0.0
 11
25.610202
 21
121.576515
 31
0.0
  0
LINE
  5
2b4
100
AcDbEntity
  8
text
 62
7
100
AcDbLine
 10
25.610202
 20
121.576515
 30
0.0
 11
25.519891
 21
121.130603
 31
0.0
  0
LINE
  5
2b5
100
AcDbEntity
  8
text
 62
7
100
AcDbLine
 10
25.519891
 20
121.130603
 30
0.0
 11
25.519891
 21
120.684691
 31
0.0
  0
LINE
  5
2b6
100
AcDbEntity
  8
text
 62
7
100
AcDbLine
 10
25.519891
 20
120.684691
 30
0.0
 11
25.610202
 21
120.330501
 31
0.0
  0
LINE
  5
2b7
100
AcDbEntity
  8
text
 62
7
100
AcDbLine
 10
25.610202
 20
120.330501
 30
0.0
 11
25.788002
 21
120.152700
 31
0.0
  0
LINE
  5
2b8
100
AcDbEntity
  8
text
 62
7
100
AcDbLine
 10
25.788002
 20
120.152700
 30
0.0
 11
26.056114
 21
120.063800
 31
0.0
  0
LINE
  5
2b9
100
AcDbEntity
  8
text
 62
7
100
AcDbLine
 10
26.056114
 20
120.063800
 30
0.0
 11
26.143603
 21
120.063800
 31
0.0
  0
LINE
  5
2ba
100
AcDbEntity
  8
text
 62
7
100
AcDbLine
 10
26.143603
 20
120.063800
 30
0.0
 11
26.411715
 21
120.152700
 31
0.0
  0
LINE
  5
2bb
100
AcDbEntity
  8
text
 62
7
100
AcDbLine
 10
26.411715
 20
120.152700
 30
0.0
 11
26.586694
 21
120.330501
 31
0.0
  0
LINE
  5
2bc
100
AcDbEntity
  8
text
 62
7
100
AcDbLine
 10
26.586694
 20
120.330501
 30
0.0
 11
26.677005
 21
120.597201
 31
0.0
  0
LINE
  5
2bd
100
AcDbEntity
  8
text
 62
7
100
AcDbLine
 10
26.677005
 20
120.597201
 30
0.0
 11
26.677005
 21
120.684691
 31
0.0
  0
LINE
  5
2be
100
AcDbEntity
  8
text
 62
7
100
AcDbLine
 10
26.677005
 20
120.684691
 30
0.0
 11
26.586694
 21
120.952802
 31
0.0
  0
LINE
  5
2bf
100
AcDbEntity
  8
text
 62
7
100
AcDbLine
 10
26.586694
 20
120.952802
 30
0.0
 11
26.411715
 21
121.130603
 31
0.0
  0
LINE
  5
2c0
100
AcDbEntity
  8
text
 62
7
100
AcDbLine
 10
26.411715
 20
121.130603
 30
0.0
 11
26.143603
 21
121.220914
 31
0.0
  0
LINE
  5
2c1
100
AcDbEntity
  8
text
 62
7
100
AcDbLine
 10
26.143603
 20
121.220914
 30
0.0
 11
26.056114
 21
121.220914
 31
0.0
  0
LINE
  5
2c2
100
AcDbEntity
  8
text
 62
7
100
AcDbLine
 10
26.056114
 20
121.220914
 30
0.0
 11
25.788002
 21
121.130603
 31
0.0
  0
LINE
  5
2c3
100
AcDbEntity
  8
text
 62
7
100
AcDbLine
 10
25.788002
 20
121.130603
 30
0.0
 11
25.610202
 21
120.952802
 31
0.0
  0
LINE
  5
2c4
100
AcDbEntity
  8
text
 62
7
100
AcDbLine
 10
25.610202
 20
120.952802
 30
0.0
 11
25.519891
 21
120.684691
 31
0.0
  0
LINE
  5
2c5
100
AcDbEntity
  8
text
 62
7
100
AcDbLine
 10
27.743903
 20
121.932116
 30
0.0
 11
27.478613
 21
121.841805
 31
0.0
  0
LINE
  5
2c6
100
AcDbEntity
  8
text
 62
7
100
AcDbLine
 10
27.478613
 20
121.841805
 30
0.0
 11
27.297991
 21
121.576515
 31
0.0
  0
LINE
  5
2c7
100
AcDbEntity
  8
text
 62
7
100
AcDbLine
 10
27.297991
 20
121.576515
 30
0.0
 11
27.210501
 21
121.130603
 31
0.0
  0
LINE
  5
2c8
100
AcDbEntity
  8
text
 62
7
100
AcDbLine
 10
27.210501
 20
121.130603
 30
0.0
 11
27.210501
 21
120.865313
 31
0.0
  0
LINE
  5
2c9
100
AcDbEntity
  8
text
 62
7
100
AcDbLine
 10
27.210501
 20
120.865313
 30
0.0
 11
27.297991
 21
120.419401
 31
0.0
  0
LINE
  5
2ca
100
AcDbEntity
  8
text
 62
7
100
AcDbLine
 10
27.297991
 20
120.419401
 30
0.0
 11
27.478613
 21
120.152700
 31
0.0
  0
LINE
  5
2cb
100
AcDbEntity
  8
text
 62
7
100
AcDbLine
 10
27.478613
 20
120.152700
 30
0.0
 11
27.743903
 21
120.063800
 31
0.0
  0
LINE
  5
2cc
100
AcDbEntity
  8
text
 62
7
100
AcDbLine
 10
27.743903
 20
120.063800
 30
0.0
 11
27.921703
 21
120.063800
 31
0.0
  0
LINE
  5
2cd
100
AcDbEntity
  8
text
 62
7
100
AcDbLine
 10
27.921703
 20
120.063800
 30
0.0
 11
28.189815
 21
120.152700
 31
0.0
  0
LINE
  5
2ce
100
AcDbEntity
  8
text
 62
7
100
AcDbLine
 10
28.189815
 20
120.152700
 30
0.0
 11
28.364794
 21
120.419401
 31
0.0
  0
LINE
  5
2cf
100
AcDbEntity
  8
text
 62
7
100
AcDbLine
 10
28.364794
 20
120.419401
 30
0.0
 11
28.455105
 21
120.865313
 31
0.0
  0
LINE
  5
2d0
100
AcDbEntity
  8
text
 62
7
100
AcDbLine
 10
28.455105
 20
120.865313
 30
0.0
 11
28.455105
 21
121.130603
 31
0.0
  0
LINE
  5
2d1
100
AcDbEntity
  8
text
 62
7
100
AcDbLine
 10
28.455105
 20
121.130603
 30
0.0
 11
28.364794
 21
121.576515
 31
0.0
  0
LINE
  5
2d2
100
AcDbEntity
  8
text
 62
7
100
AcDbLine
 10
28.364794
 20
121.576515
 30
0.0
 11
28.189815
 21
121.841805
 31
0.0
  0
LINE
  5
2d3
100
AcDbEntity
  8
text
 62
7
100
AcDbLine
 10
28.189815
 20
121.841805
 30
0.0
 11
27.921703
 21
121.932116
 31
0.0
  0
LINE
  5
2d4
100
AcDbEntity
  8
text
 62
7
100
AcDbLine
 10
27.921703
 20
121.932116
 30
0.0
 11
27.743903
 21
121.932116
 31
0.0
  0
LINE
  5
2d5
100
AcDbEntity
  8
text
 62
7
100
AcDbLine
 10
20.098416
 20
39.565304
 30
0.0
 11
20.008105
 21
39.743104
 31
0.0
  0
LINE
  5
2d6
100
AcDbEntity
  8
text
 62
7
100
AcDbLine
 10
20.008105
 20
39.743104
 30
0.0
 11
19.830304
 21
39.920905
 31
0.0
  0
LINE
  5
2d7
100
AcDbEntity
  8
text
 62
7
100
AcDbLine
 10
19.830304
 20
39.920905
 30
0.0
 11
19.652504
 21
40.011216
 31
0.0
  0
LINE
  5
2d8
100
AcDbEntity
  8
text
 62
7
100
AcDbLine
 10
19.652504
 20
40.011216
 30
0.0
 11
19.296903
 21
40.011216
 31
0.0
  0
LINE
  5
2d9
100
AcDbEntity
  8
text
 62
7
100
AcDbLine
 10
19.296903
 20
40.011216
 30
0.0
 11
19.119102
 21
39.920905
 31
0.0
  0
LINE
  5
2da
100
AcDbEntity
  8
text
 62
7
100
AcDbLine
 10
19.119102
 20
39.920905
 30
0.0
 11
18.941302
 21
39.743104
 31
0.0
  0
LINE
  5
2db
100
AcDbEntity
  8
text
 62
7
100
AcDbLine
 10
18.941302
 20
39.743104
 30
0.0
 11
18.850991
 21
39.565304
 31
0.0
  0
LINE
  5
2dc
100
AcDbEntity
  8
text
 62
7
100
AcDbLine
 10
18.850991
 20
39.565304
 30
0.0
 11
18.763501
 21
39.300014
 31
0.0
  0
LINE
  5
2dd
100
AcDbEntity
  8
text
 62
7
100
AcDbLine
 10
18.763501
 20
39.300014
 30
0.0
 11
18.763501
 21
38.854102
 31
0.0
  0
LINE
  5
2de
100
AcDbEntity
  8
text
 62
7
100
AcDbLine
 10
18.763501
 20
38.854102
 30
0.0
 11
18.850991
 21
38.588812
 31
0.0
  0
LINE
  5
2df
100
AcDbEntity
  8
text
 62
7
100
AcDbLine
 10
18.850991
 20
38.588812
 30
0.0
 11
18.941302
 21
38.409601
 31
0.0
  0
LINE
  5
2e0
100
AcDbEntity
  8
text
 62
7
100
AcDbLine
 10
18.941302
 20
38.409601
 30
0.0
 11
19.119102
 21
38.231800
 31
0.0
  0
LINE
  5
2e1
100
AcDbEntity
  8
text
 62
7
100
AcDbLine
 10
19.119102
 20
38.231800
 30
0.0
 11
19.296903
 21
38.142900
 31
0.0
  0
LINE
  5
2e2
100
AcDbEntity
  8
text
 62
7
100
AcDbLine
 10
19.296903
 20
38.142900
 30
0.0
 11
19.652504
 21
38.142900
 31
0.0
  0
LINE
  5
2e3
100
AcDbEntity
  8
text
 62
7
100
AcDbLine
 10
19.652504
 20
38.142900
 30
0.0
 11
19.830304
 21
38.231800
 31
0.0
  0
LINE
  5
2e4
100
AcDbEntity
  8
text
 62
7
100
AcDbLine
 10
19.830304
 20
38.231800
 30
0.0
 11
20.008105
 21
38.409601
 31
0.0
  0
LINE
  5
2e5
100
AcDbEntity
  8
text
 62
7
100
AcDbLine
 10
20.008105
 20
38.409601
 30
0.0
 11
20.098416
 21
38.588812
 31
0.0
  0
LINE
  5
2e6
100
AcDbEntity
  8
text
 62
7
100
AcDbLine
 10
20.454021
 20
40.011216
 30
0.0
 11
21.165223
 21
38.142900
 31
0.0
  0
LINE
  5
2e7
100
AcDbEntity
  8
text
 62
7
100
AcDbLine
 10
21.876425
 20
40.011216
 30
0.0
 11
21.165223
 21
38.142900
 31
0.0
  0
LINE
  5
2e8
100
AcDbEntity
  8
text
 62
7
100
AcDbLine
 10
5.873791
 20
40.011216
 30
0.0
 11
5.873791
 21
38.142900
 31
0.0
  0
LINE
  5
2e9
100
AcDbEntity
  8
text
 62
7
100
AcDbLine
 10
6.584993
 20
40.011216
 30
0.0
 11
6.584993
 21
38.142900
 31
0.0
  0
LINE
  5
2ea
100
AcDbEntity
  8
text
 62
7
100
AcDbLine
 10
6.584993
 20
40.011216
 30
0.0
 11
7.832418
 21
38.142900
 31
0.0
  0
LINE
  5
2eb
100
AcDbEntity
  8
text
 62
7
100
AcDbLine
 10
7.832418
 20
40.011216
 30
0.0
 11
7.832418
 21
38.142900
 31
0.0
  0
LINE
  5
2ec
100
AcDbEntity
  8
text
 62
7
100
AcDbLine
 10
31.830903
 20
40.011216
 30
0.0
 11
31.653102
 21
39.920905
 31
0.0
  0
LINE
  5
2ed
100
AcDbEntity
  8
text
 62
7
100
AcDbLine
 10
31.653102
 20
39.920905
 30
0.0
 11
31.475302
 21
39.743104
 31
0.0
  0
LINE
  5
2ee
100
AcDbEntity
  8
text
 62
7
100
AcDbLine
 10
31.475302
 20
39.743104
 30
0.0
 11
31.384991
 21
39.565304
 31
0.0
  0
LINE
  5
2ef
100
AcDbEntity
  8
text
 62
7
100
AcDbLine
 10
31.384991
 20
39.565304
 30
0.0
 11
31.297501
 21
39.300014
 31
0.0
  0
LINE
  5
2f0
100
AcDbEntity
  8
text
 62
7
100
AcDbLine
 10
31.297501
 20
39.300014
 30
0.0
 11
31.297501
 21
38.854102
 31
0.0
  0
LINE
  5
2f1
100
AcDbEntity
  8
text
 62
7
100
AcDbLine
 10
31.297501
 20
38.854102
 30
0.0
 11
31.384991
 21
38.588812
 31
0.0
  0
LINE
  5
2f2
100
AcDbEntity
  8
text
 62
7
100
AcDbLine
 10
31.384991
 20
38.588812
 30
0.0
 11
31.475302
 21
38.409601
 31
0.0
  0
LINE
  5
2f3
100
AcDbEntity
  8
text
 62
7
100
AcDbLine
 10
31.475302
 20
38.409601
 30
0.0
 11
31.653102
 21
38.231800
 31
0.0
  0
LINE
  5
2f4
100
AcDbEntity
  8
text
 62
7
100
AcDbLine
 10
31.653102
 20
38.231800
 30
0.0
 11
31.830903
 21
38.142900
 31
0.0
  0
LINE
  5
2f5
100
AcDbEntity
  8
text
 62
7
100
AcDbLine
 10
31.830903
 20
38.142900
 30
0.0
 11
32.186504
 21
38.142900
 31
0.0
  0
LINE
  5
2f6
100
AcDbEntity
  8
text
 62
7
100
AcDbLine
 10
32.186504
 20
38.142900
 30
0.0
 11
32.364304
 21
38.231800
 31
0.0
  0
LINE
  5
2f7
100
AcDbEntity
  8
text
 62
7
100
AcDbLine
 10
32.364304
 20
38.231800
 30
0.0
 11
32.542105
 21
38.409601
 31
0.0
  0
LINE
  5
2f8
100
AcDbEntity
  8
text
 62
7
100
AcDbLine
 10
32.542105
 20
38.409601
 30
0.0
 11
32.632416
 21
38.588812
 31
0.0
  0
LINE
  5
2f9
100
AcDbEntity
  8
text
 62
7
100
AcDbLine
 10
32.632416
 20
38.588812
 30
0.0
 11
32.719905
 21
38.854102
 31
0.0
  0
LINE
  5
2fa
100
AcDbEntity
  8
text
 62
7
100
AcDbLine
 10
32.719905
 20
38.854102
 30
0.0
 11
32.719905
 21
39.300014
 31
0.0
  0
LINE
  5
2fb
100
AcDbEntity
  8
text
 62
7
100
AcDbLine
 10
32.719905
 20
39.300014
 30
0.0
 11
32.632416
 21
39.565304
 31
0.0
  0
LINE
  5
2fc
100
AcDbEntity
  8
text
 62
7
100
AcDbLine
 10
32.632416
 20
39.565304
 30
0.0
 11
32.542105
 21
39.743104
 31
0.0
  0
LINE
  5
2fd
100
AcDbEntity
  8
text
 62
7
100
AcDbLine
 10
32.542105
 20
39.743104
 30
0.0
 11
32.364304
 21
39.920905
 31
0.0
  0
LINE
  5
2fe
100
AcDbEntity
  8
text
 62
7
100
AcDbLine
 10
32.364304
 20
39.920905
 30
0.0
 11
32.186504
 21
40.011216
 31
0.0
  0
LINE
  5
2ff
100
AcDbEntity
  8
text
 62
7
100
AcDbLine
 10
32.186504
 20
40.011216
 30
0.0
 11
31.830903
 21
40.011216
 31
0.0
  0
LINE
  5
300
100
AcDbEntity
  8
text
 62
7
100
AcDbLine
 10
33.340801
 20
40.011216
 30
0.0
 11
33.340801
 21
38.676301
 31
0.0
  0
LINE
  5
301
100
AcDbEntity
  8
text
 62
7
100
AcDbLine
 10
33.340801
 20
38.676301
 30
0.0
 11
33.431112
 21
38.409601
 31
0.0
  0
LINE
  5
302
100
AcDbEntity
  8
text
 62
7
100
AcDbLine
 10
33.431112
 20
38.409601
 30
0.0
 11
33.608912
 21
38.231800
 31
0.0
  0
LINE
  5
303
100
AcDbEntity
  8
text
 62
7
100
AcDbLine
 10
33.608912
 20
38.231800
 30
0.0
 11
33.877024
 21
38.142900
 31
0.0
  0
LINE
  5
304
100
AcDbEntity
  8
text
 62
7
100
AcDbLine
 10
33.877024
 20
38.142900
 30
0.0
 11
34.052003
 21
38.142900
 31
0.0
  0
LINE
  5
305
100
AcDbEntity
  8
text
 62
7
100
AcDbLine
 10
34.052003
 20
38.142900
 30
0.0
 11
34.320114
 21
38.231800
 31
0.0
  0
LINE
  5
306
100
AcDbEntity
  8
text
 62
7
100
AcDbLine
 10
34.320114
 20
38.231800
 30
0.0
 11
34.497915
 21
38.409601
 31
0.0
  0
LINE
  5
307
100
AcDbEntity
  8
text
 62
7
100
AcDbLine
 10
34.497915
 20
38.409601
 30
0.0
 11
34.588226
 21
38.676301
 31
0.0
  0
LINE
  5
308
100
AcDbEntity
  8
text
 62
7
100
AcDbLine
 10
34.588226
 20
38.676301
 30
0.0
 11
34.588226
 21
40.011216
 31
0.0
  0
LINE
  5
309
100
AcDbEntity
  8
text
 62
7
100
AcDbLine
 10
35.652202
 20
40.011216
 30
0.0
 11
35.652202
 21
38.142900
 31
0.0
  0
LINE
  5
30a
100
AcDbEntity
  8
text
 62
7
100
AcDbLine
 10
35.031311
 20
40.011216
 30
0.0
 11
36.275914
 21
40.011216
 31
0.0
  0
LINE
  5
30b
100
AcDbEntity
  8
text
 62
7
100
AcDbLine
 10
17.824514
 20
14.292777
 30
0.0
 11
17.625547
 21
14.225044
 31
0.0
  0
LINE
  5
30c
100
AcDbEntity
  8
text
 62
7
100
AcDbLine
 10
17.625547
 20
14.225044
 30
0.0
 11
17.490080
 21
14.026077
 31
0.0
  0
LINE
  5
30d
100
AcDbEntity
  8
text
 62
7
100
AcDbLine
 10
17.490080
 20
14.026077
 30
0.0
 11
17.424463
 21
13.691643
 31
0.0
  0
LINE
  5
30e
100
AcDbEntity
  8
text
 62
7
100
AcDbLine
 10
17.424463
 20
13.691643
 30
0.0
 11
17.424463
 21
13.492676
 31
0.0
  0
LINE
  5
30f
100
AcDbEntity
  8
text
 62
7
100
AcDbLine
 10
17.424463
 20
13.492676
 30
0.0
 11
17.490080
 21
13.158242
 31
0.0
  0
LINE
  5
310
100
AcDbEntity
  8
text
 62
7
100
AcDbLine
 10
17.490080
 20
13.158242
 30
0.0
 11
17.625547
 21
12.958217
 31
0.0
  0
LINE
  5
311
100
AcDbEntity
  8
text
 62
7
100
AcDbLine
 10
17.625547
 20
12.958217
 30
0.0
 11
17.824514
 21
12.891542
 31
0.0
  0
LINE
  5
312
100
AcDbEntity
  8
text
 62
7
100
AcDbLine
 10
17.824514
 20
12.891542
 30
0.0
 11
17.957864
 21
12.891542
 31
0.0
  0
LINE
  5
313
100
AcDbEntity
  8
text
 62
7
100
AcDbLine
 10
17.957864
 20
12.891542
 30
0.0
 11
18.158948
 21
12.958217
 31
0.0
  0
LINE
  5
314
100
AcDbEntity
  8
text
 62
7
100
AcDbLine
 10
18.158948
 20
12.958217
 30
0.0
 11
18.290181
 21
13.158242
 31
0.0
  0
LINE
  5
315
100
AcDbEntity
  8
text
 62
7
100
AcDbLine
 10
18.290181
 20
13.158242
 30
0.0
 11
18.357914
 21
13.492676
 31
0.0
  0
LINE
  5
316
100
AcDbEntity
  8
text
 62
7
100
AcDbLine
 10
18.357914
 20
13.492676
 30
0.0
 11
18.357914
 21
13.691643
 31
0.0
  0
LINE
  5
317
100
AcDbEntity
  8
text
 62
7
100
AcDbLine
 10
18.357914
 20
13.691643
 30
0.0
 11
18.290181
 21
14.026077
 31
0.0
  0
LINE
  5
318
100
AcDbEntity
  8
text
 62
7
100
AcDbLine
 10
18.290181
 20
14.026077
 30
0.0
 11
18.158948
 21
14.225044
 31
0.0
  0
LINE
  5
319
100
AcDbEntity
  8
text
 62
7
100
AcDbLine
 10
18.158948
 20
14.225044
 30
0.0
 11
17.957864
 21
14.292777
 31
0.0
  0
LINE
  5
31a
100
AcDbEntity
  8
text
 62
7
100
AcDbLine
 10
17.957864
 20
14.292777
 30
0.0
 11
17.824514
 21
14.292777
 31
0.0
  0
LINE
  5
31b
100
AcDbEntity
  8
text
 62
7
100
AcDbLine
 10
18.664627
 20
13.592159
 30
0.0
 11
19.484260
 21
13.592159
 31
0.0
  0
LINE
  5
31c
100
AcDbEntity
  8
text
 62
7
100
AcDbLine
 10
19.815984
 20
14.026079
 30
0.0
 11
19.947218
 21
14.091696
 31
0.0
  0
LINE
  5
31d
100
AcDbEntity
  8
text
 62
7
100
AcDbLine
 10
19.947218
 20
14.091696
 30
0.0
 11
20.148301
 21
14.292779
 31
0.0
  0
LINE
  5
31e
100
AcDbEntity
  8
text
 62
7
100
AcDbLine
 10
20.148301
 20
14.292779
 30
0.0
 11
20.148301
 21
12.891544
 31
0.0
  0
LINE
  5
31f
100
AcDbEntity
  8
text
 62
7
100
AcDbLine
 10
21.348461
 20
14.292777
 30
0.0
 11
21.149494
 21
14.225043
 31
0.0
  0
LINE
  5
320
100
AcDbEntity
  8
text
 62
7
100
AcDbLine
 10
21.149494
 20
14.225043
 30
0.0
 11
21.014027
 21
14.026076
 31
0.0
  0
LINE
  5
321
100
AcDbEntity
  8
text
 62
7
100
AcDbLine
 10
21.014027
 20
14.026076
 30
0.0
 11
20.948410
 21
13.691642
 31
0.0
  0
LINE
  5
322
100
AcDbEntity
  8
text
 62
7
100
AcDbLine
 10
20.948410
 20
13.691642
 30
0.0
 11
20.948410
 21
13.492675
 31
0.0
  0
LINE
  5
323
100
AcDbEntity
  8
text
 62
7
100
AcDbLine
 10
20.948410
 20
13.492675
 30
0.0
 11
21.014027
 21
13.158241
 31
0.0
  0
LINE
  5
324
100
AcDbEntity
  8
text
 62
7
100
AcDbLine
 10
21.014027
 20
13.158241
 30
0.0
 11
21.149494
 21
12.958216
 31
0.0
  0
LINE
  5
325
100
AcDbEntity
  8
text
 62
7
100
AcDbLine
 10
21.149494
 20
12.958216
 30
0.0
 11
21.348461
 21
12.891541
 31
0.0
  0
LINE
  5
326
100
AcDbEntity
  8
text
 62
7
100
AcDbLine
 10
21.348461
 20
12.891541
 30
0.0
 11
21.481811
 21
12.891541
 31
0.0
  0
LINE
  5
327
100
AcDbEntity
  8
text
 62
7
100
AcDbLine
 10
21.481811
 20
12.891541
 30
0.0
 11
21.682895
 21
12.958216
 31
0.0
  0
LINE
  5
328
100
AcDbEntity
  8
text
 62
7
100
AcDbLine
 10
21.682895
 20
12.958216
 30
0.0
 11
21.814129
 21
13.158241
 31
0.0
  0
LINE
  5
329
100
AcDbEntity
  8
text
 62
7
100
AcDbLine
 10
21.814129
 20
13.158241
 30
0.0
 11
21.881862
 21
13.492675
 31
0.0
  0
LINE
  5
32a
100
AcDbEntity
  8
text
 62
7
100
AcDbLine
 10
21.881862
 20
13.492675
 30
0.0
 11
21.881862
 21
13.691643
 31
0.0
  0
LINE
  5
32b
100
AcDbEntity
  8
text
 62
7
100
AcDbLine
 10
21.881862
 20
13.691643
 30
0.0
 11
21.814129
 21
14.026077
 31
0.0
  0
LINE
  5
32c
100
AcDbEntity
  8
text
 62
7
100
AcDbLine
 10
21.814129
 20
14.026077
 30
0.0
 11
21.682895
 21
14.225044
 31
0.0
  0
LINE
  5
32d
100
AcDbEntity
  8
text
 62
7
100
AcDbLine
 10
21.682895
 20
14.225044
 30
0.0
 11
21.481811
 21
14.292777
 31
0.0
  0
LINE
  5
32e
100
AcDbEntity
  8
text
 62
7
100
AcDbLine
 10
21.481811
 20
14.292777
 30
0.0
 11
21.348461
 21
14.292777
 31
0.0
  0
LINE
  5
32f
100
AcDbEntity
  8
text
 62
7
100
AcDbLine
 10
22.148560
 20
14.292777
 30
0.0
 11
22.681961
 21
12.891542
 31
0.0
  0
LINE
  5
330
100
AcDbEntity
  8
text
 62
7
100
AcDbLine
 10
23.215362
 20
14.292777
 30
0.0
 11
22.681961
 21
12.891542
 31
0.0
  0
LINE
  5
331
100
AcDbEntity
  8
text
 62
7
100
AcDbLine
 10
4.981888
 20
14.134535
 30
0.0
 11
4.981888
 21
13.316345
 31
0.0
  0
LINE
  5
332
100
AcDbEntity
  8
text
 62
7
100
AcDbLine
 10
4.572072
 20
13.726161
 30
0.0
 11
5.391704
 21
13.726161
 31
0.0
  0
LINE
  5
333
100
AcDbEntity
  8
text
 62
7
100
AcDbLine
 10
4.568928
 20
13.019337
 30
0.0
 11
5.388561
 21
13.019337
 31
0.0
  0
LINE
  5
334
100
AcDbEntity
  8
text
 62
7
100
AcDbLine
 10
5.737944
 20
14.026085
 30
0.0
 11
5.869178
 21
14.091702
 31
0.0
  0
LINE
  5
335
100
AcDbEntity
  8
text
 62
7
100
AcDbLine
 10
5.869178
 20
14.091702
 30
0.0
 11
6.070261
 21
14.292786
 31
0.0
  0
LINE
  5
336
100
AcDbEntity
  8
text
 62
7
100
AcDbLine
 10
6.070261
 20
14.292786
 30
0.0
 11
6.070261
 21
12.891550
 31
0.0
  0
LINE
  5
337
100
AcDbEntity
  8
text
 62
7
100
AcDbLine
 10
7.270411
 20
14.292786
 30
0.0
 11
7.071444
 21
14.225052
 31
0.0
  0
LINE
  5
338
100
AcDbEntity
  8
text
 62
7
100
AcDbLine
 10
7.071444
 20
14.225052
 30
0.0
 11
6.935977
 21
14.026085
 31
0.0
  0
LINE
  5
339
100
AcDbEntity
  8
text
 62
7
100
AcDbLine
 10
6.935977
 20
14.026085
 30
0.0
 11
6.870361
 21
13.691651
 31
0.0
  0
LINE
  5
33a
100
AcDbEntity
  8
text
 62
7
100
AcDbLine
 10
6.870361
 20
13.691651
 30
0.0
 11
6.870361
 21
13.492684
 31
0.0
  0
LINE
  5
33b
100
AcDbEntity
  8
text
 62
7
100
AcDbLine
 10
6.870361
 20
13.492684
 30
0.0
 11
6.935977
 21
13.158250
 31
0.0
  0
LINE
  5
33c
100
AcDbEntity
  8
text
 62
7
100
AcDbLine
 10
6.935977
 20
13.158250
 30
0.0
 11
7.071444
 21
12.958225
 31
0.0
  0
LINE
  5
33d
100
AcDbEntity
  8
text
 62
7
100
AcDbLine
 10
7.071444
 20
12.958225
 30
0.0
 11
7.270411
 21
12.891550
 31
0.0
  0
LINE
  5
33e
100
AcDbEntity
  8
text
 62
7
100
AcDbLine
 10
7.270411
 20
12.891550
 30
0.0
 11
7.403761
 21
12.891550
 31
0.0
  0
LINE
  5
33f
100
AcDbEntity
  8
text
 62
7
100
AcDbLine
 10
7.403761
 20
12.891550
 30
0.0
 11
7.604845
 21
12.958225
 31
0.0
  0
LINE
  5
340
100
AcDbEntity
  8
text
 62
7
100
AcDbLine
 10
7.604845
 20
12.958225
 30
0.0
 11
7.736079
 21
13.158250
 31
0.0
  0
LINE
  5
341
100
AcDbEntity
  8
text
 62
7
100
AcDbLine
 10
7.736079
 20
13.158250
 30
0.0
 11
7.803812
 21
13.492684
 31
0.0
  0
LINE
  5
342
100
AcDbEntity
  8
text
 62
7
100
AcDbLine
 10
7.803812
 20
13.492684
 30
0.0
 11
7.803812
 21
13.691651
 31
0.0
  0
LINE
  5
343
100
AcDbEntity
  8
text
 62
7
100
AcDbLine
 10
7.803812
 20
13.691651
 30
0.0
 11
7.736079
 21
14.026085
 31
0.0
  0
LINE
  5
344
100
AcDbEntity
  8
text
 62
7
100
AcDbLine
 10
7.736079
 20
14.026085
 30
0.0
 11
7.604845
 21
14.225052
 31
0.0
  0
LINE
  5
345
100
AcDbEntity
  8
text
 62
7
100
AcDbLine
 10
7.604845
 20
14.225052
 30
0.0
 11
7.403761
 21
14.292786
 31
0.0
  0
LINE
  5
346
100
AcDbEntity
  8
text
 62
7
100
AcDbLine
 10
7.403761
 20
14.292786
 30
0.0
 11
7.270411
 21
14.292786
 31
0.0
  0
LINE
  5
347
100
AcDbEntity
  8
text
 62
7
100
AcDbLine
 10
8.070510
 20
14.292786
 30
0.0
 11
8.603911
 21
12.891550
 31
0.0
  0
LINE
  5
348
100
AcDbEntity
  8
text
 62
7
100
AcDbLine
 10
9.137312
 20
14.292786
 30
0.0
 11
8.603911
 21
12.891550
 31
0.0
  0
LINE
  5
349
100
AcDbEntity
  8
text
 62
7
100
AcDbLine
 10
31.915488
 20
14.134535
 30
0.0
 11
31.915488
 21
13.316345
 31
0.0
  0
LINE
  5
34a
100
AcDbEntity
  8
text
 62
7
100
AcDbLine
 10
31.505672
 20
13.726161
 30
0.0
 11
32.325304
 21
13.726161
 31
0.0
  0
LINE
  5
34b
100
AcDbEntity
  8
text
 62
7
100
AcDbLine
 10
31.502528
 20
13.019337
 30
0.0
 11
32.322161
 21
13.019337
 31
0.0
  0
LINE
  5
34c
100
AcDbEntity
  8
text
 62
7
100
AcDbLine
 10
32.671544
 20
14.026085
 30
0.0
 11
32.802778
 21
14.091702
 31
0.0
  0
LINE
  5
34d
100
AcDbEntity
  8
text
 62
7
100
AcDbLine
 10
32.802778
 20
14.091702
 30
0.0
 11
33.003861
 21
14.292786
 31
0.0
  0
LINE
  5
34e
100
AcDbEntity
  8
text
 62
7
100
AcDbLine
 10
33.003861
 20
14.292786
 30
0.0
 11
33.003861
 21
12.891550
 31
0.0
  0
LINE
  5
34f
100
AcDbEntity
  8
text
 62
7
100
AcDbLine
 10
34.204011
 20
14.292786
 30
0.0
 11
34.005044
 21
14.225052
 31
0.0
  0
LINE
  5
350
100
AcDbEntity
  8
text
 62
7
100
AcDbLine
 10
34.005044
 20
14.225052
 30
0.0
 11
33.869577
 21
14.026085
 31
0.0
  0
LINE
  5
351
100
AcDbEntity
  8
text
 62
7
100
AcDbLine
 10
33.869577
 20
14.026085
 30
0.0
 11
33.803961
 21
13.691651
 31
0.0
  0
LINE
  5
352
100
AcDbEntity
  8
text
 62
7
100
AcDbLine
 10
33.803961
 20
13.691651
 30
0.0
 11
33.803961
 21
13.492684
 31
0.0
  0
LINE
  5
353
100
AcDbEntity
  8
text
 62
7
100
AcDbLine
 10
33.803961
 20
13.492684
 30
0.0
 11
33.869577
 21
13.158250
 31
0.0
  0
LINE
  5
354
100
AcDbEntity
  8
text
 62
7
100
AcDbLine
 10
33.869577
 20
13.158250
 30
0.0
 11
34.005044
 21
12.958225
 31
0.0
  0
LINE
  5
355
100
AcDbEntity
  8
text
 62
7
100
AcDbLine
 10
34.005044
 20
12.958225
 30
0.0
 11
34.204011
 21
12.891550
 31
0.0
  0
LINE
  5
356
100
AcDbEntity
  8
text
 62
7
100
AcDbLine
 10
34.204011
 20
12.891550
 30
0.0
 11
34.337361
 21
12.891550
 31
0.0
  0
LINE
  5
357
100
AcDbEntity
  8
text
 62
7
100
AcDbLine
 10
34.337361
 20
12.891550
 30
0.0
 11
34.538445
 21
12.958225
 31
0.0
  0
LINE
  5
358
100
AcDbEntity
  8
text
 62
7
100
AcDbLine
 10
34.538445
 20
12.958225
 30
0.0
 11
34.669679
 21
13.158250
 31
0.0
  0
LINE
  5
359
100
AcDbEntity
  8
text
 62
7
100
AcDbLine
 10
34.669679
 20
13.158250
 30
0.0
 11
34.737412
 21
13.492684
 31
0.0
  0
LINE
  5
35a
100
AcDbEntity
  8
text
 62
7
100
AcDbLine
 10
34.737412
 20
13.492684
 30
0.0
 11
34.737412
 21
13.691651
 31
0.0
  0
LINE
  5
35b
100
AcDbEntity
  8
text
 62
7
100
AcDbLine
 10
34.737412
 20
13.691651
 30
0.0
 11
34.669679
 21
14.026085
 31
0.0
  0
LINE
  5
35c
100
AcDbEntity
  8
text
 62
7
100
AcDbLine
 10
34.669679
 20
14.026085
 30
0.0
 11
34.538445
 21
14.225052
 31
0.0
  0
LINE
  5
35d
100
AcDbEntity
  8
text
 62
7
100
AcDbLine
 10
34.538445
 20
14.225052
 30
0.0
 11
34.337361
 21
14.292786
 31
0.0
  0
LINE
  5
35e
100
AcDbEntity
  8
text
 62
7
100
AcDbLine
 10
34.337361
 20
14.292786
 30
0.0
 11
34.204011
 21
14.292786
 31
0.0
  0
LINE
  5
35f
100
AcDbEntity
  8
text
 62
7
100
AcDbLine
 10
35.004110
 20
14.292786
 30
0.0
 11
35.537511
 21
12.891550
 31
0.0
  0
LINE
  5
360
100
AcDbEntity
  8
text
 62
7
100
AcDbLine
 10
36.070912
 20
14.292786
 30
0.0
 11
35.537511
 21
12.891550
 31
0.0
  0
LINE
  5
361
100
AcDbEntity
  8
text
 62
7
100
AcDbLine
 10
16.192254
 20
72.781013
 30
0.0
 11
15.975832
 21
72.707338
 31
0.0
  0
LINE
  5
362
100
AcDbEntity
  8
text
 62
7
100
AcDbLine
 10
15.975832
 20
72.707338
 30
0.0
 11
15.828481
 21
72.490916
 31
0.0
  0
LINE
  5
363
100
AcDbEntity
  8
text
 62
7
100
AcDbLine
 10
15.828481
 20
72.490916
 30
0.0
 11
15.757108
 21
72.127142
 31
0.0
  0
LINE
  5
364
100
AcDbEntity
  8
text
 62
7
100
AcDbLine
 10
15.757108
 20
72.127142
 30
0.0
 11
15.757108
 21
71.910720
 31
0.0
  0
LINE
  5
365
100
AcDbEntity
  8
text
 62
7
100
AcDbLine
 10
15.757108
 20
71.910720
 30
0.0
 11
15.828481
 21
71.546946
 31
0.0
  0
LINE
  5
366
100
AcDbEntity
  8
text
 62
7
100
AcDbLine
 10
15.828481
 20
71.546946
 30
0.0
 11
15.975832
 21
71.329373
 31
0.0
  0
LINE
  5
367
100
AcDbEntity
  8
text
 62
7
100
AcDbLine
 10
15.975832
 20
71.329373
 30
0.0
 11
16.192254
 21
71.256849
 31
0.0
  0
LINE
  5
368
100
AcDbEntity
  8
text
 62
7
100
AcDbLine
 10
16.192254
 20
71.256849
 30
0.0
 11
16.337303
 21
71.256849
 31
0.0
  0
LINE
  5
369
100
AcDbEntity
  8
text
 62
7
100
AcDbLine
 10
16.337303
 20
71.256849
 30
0.0
 11
16.556028
 21
71.329373
 31
0.0
  0
LINE
  5
36a
100
AcDbEntity
  8
text
 62
7
100
AcDbLine
 10
16.556028
 20
71.329373
 30
0.0
 11
16.698774
 21
71.546946
 31
0.0
  0
LINE
  5
36b
100
AcDbEntity
  8
text
 62
7
100
AcDbLine
 10
16.698774
 20
71.546946
 30
0.0
 11
16.772450
 21
71.910720
 31
0.0
  0
LINE
  5
36c
100
AcDbEntity
  8
text
 62
7
100
AcDbLine
 10
16.772450
 20
71.910720
 30
0.0
 11
16.772450
 21
72.127142
 31
0.0
  0
LINE
  5
36d
100
AcDbEntity
  8
text
 62
7
100
AcDbLine
 10
16.772450
 20
72.127142
 30
0.0
 11
16.698774
 21
72.490916
 31
0.0
  0
LINE
  5
36e
100
AcDbEntity
  8
text
 62
7
100
AcDbLine
 10
16.698774
 20
72.490916
 30
0.0
 11
16.556028
 21
72.707338
 31
0.0
  0
LINE
  5
36f
100
AcDbEntity
  8
text
 62
7
100
AcDbLine
 10
16.556028
 20
72.707338
 30
0.0
 11
16.337303
 21
72.781013
 31
0.0
  0
LINE
  5
370
100
AcDbEntity
  8
text
 62
7
100
AcDbLine
 10
16.337303
 20
72.781013
 30
0.0
 11
16.192254
 21
72.781013
 31
0.0
  0
LINE
  5
371
100
AcDbEntity
  8
text
 62
7
100
AcDbLine
 10
13.269184
 20
75.129281
 30
0.0
 11
13.411931
 21
75.200655
 31
0.0
  0
LINE
  5
372
100
AcDbEntity
  8
text
 62
7
100
AcDbLine
 10
13.411931
 20
75.200655
 30
0.0
 11
13.630655
 21
75.419379
 31
0.0
  0
LINE
  5
373
100
AcDbEntity
  8
text
 62
7
100
AcDbLine
 10
13.630655
 20
75.419379
 30
0.0
 11
13.630655
 21
73.895214
 31
0.0
  0
LINE
  5
374
100
AcDbEntity
  8
text
 62
7
100
AcDbLine
 10
11.801630
 20
78.598526
 30
0.0
 11
11.801630
 21
78.672202
 31
0.0
  0
LINE
  5
375
100
AcDbEntity
  8
text
 62
7
100
AcDbLine
 10
11.801630
 20
78.672202
 30
0.0
 11
11.875306
 21
78.814948
 31
0.0
  0
LINE
  5
376
100
AcDbEntity
  8
text
 62
7
100
AcDbLine
 10
11.875306
 20
78.814948
 30
0.0
 11
11.948981
 21
78.888624
 31
0.0
  0
LINE
  5
377
100
AcDbEntity
  8
text
 62
7
100
AcDbLine
 10
11.948981
 20
78.888624
 30
0.0
 11
12.091728
 21
78.962300
 31
0.0
  0
LINE
  5
378
100
AcDbEntity
  8
text
 62
7
100
AcDbLine
 10
12.091728
 20
78.962300
 30
0.0
 11
12.381826
 21
78.962300
 31
0.0
  0
LINE
  5
379
100
AcDbEntity
  8
text
 62
7
100
AcDbLine
 10
12.381826
 20
78.962300
 30
0.0
 11
12.529177
 21
78.888624
 31
0.0
  0
LINE
  5
37a
100
AcDbEntity
  8
text
 62
7
100
AcDbLine
 10
12.529177
 20
78.888624
 30
0.0
 11
12.600550
 21
78.814948
 31
0.0
  0
LINE
  5
37b
100
AcDbEntity
  8
text
 62
7
100
AcDbLine
 10
12.600550
 20
78.814948
 30
0.0
 11
12.671924
 21
78.672202
 31
0.0
  0
LINE
  5
37c
100
AcDbEntity
  8
text
 62
7
100
AcDbLine
 10
12.671924
 20
78.672202
 30
0.0
 11
12.671924
 21
78.524851
 31
0.0
  0
LINE
  5
37d
100
AcDbEntity
  8
text
 62
7
100
AcDbLine
 10
12.671924
 20
78.524851
 30
0.0
 11
12.600550
 21
78.382104
 31
0.0
  0
LINE
  5
37e
100
AcDbEntity
  8
text
 62
7
100
AcDbLine
 10
12.600550
 20
78.382104
 30
0.0
 11
12.455502
 21
78.163379
 31
0.0
  0
LINE
  5
37f
100
AcDbEntity
  8
text
 62
7
100
AcDbLine
 10
12.455502
 20
78.163379
 30
0.0
 11
11.730257
 21
77.438135
 31
0.0
  0
LINE
  5
380
100
AcDbEntity
  8
text
 62
7
100
AcDbLine
 10
11.730257
 20
77.438135
 30
0.0
 11
12.745599
 21
77.438135
 31
0.0
  0
LINE
  5
381
100
AcDbEntity
  8
text
 62
7
100
AcDbLine
 10
12.346754
 20
82.735193
 30
0.0
 11
13.143372
 21
82.735193
 31
0.0
  0
LINE
  5
382
100
AcDbEntity
  8
text
 62
7
100
AcDbLine
 10
13.143372
 20
82.735193
 30
0.0
 11
12.710528
 21
82.154997
 31
0.0
  0
LINE
  5
383
100
AcDbEntity
  8
text
 62
7
100
AcDbLine
 10
12.710528
 20
82.154997
 30
0.0
 11
12.926950
 21
82.154997
 31
0.0
  0
LINE
  5
384
100
AcDbEntity
  8
text
 62
7
100
AcDbLine
 10
12.926950
 20
82.154997
 30
0.0
 11
13.071999
 21
82.081322
 31
0.0
  0
LINE
  5
385
100
AcDbEntity
  8
text
 62
7
100
AcDbLine
 10
13.071999
 20
82.081322
 30
0.0
 11
13.143372
 21
82.007646
 31
0.0
  0
LINE
  5
386
100
AcDbEntity
  8
text
 62
7
100
AcDbLine
 10
13.143372
 20
82.007646
 30
0.0
 11
13.217048
 21
81.791224
 31
0.0
  0
LINE
  5
387
100
AcDbEntity
  8
text
 62
7
100
AcDbLine
 10
13.217048
 20
81.791224
 30
0.0
 11
13.217048
 21
81.646175
 31
0.0
  0
LINE
  5
388
100
AcDbEntity
  8
text
 62
7
100
AcDbLine
 10
13.217048
 20
81.646175
 30
0.0
 11
13.143372
 21
81.428602
 31
0.0
  0
LINE
  5
389
100
AcDbEntity
  8
text
 62
7
100
AcDbLine
 10
13.143372
 20
81.428602
 30
0.0
 11
13.000626
 21
81.283553
 31
0.0
  0
LINE
  5
38a
100
AcDbEntity
  8
text
 62
7
100
AcDbLine
 10
13.000626
 20
81.283553
 30
0.0
 11
12.781901
 21
81.211028
 31
0.0
  0
LINE
  5
38b
100
AcDbEntity
  8
text
 62
7
100
AcDbLine
 10
12.781901
 20
81.211028
 30
0.0
 11
12.563177
 21
81.211028
 31
0.0
  0
LINE
  5
38c
100
AcDbEntity
  8
text
 62
7
100
AcDbLine
 10
12.563177
 20
81.211028
 30
0.0
 11
12.346754
 21
81.283553
 31
0.0
  0
LINE
  5
38d
100
AcDbEntity
  8
text
 62
7
100
AcDbLine
 10
12.346754
 20
81.283553
 30
0.0
 11
12.273079
 21
81.356077
 31
0.0
  0
LINE
  5
38e
100
AcDbEntity
  8
text
 62
7
100
AcDbLine
 10
12.273079
 20
81.356077
 30
0.0
 11
12.201705
 21
81.501126
 31
0.0
  0
LINE
  5
38f
100
AcDbEntity
  8
text
 62
7
100
AcDbLine
 10
15.003477
 20
85.922100
 30
0.0
 11
14.278233
 21
84.904455
 31
0.0
  0
LINE
  5
390
100
AcDbEntity
  8
text
 62
7
100
AcDbLine
 10
14.278233
 20
84.904455
 30
0.0
 11
15.367251
 21
84.904455
 31
0.0
  0
LINE
  5
391
100
AcDbEntity
  8
text
 62
7
100
AcDbLine
 10
15.003477
 20
85.922100
 30
0.0
 11
15.003477
 21
84.397935
 31
0.0
  0
LINE
  5
392
100
AcDbEntity
  8
text
 62
7
100
AcDbLine
 10
18.529837
 20
87.679814
 30
0.0
 11
17.804593
 21
87.679814
 31
0.0
  0
LINE
  5
393
100
AcDbEntity
  8
text
 62
7
100
AcDbLine
 10
17.804593
 20
87.679814
 30
0.0
 11
17.730917
 21
87.025943
 31
0.0
  0
LINE
  5
394
100
AcDbEntity
  8
text
 62
7
100
AcDbLine
 10
17.730917
 20
87.025943
 30
0.0
 11
17.804593
 21
87.099619
 31
0.0
  0
LINE
  5
395
100
AcDbEntity
  8
text
 62
7
100
AcDbLine
 10
17.804593
 20
87.099619
 30
0.0
 11
18.021015
 21
87.170992
 31
0.0
  0
LINE
  5
396
100
AcDbEntity
  8
text
 62
7
100
AcDbLine
 10
18.021015
 20
87.170992
 30
0.0
 11
18.239739
 21
87.170992
 31
0.0
  0
LINE
  5
397
100
AcDbEntity
  8
text
 62
7
100
AcDbLine
 10
18.239739
 20
87.170992
 30
0.0
 11
18.458464
 21
87.099619
 31
0.0
  0
LINE
  5
398
100
AcDbEntity
  8
text
 62
7
100
AcDbLine
 10
18.458464
 20
87.099619
 30
0.0
 11
18.601211
 21
86.952267
 31
0.0
  0
LINE
  5
399
100
AcDbEntity
  8
text
 62
7
100
AcDbLine
 10
18.601211
 20
86.952267
 30
0.0
 11
18.674886
 21
86.735845
 31
0.0
  0
LINE
  5
39a
100
AcDbEntity
  8
text
 62
7
100
AcDbLine
 10
18.674886
 20
86.735845
 30
0.0
 11
18.674886
 21
86.590796
 31
0.0
  0
LINE
  5
39b
100
AcDbEntity
  8
text
 62
7
100
AcDbLine
 10
18.674886
 20
86.590796
 30
0.0
 11
18.601211
 21
86.373223
 31
0.0
  0
LINE
  5
39c
100
AcDbEntity
  8
text
 62
7
100
AcDbLine
 10
18.601211
 20
86.373223
 30
0.0
 11
18.458464
 21
86.228174
 31
0.0
  0
LINE
  5
39d
100
AcDbEntity
  8
text
 62
7
100
AcDbLine
 10
18.458464
 20
86.228174
 30
0.0
 11
18.239739
 21
86.155649
 31
0.0
  0
LINE
  5
39e
100
AcDbEntity
  8
text
 62
7
100
AcDbLine
 10
18.239739
 20
86.155649
 30
0.0
 11
18.021015
 21
86.155649
 31
0.0
  0
LINE
  5
39f
100
AcDbEntity
  8
text
 62
7
100
AcDbLine
 10
18.021015
 20
86.155649
 30
0.0
 11
17.804593
 21
86.228174
 31
0.0
  0
LINE
  5
3a0
100
AcDbEntity
  8
text
 62
7
100
AcDbLine
 10
17.804593
 20
86.228174
 30
0.0
 11
17.730917
 21
86.300698
 31
0.0
  0
LINE
  5
3a1
100
AcDbEntity
  8
text
 62
7
100
AcDbLine
 10
17.730917
 20
86.300698
 30
0.0
 11
17.659544
 21
86.445747
 31
0.0
  0
LINE
  5
3a2
100
AcDbEntity
  8
text
 62
7
100
AcDbLine
 10
22.839189
 20
87.472021
 30
0.0
 11
22.767816
 21
87.617070
 31
0.0
  0
LINE
  5
3a3
100
AcDbEntity
  8
text
 62
7
100
AcDbLine
 10
22.767816
 20
87.617070
 30
0.0
 11
22.549091
 21
87.690746
 31
0.0
  0
LINE
  5
3a4
100
AcDbEntity
  8
text
 62
7
100
AcDbLine
 10
22.549091
 20
87.690746
 30
0.0
 11
22.406345
 21
87.690746
 31
0.0
  0
LINE
  5
3a5
100
AcDbEntity
  8
text
 62
7
100
AcDbLine
 10
22.406345
 20
87.690746
 30
0.0
 11
22.187620
 21
87.617070
 31
0.0
  0
LINE
  5
3a6
100
AcDbEntity
  8
text
 62
7
100
AcDbLine
 10
22.187620
 20
87.617070
 30
0.0
 11
22.042571
 21
87.400648
 31
0.0
  0
LINE
  5
3a7
100
AcDbEntity
  8
text
 62
7
100
AcDbLine
 10
22.042571
 20
87.400648
 30
0.0
 11
21.968896
 21
87.036875
 31
0.0
  0
LINE
  5
3a8
100
AcDbEntity
  8
text
 62
7
100
AcDbLine
 10
21.968896
 20
87.036875
 30
0.0
 11
21.968896
 21
86.673101
 31
0.0
  0
LINE
  5
3a9
100
AcDbEntity
  8
text
 62
7
100
AcDbLine
 10
21.968896
 20
86.673101
 30
0.0
 11
22.042571
 21
86.384154
 31
0.0
  0
LINE
  5
3aa
100
AcDbEntity
  8
text
 62
7
100
AcDbLine
 10
22.042571
 20
86.384154
 30
0.0
 11
22.187620
 21
86.239105
 31
0.0
  0
LINE
  5
3ab
100
AcDbEntity
  8
text
 62
7
100
AcDbLine
 10
22.187620
 20
86.239105
 30
0.0
 11
22.406345
 21
86.166581
 31
0.0
  0
LINE
  5
3ac
100
AcDbEntity
  8
text
 62
7
100
AcDbLine
 10
22.406345
 20
86.166581
 30
0.0
 11
22.477718
 21
86.166581
 31
0.0
  0
LINE
  5
3ad
100
AcDbEntity
  8
text
 62
7
100
AcDbLine
 10
22.477718
 20
86.166581
 30
0.0
 11
22.696443
 21
86.239105
 31
0.0
  0
LINE
  5
3ae
100
AcDbEntity
  8
text
 62
7
100
AcDbLine
 10
22.696443
 20
86.239105
 30
0.0
 11
22.839189
 21
86.384154
 31
0.0
  0
LINE
  5
3af
100
AcDbEntity
  8
text
 62
7
100
AcDbLine
 10
22.839189
 20
86.384154
 30
0.0
 11
22.912865
 21
86.601728
 31
0.0
  0
LINE
  5
3b0
100
AcDbEntity
  8
text
 62
7
100
AcDbLine
 10
22.912865
 20
86.601728
 30
0.0
 11
22.912865
 21
86.673101
 31
0.0
  0
LINE
  5
3b1
100
AcDbEntity
  8
text
 62
7
100
AcDbLine
 10
22.912865
 20
86.673101
 30
0.0
 11
22.839189
 21
86.891826
 31
0.0
  0
LINE
  5
3b2
100
AcDbEntity
  8
text
 62
7
100
AcDbLine
 10
22.839189
 20
86.891826
 30
0.0
 11
22.696443
 21
87.036875
 31
0.0
  0
LINE
  5
3b3
100
AcDbEntity
  8
text
 62
7
100
AcDbLine
 10
22.696443
 20
87.036875
 30
0.0
 11
22.477718
 21
87.110550
 31
0.0
  0
LINE
  5
3b4
100
AcDbEntity
  8
text
 62
7
100
AcDbLine
 10
22.477718
 20
87.110550
 30
0.0
 11
22.406345
 21
87.110550
 31
0.0
  0
LINE
  5
3b5
100
AcDbEntity
  8
text
 62
7
100
AcDbLine
 10
22.406345
 20
87.110550
 30
0.0
 11
22.187620
 21
87.036875
 31
0.0
  0
LINE
  5
3b6
100
AcDbEntity
  8
text
 62
7
100
AcDbLine
 10
22.187620
 20
87.036875
 30
0.0
 11
22.042571
 21
86.891826
 31
0.0
  0
LINE
  5
3b7
100
AcDbEntity
  8
text
 62
7
100
AcDbLine
 10
22.042571
 20
86.891826
 30
0.0
 11
21.968896
 21
86.673101
 31
0.0
  0
LINE
  5
3b8
100
AcDbEntity
  8
text
 62
7
100
AcDbLine
 10
26.270844
 20
85.852758
 30
0.0
 11
25.545600
 21
84.328593
 31
0.0
  0
LINE
  5
3b9
100
AcDbEntity
  8
text
 62
7
100
AcDbLine
 10
25.255502
 20
85.852758
 30
0.0
 11
26.270844
 21
85.852758
 31
0.0
  0
LINE
  5
3ba
100
AcDbEntity
  8
text
 62
7
100
AcDbLine
 10
27.770430
 20
82.726627
 30
0.0
 11
27.554008
 21
82.652952
 31
0.0
  0
LINE
  5
3bb
100
AcDbEntity
  8
text
 62
7
100
AcDbLine
 10
27.554008
 20
82.652952
 30
0.0
 11
27.480332
 21
82.507903
 31
0.0
  0
LINE
  5
3bc
100
AcDbEntity
  8
text
 62
7
100
AcDbLine
 10
27.480332
 20
82.507903
 30
0.0
 11
27.480332
 21
82.362854
 31
0.0
  0
LINE
  5
3bd
100
AcDbEntity
  8
text
 62
7
100
AcDbLine
 10
27.480332
 20
82.362854
 30
0.0
 11
27.554008
 21
82.217805
 31
0.0
  0
LINE
  5
3be
100
AcDbEntity
  8
text
 62
7
100
AcDbLine
 10
27.554008
 20
82.217805
 30
0.0
 11
27.699056
 21
82.146432
 31
0.0
  0
LINE
  5
3bf
100
AcDbEntity
  8
text
 62
7
100
AcDbLine
 10
27.699056
 20
82.146432
 30
0.0
 11
27.989154
 21
82.072756
 31
0.0
  0
LINE
  5
3c0
100
AcDbEntity
  8
text
 62
7
100
AcDbLine
 10
27.989154
 20
82.072756
 30
0.0
 11
28.207879
 21
81.999080
 31
0.0
  0
LINE
  5
3c1
100
AcDbEntity
  8
text
 62
7
100
AcDbLine
 10
28.207879
 20
81.999080
 30
0.0
 11
28.350625
 21
81.856334
 31
0.0
  0
LINE
  5
3c2
100
AcDbEntity
  8
text
 62
7
100
AcDbLine
 10
28.350625
 20
81.856334
 30
0.0
 11
28.424301
 21
81.708982
 31
0.0
  0
LINE
  5
3c3
100
AcDbEntity
  8
text
 62
7
100
AcDbLine
 10
28.424301
 20
81.708982
 30
0.0
 11
28.424301
 21
81.492560
 31
0.0
  0
LINE
  5
3c4
100
AcDbEntity
  8
text
 62
7
100
AcDbLine
 10
28.424301
 20
81.492560
 30
0.0
 11
28.350625
 21
81.347511
 31
0.0
  0
LINE
  5
3c5
100
AcDbEntity
  8
text
 62
7
100
AcDbLine
 10
28.350625
 20
81.347511
 30
0.0
 11
28.279252
 21
81.274987
 31
0.0
  0
LINE
  5
3c6
100
AcDbEntity
  8
text
 62
7
100
AcDbLine
 10
28.279252
 20
81.274987
 30
0.0
 11
28.060528
 21
81.202462
 31
0.0
  0
LINE
  5
3c7
100
AcDbEntity
  8
text
 62
7
100
AcDbLine
 10
28.060528
 20
81.202462
 30
0.0
 11
27.770430
 21
81.202462
 31
0.0
  0
LINE
  5
3c8
100
AcDbEntity
  8
text
 62
7
100
AcDbLine
 10
27.770430
 20
81.202462
 30
0.0
 11
27.554008
 21
81.274987
 31
0.0
  0
LINE
  5
3c9
100
AcDbEntity
  8
text
 62
7
100
AcDbLine
 10
27.554008
 20
81.274987
 30
0.0
 11
27.480332
 21
81.347511
 31
0.0
  0
LINE
  5
3ca
100
AcDbEntity
  8
text
 62
7
100
AcDbLine
 10
27.480332
 20
81.347511
 30
0.0
 11
27.408959
 21
81.492560
 31
0.0
  0
LINE
  5
3cb
100
AcDbEntity
  8
text
 62
7
100
AcDbLine
 10
27.408959
 20
81.492560
 30
0.0
 11
27.408959
 21
81.708982
 31
0.0
  0
LINE
  5
3cc
100
AcDbEntity
  8
text
 62
7
100
AcDbLine
 10
27.408959
 20
81.708982
 30
0.0
 11
27.480332
 21
81.856334
 31
0.0
  0
LINE
  5
3cd
100
AcDbEntity
  8
text
 62
7
100
AcDbLine
 10
27.480332
 20
81.856334
 30
0.0
 11
27.627683
 21
81.999080
 31
0.0
  0
LINE
  5
3ce
100
AcDbEntity
  8
text
 62
7
100
AcDbLine
 10
27.627683
 20
81.999080
 30
0.0
 11
27.844105
 21
82.072756
 31
0.0
  0
LINE
  5
3cf
100
AcDbEntity
  8
text
 62
7
100
AcDbLine
 10
27.844105
 20
82.072756
 30
0.0
 11
28.134203
 21
82.146432
 31
0.0
  0
LINE
  5
3d0
100
AcDbEntity
  8
text
 62
7
100
AcDbLine
 10
28.134203
 20
82.146432
 30
0.0
 11
28.279252
 21
82.217805
 31
0.0
  0
LINE
  5
3d1
100
AcDbEntity
  8
text
 62
7
100
AcDbLine
 10
28.279252
 20
82.217805
 30
0.0
 11
28.350625
 21
82.362854
 31
0.0
  0
LINE
  5
3d2
100
AcDbEntity
  8
text
 62
7
100
AcDbLine
 10
28.350625
 20
82.362854
 30
0.0
 11
28.350625
 21
82.507903
 31
0.0
  0
LINE
  5
3d3
100
AcDbEntity
  8
text
 62
7
100
AcDbLine
 10
28.350625
 20
82.507903
 30
0.0
 11
28.279252
 21
82.652952
 31
0.0
  0
LINE
  5
3d4
100
AcDbEntity
  8
text
 62
7
100
AcDbLine
 10
28.279252
 20
82.652952
 30
0.0
 11
28.060528
 21
82.726627
 31
0.0
  0
LINE
  5
3d5
100
AcDbEntity
  8
text
 62
7
100
AcDbLine
 10
28.060528
 20
82.726627
 30
0.0
 11
27.770430
 21
82.726627
 31
0.0
  0
LINE
  5
3d6
100
AcDbEntity
  8
text
 62
7
100
AcDbLine
 10
28.909609
 20
78.463348
 30
0.0
 11
28.838236
 21
78.244624
 31
0.0
  0
LINE
  5
3d7
100
AcDbEntity
  8
text
 62
7
100
AcDbLine
 10
28.838236
 20
78.244624
 30
0.0
 11
28.693187
 21
78.101877
 31
0.0
  0
LINE
  5
3d8
100
AcDbEntity
  8
text
 62
7
100
AcDbLine
 10
28.693187
 20
78.101877
 30
0.0
 11
28.476764
 21
78.028202
 31
0.0
  0
LINE
  5
3d9
100
AcDbEntity
  8
text
 62
7
100
AcDbLine
 10
28.476764
 20
78.028202
 30
0.0
 11
28.403089
 21
78.028202
 31
0.0
  0
LINE
  5
3da
100
AcDbEntity
  8
text
 62
7
100
AcDbLine
 10
28.403089
 20
78.028202
 30
0.0
 11
28.186667
 21
78.101877
 31
0.0
  0
LINE
  5
3db
100
AcDbEntity
  8
text
 62
7
100
AcDbLine
 10
28.186667
 20
78.101877
 30
0.0
 11
28.039315
 21
78.244624
 31
0.0
  0
LINE
  5
3dc
100
AcDbEntity
  8
text
 62
7
100
AcDbLine
 10
28.039315
 20
78.244624
 30
0.0
 11
27.967942
 21
78.463348
 31
0.0
  0
LINE
  5
3dd
100
AcDbEntity
  8
text
 62
7
100
AcDbLine
 10
27.967942
 20
78.463348
 30
0.0
 11
27.967942
 21
78.534722
 31
0.0
  0
LINE
  5
3de
100
AcDbEntity
  8
text
 62
7
100
AcDbLine
 10
27.967942
 20
78.534722
 30
0.0
 11
28.039315
 21
78.753446
 31
0.0
  0
LINE
  5
3df
100
AcDbEntity
  8
text
 62
7
100
AcDbLine
 10
28.039315
 20
78.753446
 30
0.0
 11
28.186667
 21
78.898495
 31
0.0
  0
LINE
  5
3e0
100
AcDbEntity
  8
text
 62
7
100
AcDbLine
 10
28.186667
 20
78.898495
 30
0.0
 11
28.403089
 21
78.972171
 31
0.0
  0
LINE
  5
3e1
100
AcDbEntity
  8
text
 62
7
100
AcDbLine
 10
28.403089
 20
78.972171
 30
0.0
 11
28.476764
 21
78.972171
 31
0.0
  0
LINE
  5
3e2
100
AcDbEntity
  8
text
 62
7
100
AcDbLine
 10
28.476764
 20
78.972171
 30
0.0
 11
28.693187
 21
78.898495
 31
0.0
  0
LINE
  5
3e3
100
AcDbEntity
  8
text
 62
7
100
AcDbLine
 10
28.693187
 20
78.898495
 30
0.0
 11
28.838236
 21
78.753446
 31
0.0
  0
LINE
  5
3e4
100
AcDbEntity
  8
text
 62
7
100
AcDbLine
 10
28.838236
 20
78.753446
 30
0.0
 11
28.909609
 21
78.463348
 31
0.0
  0
LINE
  5
3e5
100
AcDbEntity
  8
text
 62
7
100
AcDbLine
 10
28.909609
 20
78.463348
 30
0.0
 11
28.909609
 21
78.101877
 31
0.0
  0
LINE
  5
3e6
100
AcDbEntity
  8
text
 62
7
100
AcDbLine
 10
28.909609
 20
78.101877
 30
0.0
 11
28.838236
 21
77.738104
 31
0.0
  0
LINE
  5
3e7
100
AcDbEntity
  8
text
 62
7
100
AcDbLine
 10
28.838236
 20
77.738104
 30
0.0
 11
28.693187
 21
77.520530
 31
0.0
  0
LINE
  5
3e8
100
AcDbEntity
  8
text
 62
7
100
AcDbLine
 10
28.693187
 20
77.520530
 30
0.0
 11
28.476764
 21
77.448006
 31
0.0
  0
LINE
  5
3e9
100
AcDbEntity
  8
text
 62
7
100
AcDbLine
 10
28.476764
 20
77.448006
 30
0.0
 11
28.329413
 21
77.448006
 31
0.0
  0
LINE
  5
3ea
100
AcDbEntity
  8
text
 62
7
100
AcDbLine
 10
28.329413
 20
77.448006
 30
0.0
 11
28.112991
 21
77.520530
 31
0.0
  0
LINE
  5
3eb
100
AcDbEntity
  8
text
 62
7
100
AcDbLine
 10
28.112991
 20
77.520530
 30
0.0
 11
28.039315
 21
77.665579
 31
0.0
  0
LINE
  5
3ec
100
AcDbEntity
  8
text
 62
7
100
AcDbLine
 10
26.016976
 20
75.039952
 30
0.0
 11
26.159722
 21
75.111325
 31
0.0
  0
LINE
  5
3ed
100
AcDbEntity
  8
text
 62
7
100
AcDbLine
 10
26.159722
 20
75.111325
 30
0.0
 11
26.378447
 21
75.330050
 31
0.0
  0
LINE
  5
3ee
100
AcDbEntity
  8
text
 62
7
100
AcDbLine
 10
26.378447
 20
75.330050
 30
0.0
 11
26.378447
 21
73.805885
 31
0.0
  0
LINE
  5
3ef
100
AcDbEntity
  8
text
 62
7
100
AcDbLine
 10
27.683883
 20
75.330050
 30
0.0
 11
27.467461
 21
75.256374
 31
0.0
  0
LINE
  5
3f0
100
AcDbEntity
  8
text
 62
7
100
AcDbLine
 10
27.467461
 20
75.256374
 30
0.0
 11
27.320110
 21
75.039952
 31
0.0
  0
LINE
  5
3f1
100
AcDbEntity
  8
text
 62
7
100
AcDbLine
 10
27.320110
 20
75.039952
 30
0.0
 11
27.248736
 21
74.676178
 31
0.0
  0
LINE
  5
3f2
100
AcDbEntity
  8
text
 62
7
100
AcDbLine
 10
27.248736
 20
74.676178
 30
0.0
 11
27.248736
 21
74.459756
 31
0.0
  0
LINE
  5
3f3
100
AcDbEntity
  8
text
 62
7
100
AcDbLine
 10
27.248736
 20
74.459756
 30
0.0
 11
27.320110
 21
74.095983
 31
0.0
  0
LINE
  5
3f4
100
AcDbEntity
  8
text
 62
7
100
AcDbLine
 10
27.320110
 20
74.095983
 30
0.0
 11
27.467461
 21
73.878409
 31
0.0
  0
LINE
  5
3f5
100
AcDbEntity
  8
text
 62
7
100
AcDbLine
 10
27.467461
 20
73.878409
 30
0.0
 11
27.683883
 21
73.805885
 31
0.0
  0
LINE
  5
3f6
100
AcDbEntity
  8
text
 62
7
100
AcDbLine
 10
27.683883
 20
73.805885
 30
0.0
 11
27.828932
 21
73.805885
 31
0.0
  0
LINE
  5
3f7
100
AcDbEntity
  8
text
 62
7
100
AcDbLine
 10
27.828932
 20
73.805885
 30
0.0
 11
28.047657
 21
73.878409
 31
0.0
  0
LINE
  5
3f8
100
AcDbEntity
  8
text
 62
7
100
AcDbLine
 10
28.047657
 20
73.878409
 30
0.0
 11
28.190403
 21
74.095983
 31
0.0
  0
LINE
  5
3f9
100
AcDbEntity
  8
text
 62
7
100
AcDbLine
 10
28.190403
 20
74.095983
 30
0.0
 11
28.264079
 21
74.459756
 31
0.0
  0
LINE
  5
3fa
100
AcDbEntity
  8
text
 62
7
100
AcDbLine
 10
28.264079
 20
74.459756
 30
0.0
 11
28.264079
 21
74.676178
 31
0.0
  0
LINE
  5
3fb
100
AcDbEntity
  8
text
 62
7
100
AcDbLine
 10
28.264079
 20
74.676178
 30
0.0
 11
28.190403
 21
75.039952
 31
0.0
  0
LINE
  5
3fc
100
AcDbEntity
  8
text
 62
7
100
AcDbLine
 10
28.190403
 20
75.039952
 30
0.0
 11
28.047657
 21
75.256374
 31
0.0
  0
LINE
  5
3fd
100
AcDbEntity
  8
text
 62
7
100
AcDbLine
 10
28.047657
 20
75.256374
 30
0.0
 11
27.828932
 21
75.330050
 31
0.0
  0
LINE
  5
3fe
100
AcDbEntity
  8
text
 62
7
100
AcDbLine
 10
27.828932
 20
75.330050
 30
0.0
 11
27.683883
 21
75.330050
 31
0.0
  0
LINE
  5
3ff
100
AcDbEntity
  8
text
 62
7
100
AcDbLine
 10
23.521782
 20
72.471337
 30
0.0
 11
23.664528
 21
72.542710
 31
0.0
  0
LINE
  5
400
100
AcDbEntity
  8
text
 62
7
100
AcDbLine
 10
23.664528
 20
72.542710
 30
0.0
 11
23.883253
 21
72.761434
 31
0.0
  0
LINE
  5
401
100
AcDbEntity
  8
text
 62
7
100
AcDbLine
 10
23.883253
 20
72.761434
 30
0.0
 11
23.883253
 21
71.237269
 31
0.0
  0
LINE
  5
402
100
AcDbEntity
  8
text
 62
7
100
AcDbLine
 10
24.972267
 20
72.471337
 30
0.0
 11
25.115014
 21
72.542710
 31
0.0
  0
LINE
  5
403
100
AcDbEntity
  8
text
 62
7
100
AcDbLine
 10
25.115014
 20
72.542710
 30
0.0
 11
25.333738
 21
72.761434
 31
0.0
  0
LINE
  5
404
100
AcDbEntity
  8
text
 62
7
100
AcDbLine
 10
25.333738
 20
72.761434
 30
0.0
 11
25.333738
 21
71.237269
 31
0.0
  0
LINE
  5
405
100
AcDbEntity
  8
text
 62
7
100
AcDbLine
 10
16.192254
 20
92.765443
 30
0.0
 11
15.975832
 21
92.691768
 31
0.0
  0
LINE
  5
406
100
AcDbEntity
  8
text
 62
7
100
AcDbLine
 10
15.975832
 20
92.691768
 30
0.0
 11
15.828481
 21
92.475346
 31
0.0
  0
LINE
  5
407
100
AcDbEntity
  8
text
 62
7
100
AcDbLine
 10
15.828481
 20
92.475346
 30
0.0
 11
15.757108
 21
92.111572
 31
0.0
  0
LINE
  5
408
100
AcDbEntity
  8
text
 62
7
100
AcDbLine
 10
15.757108
 20
92.111572
 30
0.0
 11
15.757108
 21
91.895150
 31
0.0
  0
LINE
  5
409
100
AcDbEntity
  8
text
 62
7
100
AcDbLine
 10
15.757108
 20
91.895150
 30
0.0
 11
15.828481
 21
91.531376
 31
0.0
  0
LINE
  5
40a
100
AcDbEntity
  8
text
 62
7
100
AcDbLine
 10
15.828481
 20
91.531376
 30
0.0
 11
15.975832
 21
91.313803
 31
0.0
  0
LINE
  5
40b
100
AcDbEntity
  8
text
 62
7
100
AcDbLine
 10
15.975832
 20
91.313803
 30
0.0
 11
16.192254
 21
91.241279
 31
0.0
  0
LINE
  5
40c
100
AcDbEntity
  8
text
 62
7
100
AcDbLine
 10
16.192254
 20
91.241279
 30
0.0
 11
16.337303
 21
91.241279
 31
0.0
  0
LINE
  5
40d
100
AcDbEntity
  8
text
 62
7
100
AcDbLine
 10
16.337303
 20
91.241279
 30
0.0
 11
16.556028
 21
91.313803
 31
0.0
  0
LINE
  5
40e
100
AcDbEntity
  8
text
 62
7
100
AcDbLine
 10
16.556028
 20
91.313803
 30
0.0
 11
16.698774
 21
91.531376
 31
0.0
  0
LINE
  5
40f
100
AcDbEntity
  8
text
 62
7
100
AcDbLine
 10
16.698774
 20
91.531376
 30
0.0
 11
16.772450
 21
91.895150
 31
0.0
  0
LINE
  5
410
100
AcDbEntity
  8
text
 62
7
100
AcDbLine
 10
16.772450
 20
91.895150
 30
0.0
 11
16.772450
 21
92.111572
 31
0.0
  0
LINE
  5
411
100
AcDbEntity
  8
text
 62
7
100
AcDbLine
 10
16.772450
 20
92.111572
 30
0.0
 11
16.698774
 21
92.475346
 31
0.0
  0
LINE
  5
412
100
AcDbEntity
  8
text
 62
7
100
AcDbLine
 10
16.698774
 20
92.475346
 30
0.0
 11
16.556028
 21
92.691768
 31
0.0
  0
LINE
  5
413
100
AcDbEntity
  8
text
 62
7
100
AcDbLine
 10
16.556028
 20
92.691768
 30
0.0
 11
16.337303
 21
92.765443
 31
0.0
  0
LINE
  5
414
100
AcDbEntity
  8
text
 62
7
100
AcDbLine
 10
16.337303
 20
92.765443
 30
0.0
 11
16.192254
 21
92.765443
 31
0.0
  0
LINE
  5
415
100
AcDbEntity
  8
text
 62
7
100
AcDbLine
 10
13.269184
 20
95.113711
 30
0.0
 11
13.411931
 21
95.185085
 31
0.0
  0
LINE
  5
416
100
AcDbEntity
  8
text
 62
7
100
AcDbLine
 10
13.411931
 20
95.185085
 30
0.0
 11
13.630655
 21
95.403809
 31
0.0
  0
LINE
  5
417
100
AcDbEntity
  8
text
 62
7
100
AcDbLine
 10
13.630655
 20
95.403809
 30
0.0
 11
13.630655
 21
93.879644
 31
0.0
  0
LINE
  5
418
100
AcDbEntity
  8
text
 62
7
100
AcDbLine
 10
11.801630
 20
98.582956
 30
0.0
 11
11.801630
 21
98.656632
 31
0.0
  0
LINE
  5
419
100
AcDbEntity
  8
text
 62
7
100
AcDbLine
 10
11.801630
 20
98.656632
 30
0.0
 11
11.875306
 21
98.799378
 31
0.0
  0
LINE
  5
41a
100
AcDbEntity
  8
text
 62
7
100
AcDbLine
 10
11.875306
 20
98.799378
 30
0.0
 11
11.948981
 21
98.873054
 31
0.0
  0
LINE
  5
41b
100
AcDbEntity
  8
text
 62
7
100
AcDbLine
 10
11.948981
 20
98.873054
 30
0.0
 11
12.091728
 21
98.946730
 31
0.0
  0
LINE
  5
41c
100
AcDbEntity
  8
text
 62
7
100
AcDbLine
 10
12.091728
 20
98.946730
 30
0.0
 11
12.381826
 21
98.946730
 31
0.0
  0
LINE
  5
41d
100
AcDbEntity
  8
text
 62
7
100
AcDbLine
 10
12.381826
 20
98.946730
 30
0.0
 11
12.529177
 21
98.873054
 31
0.0
  0
LINE
  5
41e
100
AcDbEntity
  8
text
 62
7
100
AcDbLine
 10
12.529177
 20
98.873054
 30
0.0
 11
12.600550
 21
98.799378
 31
0.0
  0
LINE
  5
41f
100
AcDbEntity
  8
text
 62
7
100
AcDbLine
 10
12.600550
 20
98.799378
 30
0.0
 11
12.671924
 21
98.656632
 31
0.0
  0
LINE
  5
420
100
AcDbEntity
  8
text
 62
7
100
AcDbLine
 10
12.671924
 20
98.656632
 30
0.0
 11
12.671924
 21
98.509281
 31
0.0
  0
LINE
  5
421
100
AcDbEntity
  8
text
 62
7
100
AcDbLine
 10
12.671924
 20
98.509281
 30
0.0
 11
12.600550
 21
98.366534
 31
0.0
  0
LINE
  5
422
100
AcDbEntity
  8
text
 62
7
100
AcDbLine
 10
12.600550
 20
98.366534
 30
0.0
 11
12.455502
 21
98.147809
 31
0.0
  0
LINE
  5
423
100
AcDbEntity
  8
text
 62
7
100
AcDbLine
 10
12.455502
 20
98.147809
 30
0.0
 11
11.730257
 21
97.422565
 31
0.0
  0
LINE
  5
424
100
AcDbEntity
  8
text
 62
7
100
AcDbLine
 10
11.730257
 20
97.422565
 30
0.0
 11
12.745599
 21
97.422565
 31
0.0
  0
LINE
  5
425
100
AcDbEntity
  8
text
 62
7
100
AcDbLine
 10
12.346754
 20
102.719623
 30
0.0
 11
13.143372
 21
102.719623
 31
0.0
  0
LINE
  5
426
100
AcDbEntity
  8
text
 62
7
100
AcDbLine
 10
13.143372
 20
102.719623
 30
0.0
 11
12.710528
 21
102.139427
 31
0.0
  0
LINE
  5
427
100
AcDbEntity
  8
text
 62
7
100
AcDbLine
 10
12.710528
 20
102.139427
 30
0.0
 11
12.926950
 21
102.139427
 31
0.0
  0
LINE
  5
428
100
AcDbEntity
  8
text
 62
7
100
AcDbLine
 10
12.926950
 20
102.139427
 30
0.0
 11
13.071999
 21
102.065752
 31
0.0
  0
LINE
  5
429
100
AcDbEntity
  8
text
 62
7
100
AcDbLine
 10
13.071999
 20
102.065752
 30
0.0
 11
13.143372
 21
101.992076
 31
0.0
  0
LINE
  5
42a
100
AcDbEntity
  8
text
 62
7
100
AcDbLine
 10
13.143372
 20
101.992076
 30
0.0
 11
13.217048
 21
101.775654
 31
0.0
  0
LINE
  5
42b
100
AcDbEntity
  8
text
 62
7
100
AcDbLine
 10
13.217048
 20
101.775654
 30
0.0
 11
13.217048
 21
101.630605
 31
0.0
  0
LINE
  5
42c
100
AcDbEntity
  8
text
 62
7
100
AcDbLine
 10
13.217048
 20
101.630605
 30
0.0
 11
13.143372
 21
101.413032
 31
0.0
  0
LINE
  5
42d
100
AcDbEntity
  8
text
 62
7
100
AcDbLine
 10
13.143372
 20
101.413032
 30
0.0
 11
13.000626
 21
101.267983
 31
0.0
  0
LINE
  5
42e
100
AcDbEntity
  8
text
 62
7
100
AcDbLine
 10
13.000626
 20
101.267983
 30
0.0
 11
12.781901
 21
101.195458
 31
0.0
  0
LINE
  5
42f
100
AcDbEntity
  8
text
 62
7
100
AcDbLine
 10
12.781901
 20
101.195458
 30
0.0
 11
12.563177
 21
101.195458
 31
0.0
  0
LINE
  5
430
100
AcDbEntity
  8
text
 62
7
100
AcDbLine
 10
12.563177
 20
101.195458
 30
0.0
 11
12.346754
 21
101.267983
 31
0.0
  0
LINE
  5
431
100
AcDbEntity
  8
text
 62
7
100
AcDbLine
 10
12.346754
 20
101.267983
 30
0.0
 11
12.273079
 21
101.340507
 31
0.0
  0
LINE
  5
432
100
AcDbEntity
  8
text
 62
7
100
AcDbLine
 10
12.273079
 20
101.340507
 30
0.0
 11
12.201705
 21
101.485556
 31
0.0
  0
LINE
  5
433
100
AcDbEntity
  8
text
 62
7
100
AcDbLine
 10
15.003477
 20
105.906530
 30
0.0
 11
14.278233
 21
104.888885
 31
0.0
  0
LINE
  5
434
100
AcDbEntity
  8
text
 62
7
100
AcDbLine
 10
14.278233
 20
104.888885
 30
0.0
 11
15.367251
 21
104.888885
 31
0.0
  0
LINE
  5
435
100
AcDbEntity
  8
text
 62
7
100
AcDbLine
 10
15.003477
 20
105.906530
 30
0.0
 11
15.003477
 21
104.382365
 31
0.0
  0
LINE
  5
436
100
AcDbEntity
  8
text
 62
7
100
AcDbLine
 10
18.529837
 20
107.664244
 30
0.0
 11
17.804593
 21
107.664244
 31
0.0
  0
LINE
  5
437
100
AcDbEntity
  8
text
 62
7
100
AcDbLine
 10
17.804593
 20
107.664244
 30
0.0
 11
17.730917
 21
107.010373
 31
0.0
  0
LINE
  5
438
100
AcDbEntity
  8
text
 62
7
100
AcDbLine
 10
17.730917
 20
107.010373
 30
0.0
 11
17.804593
 21
107.084049
 31
0.0
  0
LINE
  5
439
100
AcDbEntity
  8
text
 62
7
100
AcDbLine
 10
17.804593
 20
107.084049
 30
0.0
 11
18.021015
 21
107.155422
 31
0.0
  0
LINE
  5
43a
100
AcDbEntity
  8
text
 62
7
100
AcDbLine
 10
18.021015
 20
107.155422
 30
0.0
 11
18.239739
 21
107.155422
 31
0.0
  0
LINE
  5
43b
100
AcDbEntity
  8
text
 62
7
100
AcDbLine
 10
18.239739
 20
107.155422
 30
0.0
 11
18.458464
 21
107.084049
 31
0.0
  0
LINE
  5
43c
100
AcDbEntity
  8
text
 62
7
100
AcDbLine
 10
18.458464
 20
107.084049
 30
0.0
 11
18.601211
 21
106.936697
 31
0.0
  0
LINE
  5
43d
100
AcDbEntity
  8
text
 62
7
100
AcDbLine
 10
18.601211
 20
106.936697
 30
0.0
 11
18.674886
 21
106.720275
 31
0.0
  0
LINE
  5
43e
100
AcDbEntity
  8
text
 62
7
100
AcDbLine
 10
18.674886
 20
106.720275
 30
0.0
 11
18.674886
 21
106.575226
 31
0.0
  0
LINE
  5
43f
100
AcDbEntity
  8
text
 62
7
100
AcDbLine
 10
18.674886
 20
106.575226
 30
0.0
 11
18.601211
 21
106.357653
 31
0.0
  0
LINE
  5
440
100
AcDbEntity
  8
text
 62
7
100
AcDbLine
 10
18.601211
 20
106.357653
 30
0.0
 11
18.458464
 21
106.212604
 31
0.0
  0
LINE
  5
441
100
AcDbEntity
  8
text
 62
7
100
AcDbLine
 10
18.458464
 20
106.212604
 30
0.0
 11
18.239739
 21
106.140079
 31
0.0
  0
LINE
  5
442
100
AcDbEntity
  8
text
 62
7
100
AcDbLine
 10
18.239739
 20
106.140079
 30
0.0
 11
18.021015
 21
106.140079
 31
0.0
  0
LINE
  5
443
100
AcDbEntity
  8
text
 62
7
100
AcDbLine
 10
18.021015
 20
106.140079
 30
0.0
 11
17.804593
 21
106.212604
 31
0.0
  0
LINE
  5
444
100
AcDbEntity
  8
text
 62
7
100
AcDbLine
 10
17.804593
 20
106.212604
 30
0.0
 11
17.730917
 21
106.285128
 31
0.0
  0
LINE
  5
445
100
AcDbEntity
  8
text
 62
7
100
AcDbLine
 10
17.730917
 20
106.285128
 30
0.0
 11
17.659544
 21
106.430177
 31
0.0
  0
LINE
  5
446
100
AcDbEntity
  8
text
 62
7
100
AcDbLine
 10
22.839189
 20
107.456451
 30
0.0
 11
22.767816
 21
107.601500
 31
0.0
  0
LINE
  5
447
100
AcDbEntity
  8
text
 62
7
100
AcDbLine
 10
22.767816
 20
107.601500
 30
0.0
 11
22.549091
 21
107.675176
 31
0.0
  0
LINE
  5
448
100
AcDbEntity
  8
text
 62
7
100
AcDbLine
 10
22.549091
 20
107.675176
 30
0.0
 11
22.406345
 21
107.675176
 31
0.0
  0
LINE
  5
449
100
AcDbEntity
  8
text
 62
7
100
AcDbLine
 10
22.406345
 20
107.675176
 30
0.0
 11
22.187620
 21
107.601500
 31
0.0
  0
LINE
  5
44a
100
AcDbEntity
  8
text
 62
7
100
AcDbLine
 10
22.187620
 20
107.601500
 30
0.0
 11
22.042571
 21
107.385078
 31
0.0
  0
LINE
  5
44b
100
AcDbEntity
  8
text
 62
7
100
AcDbLine
 10
22.042571
 20
107.385078
 30
0.0
 11
21.968896
 21
107.021305
 31
0.0
  0
LINE
  5
44c
100
AcDbEntity
  8
text
 62
7
100
AcDbLine
 10
21.968896
 20
107.021305
 30
0.0
 11
21.968896
 21
106.657531
 31
0.0
  0
LINE
  5
44d
100
AcDbEntity
  8
text
 62
7
100
AcDbLine
 10
21.968896
 20
106.657531
 30
0.0
 11
22.042571
 21
106.368584
 31
0.0
  0
LINE
  5
44e
100
AcDbEntity
  8
text
 62
7
100
AcDbLine
 10
22.042571
 20
106.368584
 30
0.0
 11
22.187620
 21
106.223535
 31
0.0
  0
LINE
  5
44f
100
AcDbEntity
  8
text
 62
7
100
AcDbLine
 10
22.187620
 20
106.223535
 30
0.0
 11
22.406345
 21
106.151011
 31
0.0
  0
LINE
  5
450
100
AcDbEntity
  8
text
 62
7
100
AcDbLine
 10
22.406345
 20
106.151011
 30
0.0
 11
22.477718
 21
106.151011
 31
0.0
  0
LINE
  5
451
100
AcDbEntity
  8
text
 62
7
100
AcDbLine
 10
22.477718
 20
106.151011
 30
0.0
 11
22.696443
 21
106.223535
 31
0.0
  0
LINE
  5
452
100
AcDbEntity
  8
text
 62
7
100
AcDbLine
 10
22.696443
 20
106.223535
 30
0.0
 11
22.839189
 21
106.368584
 31
0.0
  0
LINE
  5
453
100
AcDbEntity
  8
text
 62
7
100
AcDbLine
 10
22.839189
 20
106.368584
 30
0.0
 11
22.912865
 21
106.586158
 31
0.0
  0
LINE
  5
454
100
AcDbEntity
  8
text
 62
7
100
AcDbLine
 10
22.912865
 20
106.586158
 30
0.0
 11
22.912865
 21
106.657531
 31
0.0
  0
LINE
  5
455
100
AcDbEntity
  8
text
 62
7
100
AcDbLine
 10
22.912865
 20
106.657531
 30
0.0
 11
22.839189
 21
106.876256
 31
0.0
  0
LINE
  5
456
100
AcDbEntity
  8
text
 62
7
100
AcDbLine
 10
22.839189
 20
106.876256
 30
0.0
 11
22.696443
 21
107.021305
 31
0.0
  0
LINE
  5
457
100
AcDbEntity
  8
text
 62
7
100
AcDbLine
 10
22.696443
 20
107.021305
 30
0.0
 11
22.477718
 21
107.094980
 31
0.0
  0
LINE
  5
458
100
AcDbEntity
  8
text
 62
7
100
AcDbLine
 10
22.477718
 20
107.094980
 30
0.0
 11
22.406345
 21
107.094980
 31
0.0
  0
LINE
  5
459
100
AcDbEntity
  8
text
 62
7
100
AcDbLine
 10
22.406345
 20
107.094980
 30
0.0
 11
22.187620
 21
107.021305
 31
0.0
  0
LINE
  5
45a
100
AcDbEntity
  8
text
 62
7
100
AcDbLine
 10
22.187620
 20
107.021305
 30
0.0
 11
22.042571
 21
106.876256
 31
0.0
  0
LINE
  5
45b
100
AcDbEntity
  8
text
 62
7
100
AcDbLine
 10
22.042571
 20
106.876256
 30
0.0
 11
21.968896
 21
106.657531
 31
0.0
  0
LINE
  5
45c
100
AcDbEntity
  8
text
 62
7
100
AcDbLine
 10
26.270844
 20
105.837188
 30
0.0
 11
25.545600
 21
104.313023
 31
0.0
  0
LINE
  5
45d
100
AcDbEntity
  8
text
 62
7
100
AcDbLine
 10
25.255502
 20
105.837188
 30
0.0
 11
26.270844
 21
105.837188
 31
0.0
  0
LINE
  5
45e
100
AcDbEntity
  8
text
 62
7
100
AcDbLine
 10
27.770430
 20
102.711057
 30
0.0
 11
27.554008
 21
102.637382
 31
0.0
  0
LINE
  5
45f
100
AcDbEntity
  8
text
 62
7
100
AcDbLine
 10
27.554008
 20
102.637382
 30
0.0
 11
27.480332
 21
102.492333
 31
0.0
  0
LINE
  5
460
100
AcDbEntity
  8
text
 62
7
100
AcDbLine
 10
27.480332
 20
102.492333
 30
0.0
 11
27.480332
 21
102.347284
 31
0.0
  0
LINE
  5
461
100
AcDbEntity
  8
text
 62
7
100
AcDbLine
 10
27.480332
 20
102.347284
 30
0.0
 11
27.554008
 21
102.202235
 31
0.0
  0
LINE
  5
462
100
AcDbEntity
  8
text
 62
7
100
AcDbLine
 10
27.554008
 20
102.202235
 30
0.0
 11
27.699056
 21
102.130862
 31
0.0
  0
LINE
  5
463
100
AcDbEntity
  8
text
 62
7
100
AcDbLine
 10
27.699056
 20
102.130862
 30
0.0
 11
27.989154
 21
102.057186
 31
0.0
  0
LINE
  5
464
100
AcDbEntity
  8
text
 62
7
100
AcDbLine
 10
27.989154
 20
102.057186
 30
0.0
 11
28.207879
 21
101.983510
 31
0.0
  0
LINE
  5
465
100
AcDbEntity
  8
text
 62
7
100
AcDbLine
 10
28.207879
 20
101.983510
 30
0.0
 11
28.350625
 21
101.840764
 31
0.0
  0
LINE
  5
466
100
AcDbEntity
  8
text
 62
7
100
AcDbLine
 10
28.350625
 20
101.840764
 30
0.0
 11
28.424301
 21
101.693412
 31
0.0
  0
LINE
  5
467
100
AcDbEntity
  8
text
 62
7
100
AcDbLine
 10
28.424301
 20
101.693412
 30
0.0
 11
28.424301
 21
101.476990
 31
0.0
  0
LINE
  5
468
100
AcDbEntity
  8
text
 62
7
100
AcDbLine
 10
28.424301
 20
101.476990
 30
0.0
 11
28.350625
 21
101.331941
 31
0.0
  0
LINE
  5
469
100
AcDbEntity
  8
text
 62
7
100
AcDbLine
 10
28.350625
 20
101.331941
 30
0.0
 11
28.279252
 21
101.259417
 31
0.0
  0
LINE
  5
46a
100
AcDbEntity
  8
text
 62
7
100
AcDbLine
 10
28.279252
 20
101.259417
 30
0.0
 11
28.060528
 21
101.186892
 31
0.0
  0
LINE
  5
46b
100
AcDbEntity
  8
text
 62
7
100
AcDbLine
 10
28.060528
 20
101.186892
 30
0.0
 11
27.770430
 21
101.186892
 31
0.0
  0
LINE
  5
46c
100
AcDbEntity
  8
text
 62
7
100
AcDbLine
 10
27.770430
 20
101.186892
 30
0.0
 11
27.554008
 21
101.259417
 31
0.0
  0
LINE
  5
46d
100
AcDbEntity
  8
text
 62
7
100
AcDbLine
 10
27.554008
 20
101.259417
 30
0.0
 11
27.480332
 21
101.331941
 31
0.0
  0
LINE
  5
46e
100
AcDbEntity
  8
text
 62
7
100
AcDbLine
 10
27.480332
 20
101.331941
 30
0.0
 11
27.408959
 21
101.476990
 31
0.0
  0
LINE
  5
46f
100
AcDbEntity
  8
text
 62
7
100
AcDbLine
 10
27.408959
 20
101.476990
 30
0.0
 11
27.408959
 21
101.693412
 31
0.0
  0
LINE
  5
470
100
AcDbEntity
  8
text
 62
7
100
AcDbLine
 10
27.408959
 20
101.693412
 30
0.0
 11
27.480332
 21
101.840764
 31
0.0
  0
LINE
  5
471
100
AcDbEntity
  8
text
 62
7
100
AcDbLine
 10
27.480332
 20
101.840764
 30
0.0
 11
27.627683
 21
101.983510
 31
0.0
  0
LINE
  5
472
100
AcDbEntity
  8
text
 62
7
100
AcDbLine
 10
27.627683
 20
101.983510
 30
0.0
 11
27.844105
 21
102.057186
 31
0.0
  0
LINE
  5
473
100
AcDbEntity
  8
text
 62
7
100
AcDbLine
 10
27.844105
 20
102.057186
 30
0.0
 11
28.134203
 21
102.130862
 31
0.0
  0
LINE
  5
474
100
AcDbEntity
  8
text
 62
7
100
AcDbLine
 10
28.134203
 20
102.130862
 30
0.0
 11
28.279252
 21
102.202235
 31
0.0
  0
LINE
  5
475
100
AcDbEntity
  8
text
 62
7
100
AcDbLine
 10
28.279252
 20
102.202235
 30
0.0
 11
28.350625
 21
102.347284
 31
0.0
  0
LINE
  5
476
100
AcDbEntity
  8
text
 62
7
100
AcDbLine
 10
28.350625
 20
102.347284
 30
0.0
 11
28.350625
 21
102.492333
 31
0.0
  0
LINE
  5
477
100
AcDbEntity
  8
text
 62
7
100
AcDbLine
 10
28.350625
 20
102.492333
 30
0.0
 11
28.279252
 21
102.637382
 31
0.0
  0
LINE
  5
478
100
AcDbEntity
  8
text
 62
7
100
AcDbLine
 10
28.279252
 20
102.637382
 30
0.0
 11
28.060528
 21
102.711057
 31
0.0
  0
LINE
  5
479
100
AcDbEntity
  8
text
 62
7
100
AcDbLine
 10
28.060528
 20
102.711057
 30
0.0
 11
27.770430
 21
102.711057
 31
0.0
  0
LINE
  5
47a
100
AcDbEntity
  8
text
 62
7
100
AcDbLine
 10
28.909609
 20
98.447778
 30
0.0
 11
28.838236
 21
98.229054
 31
0.0
  0
LINE
  5
47b
100
AcDbEntity
  8
text
 62
7
100
AcDbLine
 10
28.838236
 20
98.229054
 30
0.0
 11
28.693187
 21
98.086307
 31
0.0
  0
LINE
  5
47c
100
AcDbEntity
  8
text
 62
7
100
AcDbLine
 10
28.693187
 20
98.086307
 30
0.0
 11
28.476764
 21
98.012632
 31
0.0
  0
LINE
  5
47d
100
AcDbEntity
  8
text
 62
7
100
AcDbLine
 10
28.476764
 20
98.012632
 30
0.0
 11
28.403089
 21
98.012632
 31
0.0
  0
LINE
  5
47e
100
AcDbEntity
  8
text
 62
7
100
AcDbLine
 10
28.403089
 20
98.012632
 30
0.0
 11
28.186667
 21
98.086307
 31
0.0
  0
LINE
  5
47f
100
AcDbEntity
  8
text
 62
7
100
AcDbLine
 10
28.186667
 20
98.086307
 30
0.0
 11
28.039315
 21
98.229054
 31
0.0
  0
LINE
  5
480
100
AcDbEntity
  8
text
 62
7
100
AcDbLine
 10
28.039315
 20
98.229054
 30
0.0
 11
27.967942
 21
98.447778
 31
0.0
  0
LINE
  5
481
100
AcDbEntity
  8
text
 62
7
100
AcDbLine
 10
27.967942
 20
98.447778
 30
0.0
 11
27.967942
 21
98.519152
 31
0.0
  0
LINE
  5
482
100
AcDbEntity
  8
text
 62
7
100
AcDbLine
 10
27.967942
 20
98.519152
 30
0.0
 11
28.039315
 21
98.737876
 31
0.0
  0
LINE
  5
483
100
AcDbEntity
  8
text
 62
7
100
AcDbLine
 10
28.039315
 20
98.737876
 30
0.0
 11
28.186667
 21
98.882925
 31
0.0
  0
LINE
  5
484
100
AcDbEntity
  8
text
 62
7
100
AcDbLine
 10
28.186667
 20
98.882925
 30
0.0
 11
28.403089
 21
98.956601
 31
0.0
  0
LINE
  5
485
100
AcDbEntity
  8
text
 62
7
100
AcDbLine
 10
28.403089
 20
98.956601
 30
0.0
 11
28.476764
 21
98.956601
 31
0.0
  0
LINE
  5
486
100
AcDbEntity
  8
text
 62
7
100
AcDbLine
 10
28.476764
 20
98.956601
 30
0.0
 11
28.693187
 21
98.882925
 31
0.0
  0
LINE
  5
487
100
AcDbEntity
  8
text
 62
7
100
AcDbLine
 10
28.693187
 20
98.882925
 30
0.0
 11
28.838236
 21
98.737876
 31
0.0
  0
LINE
  5
488
100
AcDbEntity
  8
text
 62
7
100
AcDbLine
 10
28.838236
 20
98.737876
 30
0.0
 11
28.909609
 21
98.447778
 31
0.0
  0
LINE
  5
489
100
AcDbEntity
  8
text
 62
7
100
AcDbLine
 10
28.909609
 20
98.447778
 30
0.0
 11
28.909609
 21
98.086307
 31
0.0
  0
LINE
  5
48a
100
AcDbEntity
  8
text
 62
7
100
AcDbLine
 10
28.909609
 20
98.086307
 30
0.0
 11
28.838236
 21
97.722534
 31
0.0
  0
LINE
  5
48b
100
AcDbEntity
  8
text
 62
7
100
AcDbLine
 10
28.838236
 20
97.722534
 30
0.0
 11
28.693187
 21
97.504960
 31
0.0
  0
LINE
  5
48c
100
AcDbEntity
  8
text
 62
7
100
AcDbLine
 10
28.693187
 20
97.504960
 30
0.0
 11
28.476764
 21
97.432436
 31
0.0
  0
LINE
  5
48d
100
AcDbEntity
  8
text
 62
7
100
AcDbLine
 10
28.476764
 20
97.432436
 30
0.0
 11
28.329413
 21
97.432436
 31
0.0
  0
LINE
  5
48e
100
AcDbEntity
  8
text
 62
7
100
AcDbLine
 10
28.329413
 20
97.432436
 30
0.0
 11
28.112991
 21
97.504960
 31
0.0
  0
LINE
  5
48f
100
AcDbEntity
  8
text
 62
7
100
AcDbLine
 10
28.112991
 20
97.504960
 30
0.0
 11
28.039315
 21
97.650009
 31
0.0
  0
LINE
  5
490
100
AcDbEntity
  8
text
 62
7
100
AcDbLine
 10
26.016976
 20
95.024382
 30
0.0
 11
26.159722
 21
95.095755
 31
0.0
  0
LINE
  5
491
100
AcDbEntity
  8
text
 62
7
100
AcDbLine
 10
26.159722
 20
95.095755
 30
0.0
 11
26.378447
 21
95.314480
 31
0.0
  0
LINE
  5
492
100
AcDbEntity
  8
text
 62
7
100
AcDbLine
 10
26.378447
 20
95.314480
 30
0.0
 11
26.378447
 21
93.790315
 31
0.0
  0
LINE
  5
493
100
AcDbEntity
  8
text
 62
7
100
AcDbLine
 10
27.683883
 20
95.314480
 30
0.0
 11
27.467461
 21
95.240804
 31
0.0
  0
LINE
  5
494
100
AcDbEntity
  8
text
 62
7
100
AcDbLine
 10
27.467461
 20
95.240804
 30
0.0
 11
27.320110
 21
95.024382
 31
0.0
  0
LINE
  5
495
100
AcDbEntity
  8
text
 62
7
100
AcDbLine
 10
27.320110
 20
95.024382
 30
0.0
 11
27.248736
 21
94.660608
 31
0.0
  0
LINE
  5
496
100
AcDbEntity
  8
text
 62
7
100
AcDbLine
 10
27.248736
 20
94.660608
 30
0.0
 11
27.248736
 21
94.444186
 31
0.0
  0
LINE
  5
497
100
AcDbEntity
  8
text
 62
7
100
AcDbLine
 10
27.248736
 20
94.444186
 30
0.0
 11
27.320110
 21
94.080413
 31
0.0
  0
LINE
  5
498
100
AcDbEntity
  8
text
 62
7
100
AcDbLine
 10
27.320110
 20
94.080413
 30
0.0
 11
27.467461
 21
93.862839
 31
0.0
  0
LINE
  5
499
100
AcDbEntity
  8
text
 62
7
100
AcDbLine
 10
27.467461
 20
93.862839
 30
0.0
 11
27.683883
 21
93.790315
 31
0.0
  0
LINE
  5
49a
100
AcDbEntity
  8
text
 62
7
100
AcDbLine
 10
27.683883
 20
93.790315
 30
0.0
 11
27.828932
 21
93.790315
 31
0.0
  0
LINE
  5
49b
100
AcDbEntity
  8
text
 62
7
100
AcDbLine
 10
27.828932
 20
93.790315
 30
0.0
 11
28.047657
 21
93.862839
 31
0.0
  0
LINE
  5
49c
100
AcDbEntity
  8
text
 62
7
100
AcDbLine
 10
28.047657
 20
93.862839
 30
0.0
 11
28.190403
 21
94.080413
 31
0.0
  0
LINE
  5
49d
100
AcDbEntity
  8
text
 62
7
100
AcDbLine
 10
28.190403
 20
94.080413
 30
0.0
 11
28.264079
 21
94.444186
 31
0.0
  0
LINE
  5
49e
100
AcDbEntity
  8
text
 62
7
100
AcDbLine
 10
28.264079
 20
94.444186
 30
0.0
 11
28.264079
 21
94.660608
 31
0.0
  0
LINE
  5
49f
100
AcDbEntity
  8
text
 62
7
100
AcDbLine
 10
28.264079
 20
94.660608
 30
0.0
 11
28.190403
 21
95.024382
 31
0.0
  0
LINE
  5
4a0
100
AcDbEntity
  8
text
 62
7
100
AcDbLine
 10
28.190403
 20
95.024382
 30
0.0
 11
28.047657
 21
95.240804
 31
0.0
  0
LINE
  5
4a1
100
AcDbEntity
  8
text
 62
7
100
AcDbLine
 10
28.047657
 20
95.240804
 30
0.0
 11
27.828932
 21
95.314480
 31
0.0
  0
LINE
  5
4a2
100
AcDbEntity
  8
text
 62
7
100
AcDbLine
 10
27.828932
 20
95.314480
 30
0.0
 11
27.683883
 21
95.314480
 31
0.0
  0
LINE
  5
4a3
100
AcDbEntity
  8
text
 62
7
100
AcDbLine
 10
23.521782
 20
92.455767
 30
0.0
 11
23.664528
 21
92.527140
 31
0.0
  0
LINE
  5
4a4
100
AcDbEntity
  8
text
 62
7
100
AcDbLine
 10
23.664528
 20
92.527140
 30
0.0
 11
23.883253
 21
92.745864
 31
0.0
  0
LINE
  5
4a5
100
AcDbEntity
  8
text
 62
7
100
AcDbLine
 10
23.883253
 20
92.745864
 30
0.0
 11
23.883253
 21
91.221699
 31
0.0
  0
LINE
  5
4a6
100
AcDbEntity
  8
text
 62
7
100
AcDbLine
 10
24.972267
 20
92.455767
 30
0.0
 11
25.115014
 21
92.527140
 31
0.0
  0
LINE
  5
4a7
100
AcDbEntity
  8
text
 62
7
100
AcDbLine
 10
25.115014
 20
92.527140
 30
0.0
 11
25.333738
 21
92.745864
 31
0.0
  0
LINE
  5
4a8
100
AcDbEntity
  8
text
 62
7
100
AcDbLine
 10
25.333738
 20
92.745864
 30
0.0
 11
25.333738
 21
91.221699
 31
0.0
  0
ENDSEC
  0
SECTION
  2
OBJECTS
  0
DICTIONARY
  5
C
330
0
100
AcDbDictionary
  3
ACAD_GROUP
350
D
  3
ACAD_MLINESTYLE
350
17
  0
DICTIONARY
  5
D
330
C
100
AcDbDictionary
  0
DICTIONARY
  5
1A
330
C
100
AcDbDictionary
  0
DICTIONARY
  5
17
330
C
100
AcDbDictionary
  3
STANDARD
350
18
  0
DICTIONARY
  5
19
330
C
100
AcDbDictionary
  0
ENDSEC
  0
EOF
